# exported by v3d-codec
mtllib model.mtl
o surface_7
v -0.19615132 0.0034596522 -0.37661815
v -0.22721419 0.0780994 -0.3420758
v -0.1601602 0.052586503 -0.39203635
v -0.22378334 0.13176654 -0.32715175
v -0.1738303 0.123030625 -0.36100632
v -0.13012584 -0.105970964 -0.39132896
v -0.2042001 -0.07119948 -0.3578204
v -0.20253038 -0.13030861 -0.33392423
v -0.12925108 -0.17379494 -0.3591072
v -0.16167141 -0.2103658 -0.3081644
v -0.12138989 0.11036059 -0.38699472
v -0.109288715 -0.015018068 -0.4232245
v -0.07786887 0.034071278 -0.44626987
v -0.12696297 -0.2549435 -0.27462384
v -0.09666186 -0.22367509 -0.33160004
v -0.046075266 -0.041649856 -0.43528584
v -0.07451894 0.07770828 -0.4387369
v -0.06776297 -0.16704807 -0.38156906
v -0.074532054 -0.2690005 -0.27106646
v -0.035025157 -0.21825235 -0.3385631
v -0.046304684 -0.10643095 -0.4144587
v -0.02724897 -0.24866556 -0.29906952
v -0.039338578 0.008439548 -0.45895496
v -0.04960672 0.0687334 -0.47326532
v 0.0034593171 -0.14324504 -0.3891606
v -0.018872583 -0.18746181 -0.36401156
v -0.00935788 0.06420949 -0.48449773
v -0.023793751 0.12866518 -0.48980194
v -0.004176311 -0.069488905 -0.42844266
v 0.010700381 0.0002867136 -0.45685905
v 0.012047834 0.10223101 -0.49865708
v 0.04923089 -0.19097653 -0.35227704
v 0.002007609 0.14331293 -0.4985687
v 0.021852037 0.046860546 -0.48107648
v 0.023036934 -0.056673806 -0.42544076
v 0.018150017 0.12636274 -0.50005573
v 0.061476838 -0.22953439 -0.30919638
v 0.014357412 0.14732394 -0.49001735
v 0.054206602 -0.016618548 -0.44717184
v 0.030262003 0.09328692 -0.4880451
v 0.031137375 0.12569825 -0.4860487
v 0.041484166 0.04880328 -0.4755347
v 0.06736009 -0.09362254 -0.40680632
v 0.04342684 0.1085272 -0.4602017
v 0.047983427 0.06906303 -0.4586035
v 0.07200523 0.010473131 -0.4523534
v 0.10535521 -0.15587275 -0.37054121
v 0.059965592 0.10510417 -0.43131214
v 0.07195011 0.036648624 -0.45161623
v 0.09310214 0.06905137 -0.41873318
v 0.11637237 0.031540316 -0.42442137
v 0.11340762 -0.065838076 -0.40927258
v 0.12071777 -0.19304314 -0.34153625
v 0.1354846 -0.028885825 -0.4110357
v 0.12647271 0.10055699 -0.38722917
v 0.12663613 -0.23087762 -0.29615742
v 0.16442445 0.047990266 -0.39171317
v 0.14869106 -0.11757104 -0.38309318
v 0.17289759 -0.15989424 -0.35141492
v 0.16844013 0.0014954905 -0.40006086
v 0.16388051 -0.19739975 -0.32481706
v 0.18936779 -0.1055298 -0.36926165
v 0.20311794 -0.05418634 -0.374236
v 0.18837242 0.098133326 -0.36336362
v 0.19300692 -0.20430861 -0.29899046
v 0.20671722 0.038326997 -0.37270638
v 0.22830118 -0.024919469 -0.3600391
v 0.23448104 -0.13867223 -0.32058883
v 0.24944508 -0.086345434 -0.33054206
v 0.23179775 -0.19298546 -0.27685007
v -0.40434372 -0.09461194 0.18148524
v -0.40192285 -0.07653928 0.24521777
v -0.41192374 -0.021122009 0.19321248
v -0.40720427 -0.00575756 0.24114591
v -0.4037692 -0.0070559643 0.1187862
v -0.401122 0.055846456 0.14586987
v -0.40452045 0.04324388 0.21873
v -0.3951144 0.030975675 0.2707539
v -0.3923425 0.10473326 0.1865084
v -0.39358622 -0.02585084 0.28962928
v -0.3859545 -0.1633126 0.21447115
v -0.3843277 0.09288071 0.259307
v -0.39388493 -0.05719868 0.07710606
v -0.38684225 -0.13237858 0.2632471
v -0.37674078 0.09466221 0.033402298
v -0.37641263 -0.15737826 0.08993191
v -0.38556516 0.017600123 0.021617448
v -0.37725487 -0.10435658 0.3038843
v -0.38430554 -0.16328382 0.14295352
v -0.37632838 0.0068915803 0.32300675
v -0.37421337 0.14626896 0.12069723
v -0.37395754 -0.08960721 0.010086927
v -0.378023 0.14070766 0.2333677
v -0.36091858 -0.21576312 0.18990879
v -0.35107034 -0.200727 0.2820993
v -0.35956228 0.1870958 0.21379691
v -0.3703168 -0.0581428 0.33134246
v -0.36824664 0.06556531 -0.036371954
v -0.36945194 0.007616042 -0.049018614
v -0.35329556 0.043363184 0.34702992
v -0.36194012 -0.20401505 0.12615107
v -0.3571188 0.11396833 0.31329253
v -0.3561507 0.16810714 0.27142596
v -0.3482533 -0.08881881 -0.08103228
v -0.3427755 0.17136283 0.008582419
v -0.34001926 0.07964501 -0.12698822
v -0.34584576 0.12486886 -0.061532117
v -0.34256786 -0.21468875 0.075411595
v -0.33671 -0.17288145 -0.018841999
v -0.3494413 -0.11838856 0.34500214
v -0.35104707 0.20169969 0.15353326
v -0.3472327 -0.019309927 -0.11923695
v -0.3180486 -0.2615374 0.13927515
v -0.31384394 0.23873602 0.092030905
v -0.32384878 -0.17700537 0.34661266
v -0.31258327 -0.26431626 0.25643647
v -0.3269335 0.005479351 -0.1844552
v -0.32642463 -0.07678731 -0.15260051
v -0.30387223 0.17078741 -0.13270886
v -0.31332248 -0.23222283 0.31145957
v -0.3078751 -0.24861503 0.05990917
v -0.30562907 0.21034583 -0.036319118
v -0.30094516 -0.16769172 -0.124116614
v -0.29521865 -0.039129 -0.24411255
v -0.30812111 0.052784927 -0.23978736
v -0.2946682 -0.290944 0.21056892
v -0.2993095 0.12358144 -0.22273518
v -0.27481842 -0.26392525 0.009808325
v -0.28231245 -0.13527146 -0.20610157
v -0.30307308 -0.21183987 -0.04360289
v -0.2768152 0.112345554 -0.27610672
v -0.27015403 -0.29682598 0.109223485
v -0.26062408 -0.21951205 -0.13285293
v -0.24197762 -0.32319868 0.19225404
v -0.27808502 0.054619048 -0.2943828
v -0.24886096 -0.09584773 -0.2955862
v -0.2603766 -0.25257027 -0.059926175
v -0.24406514 -0.19408241 -0.21274018
v -0.25912568 0.17743672 -0.24621087
v -0.25421053 0.097457506 -0.31280592
v -0.24274118 0.000045091165 -0.3348849
v -0.22721419 0.0780994 -0.3420758
v -0.23500933 -0.30259866 0.029845394
v -0.23224205 -0.2576189 -0.1128927
v -0.231152 -0.2852742 -0.035672005
v -0.23442662 0.1635266 -0.29749146
v -0.19517212 -0.2369609 -0.22946632
v -0.22378334 0.13176654 -0.32715175
v -0.21251547 -0.18611312 -0.27876663
v -0.20253038 -0.13030861 -0.33392423
v -0.2042001 -0.07119948 -0.3578204
v -0.19615132 0.0034596522 -0.37661815
v -0.16167141 -0.2103658 -0.3081644
v -0.12696297 -0.2549435 -0.27462384
v -0.3703168 -0.0581428 0.33134246
v -0.341276 -0.05062734 0.36708507
v -0.37632838 0.0068915803 0.32300675
v -0.35329556 0.043363184 0.34702992
v -0.3494413 -0.11838856 0.34500214
v -0.32341206 0.079397224 0.3707474
v -0.3571188 0.11396833 0.31329253
v -0.31972435 0.1479974 0.34344843
v -0.3561507 0.16810714 0.27142596
v -0.3200537 0.20971203 0.2926846
v -0.30376416 -0.096798114 0.39424932
v -0.32384878 -0.17700537 0.34661266
v -0.28991005 0.0047157933 0.41135678
v -0.29776144 -0.1638999 0.378754
v -0.26372793 0.1367623 0.39747623
v -0.28026956 -0.21943137 0.35835114
v -0.31332248 -0.23222283 0.31145957
v -0.26836568 0.20974323 0.35404724
v -0.2544161 0.08044418 0.4214978
v -0.26660037 -0.2684483 0.31883615
v -0.24789122 -0.13489479 0.4207107
v -0.24379136 0.2592793 0.3270716
v -0.21437258 -0.0646929 0.45177588
v -0.23701787 -0.18964504 0.4049715
v -0.20808515 0.020516453 0.45485565
v -0.22129734 -0.25920475 0.36369196
v -0.18184485 0.20677595 0.41045585
v -0.17258802 0.11996166 0.44972774
v -0.1749547 -0.23323481 0.40419668
v -0.16467299 -0.03368283 0.47508037
v -0.16139735 -0.16382018 0.44589555
v -0.16759522 0.3026232 0.325002
v -0.1439077 0.2686994 0.38000792
v -0.16883674 -0.28926593 0.3550408
v -0.13219823 -0.10071216 0.47299755
v -0.12051544 0.0045969305 0.48800877
v -0.11043273 0.06620699 0.48311624
v -0.06694615 -0.26695713 0.39676303
v -0.0936502 0.19400395 0.4504081
v -0.09919324 -0.055645067 0.48931342
v -0.08673737 -0.19993527 0.44354075
v -0.05990909 -0.13786024 0.472762
v -0.07131581 0.12608296 0.4792579
v -0.059697095 0.01153779 0.49882147
v -0.07980578 0.2330333 0.4329257
v -0.066889174 0.30444932 0.36761793
v -0.03889988 0.27693596 0.40488955
v -0.01737289 0.09900665 0.49165764
v -0.012401041 -0.08740331 0.49036974
v -0.008743985 0.24153142 0.43536156
v -0.035952915 -0.038364492 0.4996045
v -0.038557176 0.21026282 0.4522401
v 0.014108947 0.3173893 0.35907212
v 0.0005412724 -0.2554661 0.40738398
v 0.0024371601 0.16379672 0.47378388
v -0.0016649289 -0.19552417 0.44807678
v 0.019780684 0.030592432 0.49995816
v 0.038499586 0.20468415 0.45507234
v 0.014430918 -0.029657414 0.49950802
v 0.06008207 0.2688474 0.41257146
v 0.048636455 -0.13010052 0.4714964
v 0.04156906 0.08441488 0.4925827
v 0.05741846 -0.21415025 0.42877302
v 0.053942107 0.1392008 0.47886747
v 0.06549605 -0.042443413 0.49054155
v 0.03107588 -0.28679585 0.36930153
v 0.09620872 0.1036291 0.479376
v 0.1256973 -0.27169243 0.36050355
v 0.10442007 0.03742857 0.48418173
v 0.09261116 -0.17626573 0.44436148
v 0.12221061 0.16781159 0.4558524
v 0.101919055 -0.10439798 0.46923736
v 0.12732619 0.23580055 0.42536613
v 0.14721775 -0.028580442 0.4697971
v 0.1596308 -0.2129459 0.40282938
v 0.14992167 0.30224055 0.36247268
v 0.14216675 -0.15826948 0.43987417
v 0.18354066 -0.10324043 0.44387254
v 0.1894048 0.2580451 0.38863695
v 0.18391258 0.07992027 0.45608503
v 0.18847908 0.021527179 0.45882186
v 0.19384846 0.21230665 0.41412616
v 0.22016951 -0.17719597 0.39996222
v 0.20190684 -0.26441047 0.3373922
v 0.23375803 -0.023285165 0.43939334
v 0.2063567 0.30006117 0.33528334
v 0.24786027 -0.22103119 0.35437268
v 0.21674995 0.1179977 0.4361347
v 0.2766682 -0.07854412 0.40750232
v 0.23857284 0.030559467 0.4390042
v 0.26138806 0.22975042 0.3612297
v 0.25658566 0.10841401 0.41744778
v 0.29097033 -0.13244231 0.38158756
v 0.27976656 -0.008777223 0.41523916
v 0.31263712 -0.17143336 0.34260488
v 0.29833427 0.07514635 0.3986376
v 0.3026056 0.14271584 0.37388518
v 0.32389453 0.02078328 0.38279435
v 0.32129958 -0.03295309 0.3831925
v 0.33255422 -0.08034451 0.36536634
v 0.36150557 -0.097403884 0.32396317
v -0.35956228 0.1870958 0.21379691
v -0.3561507 0.16810714 0.27142596
v -0.3200537 0.20971203 0.2926846
v -0.29414907 0.262137 0.25453347
v -0.3004875 0.2678755 0.17271724
v -0.35104707 0.20169969 0.15353326
v -0.31384394 0.23873602 0.092030905
v -0.30562907 0.21034583 -0.036319118
v -0.26384175 0.2666139 0.0114029115
v -0.25386274 0.30497378 0.20568989
v -0.24379136 0.2592793 0.3270716
v -0.26879403 0.23846324 -0.07047674
v -0.30387223 0.17078741 -0.13270886
v -0.24655613 0.23462231 -0.14153937
v -0.248377 0.29584962 0.07267575
v -0.23567025 0.22106728 -0.20800854
v -0.21248323 0.31307647 0.2658164
v -0.25912568 0.17743672 -0.24621087
v -0.22930688 0.31678787 0.1285254
v -0.2306907 0.26444203 -0.07671715
v -0.20571357 0.2132185 -0.26831946
v -0.19560033 0.32342303 0.09228415
v -0.19813299 0.2622044 -0.14441155
v -0.23442662 0.1635266 -0.29749146
v -0.21085273 0.2877066 -0.026312288
v -0.20877056 0.30464208 0.0321804
v -0.19339073 0.17921437 -0.31744316
v -0.22378334 0.13176654 -0.32715175
v -0.19157243 0.33441034 0.17548162
v -0.1738303 0.123030625 -0.36100632
v -0.16759522 0.3026232 0.325002
v -0.16443206 0.2473088 -0.23914522
v -0.15770109 0.28545856 -0.110575855
v -0.16142114 0.3369317 0.2375203
v -0.14156254 0.31585354 0.0009022498
v -0.14280221 0.33905694 0.111900344
v -0.14657354 0.20906724 -0.315587
v -0.13371956 0.16231708 -0.35314935
v -0.11498907 0.34637278 0.18655546
v -0.12755667 0.26948178 -0.19710042
v -0.1088091 0.24369532 -0.27353057
v -0.12138989 0.11036059 -0.38699472
v -0.09533947 0.33569577 0.29206893
v -0.09183167 0.29462275 -0.09628978
v -0.058932446 0.18526527 -0.35377944
v -0.07089739 0.34444767 0.25240576
v -0.08224218 0.34243026 0.12849884
v -0.085124105 0.21510749 -0.3256485
v -0.07307617 0.26602662 -0.1884706
v -0.08722526 0.32584718 0.029801007
v -0.06707749 0.11575374 -0.42269567
v -0.07451894 0.07770828 -0.4387369
v -0.0618493 0.13987474 -0.37514305
v -0.060620423 0.24174592 -0.26464957
v -0.066889174 0.30444932 0.36761793
v -0.012204096 0.22533734 -0.31298578
v -0.042574693 0.32532284 0.07832003
v -0.038769197 0.34474003 0.1902829
v -0.01966441 0.28728187 -0.044771362
v -0.03927957 0.33124435 0.32481638
v -0.021206945 0.240842 -0.24104604
v -0.035182644 0.12594485 -0.4215767
v -0.015590736 0.33490306 0.14368531
v -0.0444729 0.10818617 -0.45985043
v -0.04960672 0.0687334 -0.47326532
v -0.023793751 0.12866518 -0.48980194
v 0.014108947 0.3173893 0.35907212
v 0.0099684205 0.13392265 -0.3903905
v 0.010499074 0.34033766 0.30530456
v -0.0035177055 0.25660685 -0.15636158
v -0.0062151398 0.13300163 -0.45383313
v 0.015983824 0.29182076 0.008682675
v 0.023846563 0.34365198 0.18715765
v 0.0071040713 0.120774984 -0.42413285
v -0.0048274193 0.15090202 -0.47703367
v 0.002007609 0.14331293 -0.4985687
v 0.017783696 0.3236922 0.10473683
v 0.036714822 0.25028002 -0.23271574
v 0.031105774 0.34816065 0.2557287
v 0.05978242 0.15349641 -0.37550473
v 0.02303159 0.25836274 -0.12006428
v 0.014357412 0.14732394 -0.49001735
v 0.035757903 0.20515059 -0.34511063
v 0.028560648 0.12116793 -0.45063138
v 0.022849 0.13567549 -0.47357544
v 0.045953028 0.2771604 -0.08054069
v 0.059965592 0.10510417 -0.43131214
v 0.031137375 0.12569825 -0.4860487
v 0.049876034 0.34210438 0.14139159
v 0.06837428 0.30618876 -0.03169763
v 0.06843063 0.24399549 -0.29443693
v 0.05433289 0.12119947 -0.41134548
v 0.04787327 0.3137684 0.035421297
v 0.07081276 0.28011343 -0.15214601
v 0.04342684 0.1085272 -0.4602017
v 0.080143906 0.34031987 0.08454771
v 0.08713242 0.35616094 0.18147942
v 0.083246365 0.20035395 -0.3478607
v 0.08637454 0.3554146 0.25895774
v 0.1050514 0.3426194 0.30991575
v 0.09485626 0.123379566 -0.39382717
v 0.10156708 0.31117243 -0.082742326
v 0.10275153 0.27737877 -0.22619496
v 0.10913982 0.3351088 0.01846486
v 0.1263122 0.13000415 -0.36841565
v 0.12793785 0.22936417 -0.31509167
v 0.12628742 0.35201904 0.104675956
v 0.11120067 0.29634038 -0.16272056
v 0.11648312 0.17456426 -0.35797042
v 0.14992167 0.30224055 0.36247268
v 0.12509416 0.26449594 -0.26502004
v 0.12647271 0.10055699 -0.38722917
v 0.13943471 0.30189157 -0.1402189
v 0.13497859 0.32082117 -0.05710207
v 0.15600291 0.19929712 -0.33266768
v 0.14158346 0.36150151 0.22145993
v 0.16267781 0.35725033 0.161541
v 0.1514901 0.2754309 -0.22657956
v 0.15926643 0.33170554 0.31517494
v 0.17431454 0.3491964 0.25656232
v 0.17732838 0.3375316 0.061899252
v 0.16427666 0.24705242 -0.27695218
v 0.1700235 0.1523655 -0.35262904
v 0.16816051 0.31026623 -0.07192951
v 0.20139366 0.3169232 0.010526814
v 0.1798833 0.28790018 -0.14749593
v 0.19020802 0.21862556 -0.2955763
v 0.18837242 0.098133326 -0.36336362
v 0.20066267 0.2601854 -0.20140007
v 0.20530407 0.16101263 -0.32922313
v 0.2063567 0.30006117 0.33528334
v 0.20944431 0.29192618 -0.071032286
v 0.2037873 0.34851342 0.19457692
v 0.22239318 0.3287847 0.26128355
v 0.21886402 0.22549355 -0.24791643
v 0.23259038 0.33052826 0.14425735
v 0.23631462 0.258857 -0.11615327
v 0.24955064 0.30508184 0.07734038
v 0.24982715 0.3231697 0.21627423
v 0.2569558 0.27727956 0.0039608814
v -0.31332248 -0.23222283 0.31145957
v -0.31258327 -0.26431626 0.25643647
v -0.26660037 -0.2684483 0.31883615
v -0.24232046 -0.31405476 0.25697184
v -0.2946682 -0.290944 0.21056892
v -0.24197762 -0.32319868 0.19225404
v -0.22059554 -0.30448282 0.30480656
v -0.27015403 -0.29682598 0.109223485
v -0.23500933 -0.30259866 0.029845394
v -0.21557805 -0.3224704 0.072831556
v -0.21416989 -0.33224607 0.13203527
v -0.231152 -0.2852742 -0.035672005
v -0.23224205 -0.2576189 -0.1128927
v -0.17026219 -0.30184877 -0.0825977
v -0.22129734 -0.25920475 0.36369196
v -0.1913481 -0.3156352 -0.0032579184
v -0.16718952 -0.2792563 -0.16930549
v -0.19517212 -0.2369609 -0.22946632
v -0.16189516 -0.35170984 0.15564175
v -0.16927154 -0.3473098 0.23115215
v -0.15618646 -0.33501944 0.28373998
v -0.16883674 -0.28926593 0.3550408
v -0.14500855 -0.33440638 0.018769156
v -0.119923644 -0.31028768 0.33978516
v -0.10306429 -0.29186624 -0.19024475
v -0.12696297 -0.2549435 -0.27462384
v -0.08113118 -0.35255 0.24270464
v -0.06694615 -0.26695713 0.39676303
v -0.10937542 -0.36124432 0.1953932
v -0.09392571 -0.35557187 0.10141105
v -0.09429518 -0.33098647 -0.029897828
v -0.04547139 -0.32193762 0.32246238
v -0.074532054 -0.2690005 -0.27106646
v -0.05347701 -0.31471258 -0.0994716
v -0.05810758 -0.34355927 0.04434524
v -0.04750899 -0.35864252 0.16108517
v -0.044521358 -0.33168522 -0.010375439
v -0.036234878 -0.27564198 -0.24735329
v -0.019057432 -0.2898075 -0.18672697
v -0.004143676 -0.34531054 0.11319532
v -0.02724897 -0.24866556 -0.29906952
v 0.05482284 -0.34310538 0.19595058
v 0.0028227281 -0.3389116 0.27123758
v 0.00881093 -0.3087849 -0.066042684
v 0.027704613 -0.3161606 -0.0037489529
v 0.03107588 -0.28679585 0.36930153
v 0.0009579576 -0.29976842 -0.12534583
v 0.024578001 -0.33086988 0.069118515
v 0.0005412724 -0.2554661 0.40738398
v 0.030556515 -0.25896665 -0.25960788
v 0.04841311 -0.31356806 0.32266375
v 0.035339408 -0.28384796 -0.15654519
v 0.061476838 -0.22953439 -0.30919638
v 0.090290524 -0.32691923 0.2726627
v 0.079474665 -0.27094343 -0.21672362
v 0.09001132 -0.33595127 0.11881698
v 0.08253849 -0.29756853 -0.0988782
v 0.08689114 -0.3169974 -0.008088135
v 0.09129192 -0.25378087 -0.26243106
v 0.09047026 -0.3265413 0.048652977
v 0.1256973 -0.27169243 0.36050355
v 0.13255939 -0.28180575 -0.1684971
v 0.12663613 -0.23087762 -0.29615742
v 0.12584186 -0.3109725 0.30238917
v 0.16208534 -0.33181587 0.16654678
v 0.14934094 -0.31971273 0.0411817
v 0.15665443 -0.3003935 -0.066351414
v 0.14588344 -0.26267678 -0.22530445
v 0.17483944 -0.24600244 -0.24614792
v 0.16884522 -0.32024664 0.2568909
v 0.1774613 -0.26816145 -0.18888429
v 0.18810046 -0.2795698 -0.13580492
v 0.19300692 -0.20430861 -0.29899046
v 0.1891654 -0.2950484 0.30160394
v 0.16388051 -0.19739975 -0.32481706
v 0.20190684 -0.26441047 0.3373922
v 0.240302 -0.3086133 0.19630425
v 0.21529947 -0.28855282 -0.06269493
v 0.21642314 -0.30782992 0.049594786
v 0.23300518 -0.2503203 -0.1670996
v 0.23179775 -0.19298546 -0.27685007
v 0.2255753 -0.23458959 -0.21765733
v 0.24922228 -0.28775847 0.2645909
v 0.25429925 -0.2582831 0.30925453
v 0.2579797 -0.3001594 0.10121191
v 0.25912398 -0.27834222 -0.01527227
v 0.26204854 -0.25544968 -0.09303827
v 0.24786027 -0.22103119 0.35437268
v 0.27773485 -0.18845221 -0.20678784
v 0.29138353 -0.20300247 -0.14521486
v 0.29996476 -0.26801953 0.2237206
v 0.291628 -0.24801773 0.28566414
v 0.2894003 -0.25053787 -0.029564366
v 0.29301208 -0.22785838 -0.08481772
v 0.31263712 -0.17143336 0.34260488
v 0.3089853 -0.21231812 0.31163836
v 0.29976586 -0.26294264 0.055641532
v 0.30721772 -0.27023083 0.13773555
v 0.3263321 -0.2081235 -0.012364819
v 0.33474734 -0.22578998 0.24648388
v 0.34879938 -0.21908945 0.17546354
v 0.33359212 -0.2336704 0.10296375
v 0.34918338 -0.17908026 0.28763905
v 0.18837242 0.098133326 -0.36336362
v 0.1700235 0.1523655 -0.35262904
v 0.20530407 0.16101263 -0.32922313
v 0.23915812 0.116694435 -0.321333
v 0.19020802 0.21862556 -0.2955763
v 0.2302518 0.18377377 -0.28820857
v 0.20671722 0.038326997 -0.37270638
v 0.21886402 0.22549355 -0.24791643
v 0.28385714 0.25792718 0.30817705
v 0.22239318 0.3287847 0.26128355
v 0.2063567 0.30006117 0.33528334
v 0.24860041 0.22832444 -0.17081864
v 0.20066267 0.2601854 -0.20140007
v 0.23631462 0.258857 -0.11615327
v 0.24342756 0.039621513 -0.34387964
v 0.22830118 -0.024919469 -0.3600391
v 0.26138806 0.22975042 0.3612297
v 0.26489618 0.25213018 -0.051856462
v 0.20944431 0.29192618 -0.071032286
v 0.2569558 0.27727956 0.0039608814
v 0.25795668 0.18634354 -0.23546363
v 0.23448104 -0.13867223 -0.32058883
v 0.27646607 -0.14907889 -0.256086
v 0.23179775 -0.19298546 -0.27685007
v 0.24982715 0.3231697 0.21627423
v 0.29138952 0.28044814 0.25659886
v 0.23259038 0.33052826 0.14425735
v 0.2797997 0.29936448 0.17503226
v 0.27205473 0.12035146 -0.274231
v 0.24944508 -0.086345434 -0.33054206
v 0.276524 -0.04140967 -0.30588356
v 0.24955064 0.30508184 0.07734038
v 0.2865259 -0.103131436 -0.27303183
v 0.29163405 0.20271069 -0.10407631
v 0.28634983 0.17790343 -0.17316054
v 0.2888937 0.056118507 -0.2780215
v 0.27773485 -0.18845221 -0.20678784
v 0.30133194 0.11610633 -0.21372552
v 0.3215735 0.23342276 0.09344316
v 0.30959502 0.2700496 0.22135304
v 0.31835905 0.21411909 0.018676529
v 0.30699593 -0.11224182 -0.22668624
v 0.32395208 0.11214449 -0.14792672
v 0.3088219 -0.06042546 -0.24435289
v 0.30880058 0.020032082 -0.24846406
v 0.3026056 0.14271584 0.37388518
v 0.3383108 0.17017028 0.31332806
v 0.3175015 0.1573622 -0.10753269
v 0.29138353 -0.20300247 -0.14521486
v 0.31619158 -0.13778767 -0.17674764
v 0.33455217 0.16994536 -0.020862425
v 0.29301208 -0.22785838 -0.08481772
v 0.32397303 -0.17678756 -0.08962309
v 0.32139006 0.05222269 -0.2067043
v 0.33314973 0.23760518 0.1684925
v 0.32242873 -0.020850731 -0.21643169
v 0.32833412 0.2360853 0.26079005
v 0.3263321 -0.2081235 -0.012364819
v 0.33572182 -0.08178942 -0.16017999
v 0.35872012 0.047367696 0.33958042
v 0.29833427 0.07514635 0.3986376
v 0.32389453 0.02078328 0.38279435
v 0.34082603 0.12706262 -0.06918481
v 0.34327933 -0.12843935 -0.089823596
v 0.3447266 -0.02065534 -0.14463499
v 0.35100454 0.20362048 0.24127834
v 0.36624393 -0.14486897 0.0279116
v 0.35440537 0.075877495 -0.073560745
v 0.32129958 -0.03295309 0.3831925
v 0.35463312 -0.028682848 0.34872955
v 0.36841613 0.14272846 0.07987386
v 0.3546666 0.03203581 -0.09985527
v 0.33255422 -0.08034451 0.36536634
v 0.33359212 -0.2336704 0.10296375
v 0.3659323 -0.17636934 0.087721154
v 0.36690676 -0.108000785 -0.0146731
v 0.36716717 -0.18708935 0.21845275
v 0.33474734 -0.22578998 0.24648388
v 0.34879938 -0.21908945 0.17546354
v 0.36159402 -0.064961575 -0.065706275
v 0.34918338 -0.17908026 0.28763905
v 0.36150557 -0.097403884 0.32396317
v 0.37703663 0.08246014 0.2944447
v 0.36449417 0.098691784 -0.010099143
v 0.37412965 0.15882851 0.17900124
v 0.31263712 -0.17143336 0.34260488
v 0.37609053 0.13076112 0.26007256
v 0.38253632 -0.120319635 0.26928368
v 0.38075894 -0.027951544 0.31073695
v 0.39166537 -0.12839979 0.22572939
v 0.37879676 0.090608224 0.04929665
v 0.3751144 0.048396546 -0.00604101
v 0.3758609 -0.0064782817 -0.022926804
v 0.3817217 -0.05550756 0.013651027
v 0.38822803 0.025564788 0.28999445
v 0.38509315 -0.15428281 0.17768992
v 0.38939744 -0.11285299 0.094237655
v 0.39039916 -0.06792889 0.27957138
v 0.39096102 0.005638661 0.050591093
v 0.3991795 -0.10846636 0.16022542
v 0.3956769 0.08192876 0.22799194
v 0.39961863 0.07419755 0.16936556
v 0.39825672 0.052457478 0.120076746
v 0.39805493 -0.042179514 0.08793873
v 0.4036435 -0.014650991 0.24600932
v 0.40539116 -0.06277599 0.21601073
v 0.4049999 -0.063401595 0.14557739
v 0.4060783 0.033282574 0.21046962
v 0.40825617 -0.009072422 0.16511998
vt 0.7338754 0.09092188
vt 0.7040777 0.05032581
vt 0.75323147 0.0605731
vt 0.6979929 0.018940091
vt 0.73288304 0.02056843
vt 0.7762809 0.14943045
vt 0.7289252 0.13485837
vt 0.72750366 0.17122197
vt 0.7730969 0.19038987
vt 0.7477038 0.22034824
vt 0.76705307 0.023007393
vt 0.7907831 0.09604442
vt 0.81086695 0.06601441
vt 0.7623399 0.25493205
vt 0.78687245 0.22327012
vt 0.82744914 0.11097437
vt 0.8074542 0.04064542
vt 0.8083486 0.1850642
vt 0.7912061 0.26712716
vt 0.82097226 0.22373366
vt 0.82409674 0.14889628
vt 0.8214101 0.25237536
vt 0.8347303 0.08005208
vt 0.83188736 0.044382036
vt 0.8487739 0.17638314
vt 0.8329074 0.20292282
vt 0.85540533 0.04737407
vt 0.8495602 0.010695219
vt 0.84955215 0.12944925
vt 0.86267054 0.08784956
vt 0.8691922 0.026283622
vt 0.87031853 0.21310365
vt 0.86553603 0.0033388138
vt 0.8721145 0.058665037
vt 0.86609054 0.12544906
vt 0.8730622 0.013862014
vt 0.87389046 0.2467109
vt 0.8745984 0.0010218024
vt 0.88650197 0.101484716
vt 0.8796494 0.032885134
vt 0.88357013 0.014735341
vt 0.88386005 0.059711635
vt 0.8882059 0.1516869
vt 0.898432 0.027191103
vt 0.89629745 0.050071895
vt 0.8990697 0.08728099
vt 0.9043623 0.19467276
vt 0.9170523 0.0326941
vt 0.9037508 0.07271767
vt 0.9299712 0.058998346
vt 0.931938 0.08487725
vt 0.91669965 0.14033854
vt 0.9103477 0.22203779
vt 0.93382233 0.122484505
vt 0.96059424 0.048725665
vt 0.91122735 0.25615346
vt 0.96721 0.0859406
vt 0.9315015 0.17569286
vt 0.9420237 0.20651543
vt 0.9581943 0.11184186
vt 0.93506074 0.23241484
vt 0.95642096 0.17628294
vt 0.9713145 0.14999425
vt 0.9960704 0.06392342
vt 0.9542283 0.24558496
vt 0.99075127 0.10031825
vt 0.9926737 0.1397627
vt 0.9831305 0.20909595
vt 0.99841857 0.18090606
vt 0.98057854 0.24932414
vt 0.32206497 0.5880427
vt 0.33104712 0.5799828
vt 0.33496085 0.5940899
vt 0.34104845 0.58692914
vt 0.33102667 0.6109166
vt 0.34619784 0.60949
vt 0.34772846 0.5940121
vt 0.34865248 0.5841774
vt 0.3576804 0.60306746
vt 0.34154755 0.577528
vt 0.31578708 0.57390356
vt 0.3581476 0.58865523
vt 0.31539106 0.61455137
vt 0.32520258 0.57123923
vt 0.35188115 0.64219207
vt 0.2973954 0.59443897
vt 0.32848144 0.64046395
vt 0.33240643 0.5682826
vt 0.30582872 0.58424395
vt 0.34826985 0.5741733
vt 0.3663132 0.61859626
vt 0.29613775 0.6265931
vt 0.36556163 0.59451646
vt 0.30544394 0.5683288
vt 0.31933385 0.55932474
vt 0.37443662 0.59804505
vt 0.3404243 0.5682846
vt 0.33974338 0.6656335
vt 0.3167612 0.66475445
vt 0.3549117 0.57152534
vt 0.29618183 0.5786188
vt 0.36354488 0.57963514
vt 0.37108943 0.58754236
vt 0.27466348 0.65787476
vt 0.37722918 0.65050906
vt 0.3419554 0.7126783
vt 0.36334962 0.6792919
vt 0.28302678 0.582647
vt 0.26597714 0.61192393
vt 0.33453128 0.5604899
vt 0.3785169 0.60965586
vt 0.2943016 0.6936552
vt 0.28992414 0.5624373
vt 0.3923447 0.62198186
vt 0.3285599 0.5531338
vt 0.30923897 0.5506004
vt 0.29432395 0.7399419
vt 0.25664642 0.6943524
vt 0.39365488 0.7141067
vt 0.31938857 0.54987663
vt 0.27226117 0.5731755
vt 0.39738345 0.6642891
vt 0.2262447 0.6439624
vt 0.24125177 0.7729627
vt 0.32025596 0.795795
vt 0.2997185 0.54863876
vt 0.37577724 0.7818601
vt 0.25305626 0.5716238
vt 0.19548908 0.69625926
vt 0.24626891 0.6025111
vt 0.37806964 0.8410247
vt 0.27774924 0.55173486
vt 0.19953182 0.61603147
vt 0.29299918 0.5373604
vt 0.3165019 0.86413217
vt 0.15250377 0.7881695
vt 0.22714517 0.583543
vt 0.15491654 0.6548702
vt 0.43216354 0.7903392
vt 0.37121248 0.90292925
vt 0.22325867 0.9081413
vt 0.3343675 0.9960837
vt 0.2531688 0.55040014
vt 0.19735834 0.5836739
vt 0.23049279 0.5610289
vt 0.45934427 0.84807163
vt 0.11383412 0.61170954
vt 0.46417615 0.9252387
vt 0.09371317 0.68701965
vt 0.062700205 0.78984064
vt 0.10087498 0.8881739
vt 0.17524767 0.99841356
vt 0.020479057 0.65285474
vt 0.03548082 0.55799085
vt 0.3404243 0.5682846
vt 0.34430382 0.56259817
vt 0.34826985 0.5741733
vt 0.3549117 0.57152534
vt 0.33453128 0.5604899
vt 0.36152744 0.56822866
vt 0.36354488 0.57963514
vt 0.3703199 0.5741127
vt 0.37108943 0.58754236
vt 0.37892637 0.5826389
vt 0.34160778 0.55342
vt 0.3285599 0.5531338
vt 0.35489836 0.5571134
vt 0.33318216 0.54905665
vt 0.37205318 0.5626242
vt 0.32599294 0.54412943
vt 0.31938857 0.54987663
vt 0.38117844 0.57035625
vt 0.365914 0.55684656
vt 0.31726053 0.540529
vt 0.3408374 0.54304785
vt 0.389609 0.5723654
vt 0.35154957 0.5421374
vt 0.33421525 0.5388388
vt 0.3616796 0.54633224
vt 0.32395765 0.53349864
vt 0.38492635 0.5558671
vt 0.3748952 0.54801947
vt 0.3317604 0.5281055
vt 0.35807863 0.5372943
vt 0.34261915 0.5298967
vt 0.40054977 0.5654777
vt 0.39547995 0.55646336
vt 0.32171515 0.5241625
vt 0.35212278 0.52954304
vt 0.3647616 0.5339453
vt 0.3720947 0.5364266
vt 0.33251372 0.51092386
vt 0.38765803 0.5425953
vt 0.35920537 0.5279505
vt 0.3420416 0.51807237
vt 0.3516284 0.5183823
vt 0.38080516 0.5352436
vt 0.36875418 0.5269779
vt 0.3932317 0.5436948
vt 0.40530413 0.54913867
vt 0.40175626 0.5421989
vt 0.3805818 0.52708334
vt 0.36023146 0.5155497
vt 0.39814687 0.5353466
vt 0.36454195 0.5212865
vt 0.3924368 0.5367628
vt 0.41245866 0.5393272
vt 0.3383364 0.5021578
vt 0.38901758 0.5287188
vt 0.34731227 0.507179
vt 0.37505338 0.51868796
vt 0.39596957 0.527023
vt 0.3681734 0.51579523
vt 0.40601736 0.5287812
vt 0.3584444 0.5051477
vt 0.38215247 0.5192776
vt 0.3478547 0.497671
vt 0.38900787 0.5210964
vt 0.36953402 0.50875187
vt 0.33385074 0.49395764
vt 0.3874704 0.51394403
vt 0.34216496 0.48066187
vt 0.3806275 0.5089057
vt 0.35508567 0.495934
vt 0.39649785 0.51465344
vt 0.36446637 0.50002164
vt 0.40535644 0.51815873
vt 0.3758403 0.4993409
vt 0.35401917 0.4827646
vt 0.4176339 0.5194854
vt 0.36025265 0.4905569
vt 0.36943236 0.48920834
vt 0.41298506 0.51165503
vt 0.39034086 0.50162387
vt 0.3840162 0.4973281
vt 0.40689152 0.5084331
vt 0.3626832 0.4773612
vt 0.34839565 0.468796
vt 0.38188678 0.4882468
vt 0.42234266 0.5118252
vt 0.35847077 0.46737862
vt 0.39693722 0.4997766
vt 0.37840408 0.4777314
vt 0.3883231 0.49134207
vt 0.41549945 0.5001352
vt 0.39876807 0.49367118
vt 0.37299004 0.47057974
vt 0.38681766 0.48261786
vt 0.3696664 0.4619099
vt 0.3980226 0.48558092
vt 0.40723604 0.48894703
vt 0.39386073 0.47768712
vt 0.38721335 0.47411895
vt 0.38245186 0.4681139
vt 0.38315427 0.459579
vt 0.37443662 0.59804505
vt 0.37108943 0.58754236
vt 0.37892637 0.5826389
vt 0.38918173 0.58683974
vt 0.39356682 0.6016349
vt 0.3785169 0.60965586
vt 0.3923447 0.62198186
vt 0.39738345 0.6642891
vt 0.41380697 0.63999873
vt 0.40131974 0.59106934
vt 0.389609 0.5723654
vt 0.4179755 0.6726227
vt 0.39365488 0.7141067
vt 0.43665642 0.7040011
vt 0.4137724 0.6188317
vt 0.4532844 0.74509674
vt 0.40188506 0.5777218
vt 0.43216354 0.7903392
vt 0.41323495 0.6028845
vt 0.43577522 0.667141
vt 0.48966295 0.7841491
vt 0.4238554 0.6063498
vt 0.46212587 0.69028217
vt 0.45934427 0.84807163
vt 0.43574122 0.6432761
vt 0.42838153 0.6239587
vt 0.5163649 0.8432817
vt 0.46417615 0.9252387
vt 0.4148806 0.5890051
vt 0.5825883 0.9398297
vt 0.40054977 0.5654777
vt 0.5081664 0.73442924
vt 0.47087604 0.6613624
vt 0.41200098 0.57561904
vt 0.45044738 0.6188887
vt 0.43104145 0.5930862
vt 0.5603454 0.79277617
vt 0.6130641 0.84965974
vt 0.424697 0.5762979
vt 0.51109856 0.69073945
vt 0.5583811 0.7265173
vt 0.68778604 0.91729224
vt 0.41283894 0.5605108
vt 0.48887455 0.63500595
vt 0.6719112 0.7561368
vt 0.42063284 0.5613235
vt 0.43813992 0.57935005
vt 0.6145799 0.7496871
vt 0.5314895 0.661137
vt 0.45592934 0.5991789
vt 0.7920385 0.86451715
vt 0.82135725 0.93639696
vt 0.7232943 0.80381685
vt 0.58008784 0.6885598
vt 0.40530413 0.54913867
vt 0.64125615 0.67153686
vt 0.45386416 0.57930416
vt 0.4332728 0.56311274
vt 0.4912022 0.5963499
vt 0.41354072 0.5495332
vt 0.5811374 0.65084666
vt 0.81640875 0.80380434
vt 0.4442631 0.5641024
vt 0.8735326 0.8655021
vt 0.89494735 0.9408814
vt 0.9394651 0.8337344
vt 0.41245866 0.5393272
vt 0.7931956 0.70428884
vt 0.42006353 0.54383767
vt 0.53828305 0.6158132
vt 0.8949812 0.7789016
vt 0.48126686 0.5749404
vt 0.43968987 0.55147696
vt 0.8513209 0.7292222
vt 0.9395332 0.7872514
vt 0.9705444 0.79732686
vt 0.45623904 0.5612362
vt 0.58969456 0.6064357
vt 0.42884246 0.54443026
vt 0.7752726 0.6158651
vt 0.52717793 0.5949894
vt 0.9671146 0.77062064
vt 0.6942781 0.6329933
vt 0.91024226 0.7105608
vt 0.9459946 0.74112177
vt 0.5148049 0.5769711
vt 0.89786273 0.6344135
vt 0.969373 0.72424966
vt 0.4506418 0.5496889
vt 0.4985919 0.5597818
vt 0.6406761 0.59011793
vt 0.85028493 0.6371474
vt 0.47651696 0.56043494
vt 0.5475794 0.57118547
vt 0.93576115 0.6811468
vt 0.4653331 0.54604644
vt 0.4448598 0.5388345
vt 0.7063129 0.5793776
vt 0.43152517 0.5347179
vt 0.4245146 0.52916855
vt 0.8320335 0.55722636
vt 0.5185281 0.5490138
vt 0.59011984 0.5565964
vt 0.4846411 0.54110837
vt 0.79074347 0.50030833
vt 0.6626234 0.53640836
vt 0.46225083 0.5332071
vt 0.5543825 0.5487814
vt 0.73435736 0.534211
vt 0.4176339 0.5194854
vt 0.61613786 0.54219925
vt 0.8484575 0.48060715
vt 0.544073 0.5335676
vt 0.50958633 0.5341979
vt 0.6864184 0.50064313
vt 0.43986586 0.52662665
vt 0.45113933 0.52391905
vt 0.5909104 0.52593404
vt 0.42543113 0.5203625
vt 0.43481687 0.5197747
vt 0.47381884 0.51985157
vt 0.62628114 0.511108
vt 0.7280816 0.45782077
vt 0.5158387 0.5206595
vt 0.48828918 0.5108345
vt 0.5483317 0.5122555
vt 0.6430289 0.48263717
vt 0.7687361 0.36976624
vt 0.5761295 0.49458468
vt 0.68545073 0.43526268
vt 0.42234266 0.5118252
vt 0.51517093 0.502324
vt 0.44536057 0.5150509
vt 0.4340714 0.51088136
vt 0.60505617 0.47009325
vt 0.45458385 0.50742686
vt 0.53235584 0.48257732
vt 0.46895206 0.4987709
vt 0.440922 0.50556093
vt 0.48794493 0.48851055
vt 0.31938857 0.54987663
vt 0.30923897 0.5506004
vt 0.31726053 0.540529
vt 0.30505913 0.5359238
vt 0.2997185 0.54863876
vt 0.29299918 0.5373604
vt 0.31294003 0.5317694
vt 0.27774924 0.55173486
vt 0.2531688 0.55040014
vt 0.2637867 0.5382606
vt 0.279037 0.53352726
vt 0.23049279 0.5610289
vt 0.19735834 0.5836739
vt 0.20002821 0.537935
vt 0.32395765 0.53349864
vt 0.23810162 0.53671956
vt 0.14991814 0.5544682
vt 0.11383412 0.61170954
vt 0.28406233 0.5190014
vt 0.2993445 0.52078867
vt 0.3089571 0.51941365
vt 0.32171515 0.5241625
vt 0.24523222 0.51609635
vt 0.31983 0.515282
vt 0.12408416 0.5021124
vt 0.03548082 0.55799085
vt 0.3037945 0.5035556
vt 0.33251372 0.51092386
vt 0.2934354 0.5070976
vt 0.27127886 0.49932957
vt 0.22649851 0.49367964
vt 0.32038513 0.5018635
vt 0.031040305 0.4768843
vt 0.19231936 0.46776503
vt 0.25553444 0.483635
vt 0.28915754 0.4902088
vt 0.2372398 0.47314453
vt 0.06988118 0.4291873
vt 0.1334823 0.4272681
vt 0.28135985 0.47352707
vt 0.0010217984 0.38812542
vt 0.30674377 0.47079134
vt 0.31481618 0.48935914
vt 0.21910606 0.43776
vt 0.24968678 0.4434619
vt 0.33385074 0.49395764
vt 0.1849932 0.42731005
vt 0.27291453 0.45838785
vt 0.3383364 0.5021578
vt 0.08448203 0.33913052
vt 0.32771984 0.4867679
vt 0.17572996 0.39015985
vt 0.044039283 0.252176
vt 0.32418415 0.47464883
vt 0.1564655 0.3219278
vt 0.2962672 0.45051175
vt 0.22690602 0.38782954
vt 0.26272312 0.41995376
vt 0.12700099 0.2703414
vt 0.27999315 0.43482172
vt 0.34216496 0.48066187
vt 0.22085644 0.3238973
vt 0.13020307 0.18830979
vt 0.33290026 0.47312558
vt 0.31834924 0.44611275
vt 0.29391325 0.41780245
vt 0.26993948 0.37398577
vt 0.20254485 0.26802796
vt 0.22182827 0.22534919
vt 0.33208996 0.46068823
vt 0.2438815 0.28618008
vt 0.2673064 0.323587
vt 0.223751 0.12295461
vt 0.3412203 0.464872
vt 0.16511263 0.100079894
vt 0.34839565 0.468796
vt 0.33716607 0.44113463
vt 0.2972521 0.36104518
vt 0.3150103 0.4070022
vt 0.29542616 0.28504598
vt 0.30523604 0.13391101
vt 0.28540623 0.23476857
vt 0.34627298 0.45257914
vt 0.35286245 0.45952183
vt 0.33206975 0.41671407
vt 0.32340327 0.37537825
vt 0.32041395 0.33457035
vt 0.35847077 0.46737862
vt 0.35503593 0.23681438
vt 0.35179615 0.2920375
vt 0.35263535 0.4409889
vt 0.35697734 0.45274305
vt 0.33837235 0.3643322
vt 0.34319815 0.33411616
vt 0.3696664 0.4619099
vt 0.3638048 0.4563082
vt 0.34364575 0.3974018
vt 0.34882683 0.4214959
vt 0.3614844 0.36910695
vt 0.36333144 0.44337523
vt 0.3645165 0.42799878
vt 0.35819596 0.41033602
vt 0.37161645 0.4509815
vt 0.7687361 0.36976624
vt 0.7280816 0.45782077
vt 0.68545073 0.43526268
vt 0.67115563 0.36894822
vt 0.6430289 0.48263717
vt 0.63665074 0.4379574
vt 0.7552118 0.24351078
vt 0.60505617 0.47009325
vt 0.42424378 0.49776292
vt 0.4340714 0.51088136
vt 0.42234266 0.5118252
vt 0.5565762 0.4633113
vt 0.5761295 0.49458468
vt 0.53235584 0.48257732
vt 0.677484 0.2558937
vt 0.6733903 0.12914479
vt 0.41549945 0.5001352
vt 0.50484747 0.47654027
vt 0.51517093 0.502324
vt 0.48794493 0.48851055
vt 0.592292 0.43211126
vt 0.41295093 0.046481967
vt 0.39483613 0.17956859
vt 0.30523604 0.13391101
vt 0.440922 0.50556093
vt 0.43264392 0.4968053
vt 0.45458385 0.50742686
vt 0.44679222 0.4971177
vt 0.612815 0.37230825
vt 0.5346966 0.064052284
vt 0.5582959 0.17814767
vt 0.46895206 0.4987709
vt 0.46068358 0.17325366
vt 0.519252 0.44802833
vt 0.55029255 0.42761183
vt 0.5911897 0.310206
vt 0.35503593 0.23681438
vt 0.5612869 0.3790164
vt 0.45922834 0.47438067
vt 0.4372087 0.49162537
vt 0.476184 0.46236193
vt 0.43421736 0.23018175
vt 0.5212366 0.39191872
vt 0.48720148 0.23612428
vt 0.5467648 0.29339302
vt 0.40723604 0.48894703
vt 0.41659188 0.483539
vt 0.5122262 0.42400873
vt 0.35179615 0.2920375
vt 0.40413722 0.2722627
vt 0.48168063 0.4417132
vt 0.34319815 0.33411616
vt 0.3744229 0.3304981
vt 0.53215045 0.33681577
vt 0.44358787 0.48053366
vt 0.50050366 0.285962
vt 0.42887077 0.48787957
vt 0.3614844 0.36910695
vt 0.43929383 0.29961777
vt 0.40115896 0.4724902
vt 0.3980226 0.48558092
vt 0.39386073 0.47768712
vt 0.48980114 0.41763198
vt 0.4007916 0.33423978
vt 0.46802115 0.33070397
vt 0.42872944 0.48009408
vt 0.38762838 0.38761407
vt 0.4779699 0.3967319
vt 0.38721335 0.47411895
vt 0.390901 0.4678707
vt 0.44964075 0.4489938
vt 0.47302806 0.37117308
vt 0.38245186 0.4681139
vt 0.35819596 0.41033602
vt 0.37629855 0.40577376
vt 0.40284845 0.37356472
vt 0.37225965 0.4373479
vt 0.36333144 0.44337523
vt 0.3645165 0.42799878
vt 0.42701086 0.35807335
vt 0.37161645 0.4509815
vt 0.38315427 0.459579
vt 0.4095978 0.46938336
vt 0.46421573 0.4206891
vt 0.43323624 0.4654863
vt 0.3696664 0.4619099
vt 0.4188575 0.47084904
vt 0.3828357 0.44880998
vt 0.39415497 0.46131897
vt 0.38366392 0.44025457
vt 0.44750658 0.4309131
vt 0.45081437 0.40789646
vt 0.43895936 0.3890804
vt 0.41704935 0.392133
vt 0.4030318 0.4626553
vt 0.38046125 0.4295463
vt 0.3935422 0.41122544
vt 0.3906736 0.45334834
vt 0.42852366 0.4138683
vt 0.39107448 0.428079
vt 0.41669613 0.4596337
vt 0.42316782 0.44956613
vt 0.42687464 0.43760931
vt 0.4117744 0.416507
vt 0.4014092 0.45180202
vt 0.39602366 0.44247836
vt 0.40136263 0.42837948
vt 0.41185805 0.45079595
vt 0.40967274 0.43793643
vn -0.5443464 -0.05657847 -0.83695036
vn -0.60894006 0.15873435 -0.7771714
vn -0.50839937 0.18994626 -0.83991104
vn -0.58626276 0.36127937 -0.7251022
vn -0.42077157 0.36956102 -0.8284781
vn -0.39443895 -0.29261923 -0.8710866
vn -0.62676364 -0.22107074 -0.7471915
vn -0.59972566 -0.40619528 -0.6894451
vn -0.40137592 -0.49167866 -0.7727545
vn -0.5057552 -0.6246947 -0.5949523
vn -0.3416513 0.49919033 -0.79629356
vn -0.43686113 -0.15620995 -0.88586164
vn -0.54090154 -0.015366641 -0.84094554
vn -0.34918654 -0.8356914 -0.42389703
vn -0.17450415 -0.72245806 -0.66903114
vn -0.20382223 -0.32308432 -0.9241607
vn -0.6014233 0.32368064 -0.73042506
vn -0.11120681 -0.52168137 -0.84586143
vn -0.07827585 -0.8921969 -0.44481185
vn 0.05608182 -0.7176158 -0.6941775
vn -0.10363442 -0.39396793 -0.9132629
vn 0.083032496 -0.84238017 -0.5324484
vn -0.25455248 -0.328975 -0.9093836
vn -0.5662291 -0.042106934 -0.8231717
vn 0.104163565 -0.481673 -0.8701385
vn 0.08201493 -0.58592105 -0.8062072
vn -0.19138455 -0.2893692 -0.9378899
vn -0.6371602 0.22678044 -0.7366122
vn 0.087297186 -0.39875263 -0.91289407
vn -0.0063552847 -0.42399064 -0.9056443
vn -0.08509753 -0.18375522 -0.9792816
vn 0.10063346 -0.63857925 -0.76294786
vn -0.25989506 0.33259755 -0.9065503
vn 0.11173346 -0.3615791 -0.92562205
vn 0.101134196 -0.43663606 -0.89393556
vn 0.48054194 0.1113101 -0.869879
vn 0.102648355 -0.8016762 -0.58887905
vn 0.55372053 0.78709775 -0.27179164
vn 0.17700702 -0.40623796 -0.8964593
vn 0.71872926 -0.042406287 -0.69399565
vn 0.87332815 0.293206 -0.38900924
vn 0.60990953 0.0050051976 -0.79245526
vn 0.11079123 -0.4254556 -0.89817196
vn 0.8905488 0.3144937 -0.32865873
vn 0.74952686 0.23256277 -0.6197774
vn 0.435778 -0.18204582 -0.88145155
vn 0.12881231 -0.507669 -0.85186833
vn 0.5573528 0.54531986 -0.62608635
vn 0.59050155 0.26196596 -0.76333594
vn 0.51842093 0.34413674 -0.7828216
vn 0.48964077 0.1468185 -0.8594744
vn 0.28593892 -0.30944926 -0.9069069
vn 0.14142165 -0.6735646 -0.7254727
vn 0.40465766 -0.19034582 -0.89443874
vn 0.43479496 0.3833209 -0.8148733
vn 0.18659592 -0.8224565 -0.53735214
vn 0.42867166 0.30160472 -0.8516309
vn 0.2333079 -0.39302865 -0.8894357
vn 0.38301128 -0.51305205 -0.76816666
vn 0.48754075 0.0118226865 -0.8730202
vn 0.28012583 -0.6966799 -0.6604292
vn 0.46613258 -0.28335392 -0.8381116
vn 0.51000524 -0.16422251 -0.8443492
vn 0.4299152 0.31754032 -0.845187
vn 0.43845645 -0.6794703 -0.5882823
vn 0.5470985 0.1846731 -0.8164429
vn 0.6531686 -0.030747263 -0.756588
vn 0.62876546 -0.43125445 -0.6470499
vn 0.6892612 -0.21550585 -0.6917198
vn 0.6071285 -0.6256174 -0.48989585
vn -0.9833865 -0.16345485 -0.07895269
vn -0.97326684 -0.14080423 0.18145469
vn -0.999889 0.0024491702 -0.01469418
vn -0.98201144 0.02313394 0.18739906
vn -0.9886671 0.029737314 -0.14715014
vn -0.9792885 0.17519835 -0.101486504
vn -0.98071206 0.17567404 0.085688055
vn -0.9363868 0.1599656 0.31239516
vn -0.95775324 0.28722957 0.014420104
vn -0.93397677 -0.039858513 0.3551037
vn -0.9343947 -0.34249845 0.09798631
vn -0.91943955 0.23325172 0.31658253
vn -0.9746704 -0.12592651 -0.18482442
vn -0.9145369 -0.29106346 0.28089908
vn -0.9578762 0.23203723 -0.16920964
vn -0.93196326 -0.2901093 -0.21744221
vn -0.97948205 0.018364133 -0.20069289
vn -0.88584197 -0.21765466 0.40976885
vn -0.9369939 -0.3396234 -0.08184382
vn -0.851977 0.119104184 0.50985235
vn -0.931375 0.34701744 -0.110088594
vn -0.94964457 -0.18961667 -0.24944071
vn -0.93360597 0.32165685 0.15785025
vn -0.82041264 -0.57003784 0.044497002
vn -0.83148813 -0.44507322 0.33247155
vn -0.8532506 0.5136915 0.08991351
vn -0.838046 -0.083002545 0.539249
vn -0.9579837 0.16307499 -0.23595303
vn -0.96369 -0.035595115 -0.26464054
vn -0.7832303 0.13428253 0.6070573
vn -0.8332832 -0.5331048 -0.14641863
vn -0.8312396 0.26694193 0.4876297
vn -0.8385616 0.4004163 0.36943364
vn -0.92374057 -0.24867178 -0.2913171
vn -0.86714154 0.4611724 -0.18811058
vn -0.9422592 0.17608553 -0.28485337
vn -0.9111145 0.33168393 -0.24465515
vn -0.7990786 -0.5509851 -0.24060097
vn -0.85163844 -0.44161472 -0.28229135
vn -0.7720963 -0.24788584 0.58516663
vn -0.8403422 0.53324133 -0.09735852
vn -0.9521849 -0.052621957 -0.30095655
vn -0.6927616 -0.7112241 -0.11933823
vn -0.7482911 0.6433253 -0.16184245
vn -0.71249217 -0.3674433 0.5977795
vn -0.6893128 -0.67884076 0.25302777
vn -0.9404067 -0.054052178 -0.3357286
vn -0.8997076 -0.25139877 -0.35682604
vn -0.8230354 0.5040869 -0.26174238
vn -0.6691396 -0.57352644 0.47256705
vn -0.7080725 -0.6587771 -0.25425598
vn -0.7583659 0.6166442 -0.21126068
vn -0.83746755 -0.4351671 -0.33057177
vn -0.8664659 -0.18617795 -0.4632219
vn -0.9216733 0.06332357 -0.3827642
vn -0.6497302 -0.7592995 0.036262203
vn -0.88921505 0.333151 -0.31353942
vn -0.6899029 -0.6836077 -0.23814802
vn -0.83657527 -0.36116213 -0.4119511
vn -0.76601523 -0.58346784 -0.2697887
vn -0.8081661 0.30902198 -0.50137115
vn -0.5886794 -0.7941261 -0.15106423
vn -0.7196199 -0.614858 -0.32264042
vn -0.46451378 -0.88551116 -0.009845
vn -0.81782866 -0.000117850854 -0.5754618
vn -0.79368025 -0.3107989 -0.52294904
vn -0.6799631 -0.6814962 -0.27057913
vn -0.76015013 -0.5115296 -0.40063605
vn -0.75074184 0.550031 -0.36585876
vn -0.7184675 0.22634248 -0.6577032
vn -0.7638418 -0.102121845 -0.6372729
vn -0.60894006 0.15873435 -0.7771714
vn -0.53910327 -0.8136117 -0.21772388
vn -0.56104606 -0.77479 -0.29142365
vn -0.5226354 -0.8105307 -0.26437145
vn -0.6529438 0.5087141 -0.56113666
vn -0.58359283 -0.71849585 -0.3783955
vn -0.58626276 0.36127937 -0.7251022
vn -0.7040823 -0.50737953 -0.49682403
vn -0.59972566 -0.40619528 -0.6894451
vn -0.62676364 -0.22107074 -0.7471915
vn -0.5443464 -0.05657847 -0.83695036
vn -0.5057552 -0.6246947 -0.5949523
vn -0.34918654 -0.8356914 -0.42389703
vn -0.838046 -0.083002545 0.539249
vn -0.70712584 -0.01915121 0.7068283
vn -0.851977 0.119104184 0.50985235
vn -0.7832303 0.13428253 0.6070573
vn -0.7720963 -0.24788584 0.58516663
vn -0.6571506 0.22144711 0.7204958
vn -0.8312396 0.26694193 0.4876297
vn -0.6928526 0.38099614 0.6122068
vn -0.8385616 0.4004163 0.36943364
vn -0.7165998 0.54997766 0.42896307
vn -0.5880004 -0.14075302 0.79652
vn -0.71249217 -0.3674433 0.5977795
vn -0.5754862 0.036145207 0.81701237
vn -0.5631459 -0.3297248 0.7577257
vn -0.5138463 0.3415595 0.7869556
vn -0.5279612 -0.5297663 0.66378057
vn -0.6691396 -0.57352644 0.47256705
vn -0.5574264 0.48907185 0.6708834
vn -0.49361968 0.19634205 0.84722453
vn -0.5200742 -0.7126914 0.4707375
vn -0.4375224 -0.24550995 0.8650428
vn -0.48877692 0.6714602 0.5569904
vn -0.42984676 -0.124073535 0.89433634
vn -0.40117398 -0.4392936 0.8037914
vn -0.4031656 0.10534313 0.9090436
vn -0.3811894 -0.6364817 0.67051154
vn -0.39826778 0.47299358 0.7859134
vn -0.36117503 0.27213472 0.8919054
vn -0.22059102 -0.56702214 0.79361546
vn -0.32260594 -0.065169394 0.94428724
vn -0.2692792 -0.34252957 0.9000901
vn -0.29689756 0.83326703 0.46638817
vn -0.3164573 0.66200966 0.67941004
vn -0.20384455 -0.7261034 0.6566743
vn -0.24649642 -0.23954526 0.9390727
vn -0.26350096 0.05298443 0.96320295
vn -0.27508998 0.16808757 0.9466108
vn -0.06227469 -0.7080234 0.70343775
vn -0.27314666 0.36696246 0.8892297
vn -0.15674832 -0.15967178 0.97464603
vn -0.097660676 -0.5077575 0.85594666
vn -0.06805046 -0.33621198 0.93932456
vn -0.18120742 0.25906906 0.9487081
vn -0.10590899 0.06710987 0.99210864
vn -0.22900547 0.5702014 0.78894037
vn -0.18057676 0.8207456 0.54200435
vn -0.0993174 0.70026594 0.70693964
vn -0.041398272 0.1846991 0.9819228
vn 0.020781947 -0.25245556 0.9673853
vn -0.016175484 0.5689461 0.82221574
vn -0.06272488 -0.1146729 0.99142104
vn -0.0832421 0.41080177 0.90791667
vn 0.012915699 0.8243324 0.5659587
vn 0.047370188 -0.61939985 0.7836453
vn -0.025891934 0.3313254 0.9431612
vn 0.043646984 -0.46118045 0.8862322
vn 0.08115404 0.041297633 0.9958456
vn 0.0945445 0.44260535 0.89171845
vn 0.057770845 -0.07407326 0.99557805
vn 0.09095758 0.6641482 0.74204713
vn 0.10844692 -0.34356958 0.9328447
vn 0.123833254 0.13839282 0.9826051
vn 0.16828759 -0.584317 0.7938847
vn 0.114851005 0.28956386 0.9502431
vn 0.19097923 -0.13031985 0.97290474
vn 0.110877134 -0.7637915 0.63586855
vn 0.24890375 0.17451735 0.9526755
vn 0.2054646 -0.7303152 0.6514783
vn 0.24234207 0.030262528 0.96971875
vn 0.19450682 -0.43707353 0.87814224
vn 0.26131758 0.30450523 0.9159638
vn 0.24534665 -0.24759361 0.9372846
vn 0.19957477 0.48842388 0.8494775
vn 0.29565215 -0.11482329 0.94836986
vn 0.27428535 -0.5847573 0.7634307
vn 0.15064782 0.75785094 0.6347969
vn 0.29515615 -0.37813053 0.87743956
vn 0.364591 -0.25102398 0.8966941
vn 0.32446906 0.6023034 0.7293494
vn 0.3334417 0.1442346 0.93167216
vn 0.32280552 0.003359945 0.94645935
vn 0.41362494 0.36149073 0.8356069
vn 0.41013002 -0.42020565 0.80945694
vn 0.3195405 -0.69209385 0.6472248
vn 0.39157146 -0.12508576 0.9116059
vn 0.4596216 0.71416825 0.5279315
vn 0.433782 -0.57770795 0.69143814
vn 0.36844963 0.2556334 0.89381003
vn 0.4887963 -0.20091687 0.84894675
vn 0.44767493 0.07217638 0.8912787
vn 0.5693552 0.45587012 0.68411773
vn 0.49897638 0.2385487 0.8331369
vn 0.5285721 -0.32653683 0.78357214
vn 0.5345289 -0.0031659885 0.8451443
vn 0.61343306 -0.42629847 0.66480786
vn 0.62621844 0.14510696 0.7660251
vn 0.67450505 0.30038625 0.6743968
vn 0.6851816 0.040200114 0.7272621
vn 0.6330944 -0.087890305 0.7690688
vn 0.67388576 -0.20417245 0.7100645
vn 0.78694326 -0.26375356 0.5578121
vn -0.8532506 0.5136915 0.08991351
vn -0.8385616 0.4004163 0.36943364
vn -0.7165998 0.54997766 0.42896307
vn -0.6705806 0.69367933 0.26292703
vn -0.7095048 0.70422304 -0.025940202
vn -0.8403422 0.53324133 -0.09735852
vn -0.7482911 0.6433253 -0.16184245
vn -0.7583659 0.6166442 -0.21126068
vn -0.6141267 0.76061094 -0.21052165
vn -0.52580386 0.8457245 0.090996526
vn -0.48877692 0.6714602 0.5569904
vn -0.6816949 0.6903397 -0.24232854
vn -0.8230354 0.5040869 -0.26174238
vn -0.6388903 0.725934 -0.25463483
vn -0.5831042 0.7944425 -0.16985486
vn -0.6020257 0.7430472 -0.29231134
vn -0.42775354 0.85124844 0.3039786
vn -0.75074184 0.550031 -0.36585876
vn -0.45835355 0.8842376 -0.08964347
vn -0.47025535 0.8511896 -0.23310122
vn -0.49114496 0.73299706 -0.4706293
vn -0.28847277 0.9382684 -0.1908817
vn -0.3888097 0.8843791 -0.25826466
vn -0.6529438 0.5087141 -0.56113666
vn -0.3705288 0.89956105 -0.23129697
vn -0.37330768 0.8958546 -0.24101022
vn -0.42055446 0.55667365 -0.71641356
vn -0.58626276 0.36127937 -0.7251022
vn -0.28940195 0.9570015 0.01986516
vn -0.42077157 0.36956102 -0.8284781
vn -0.29689756 0.83326703 0.46638817
vn -0.32953575 0.87360483 -0.35807922
vn -0.2349179 0.94298303 -0.23578922
vn -0.20787099 0.95829767 0.19610009
vn -0.17131212 0.9583257 -0.2286134
vn -0.13486707 0.9808939 -0.14020717
vn -0.2683738 0.7221493 -0.63755465
vn -0.24831404 0.5273024 -0.81258374
vn -0.068750165 0.9976304 -0.0026456348
vn -0.102388546 0.9566547 -0.27263227
vn -0.04854354 0.91742116 -0.39494544
vn -0.3416513 0.49919033 -0.79629356
vn -0.18073285 0.92409235 0.33673277
vn 0.11155186 0.9638832 -0.24183746
vn -0.08868177 0.57266074 -0.8149817
vn -0.046608143 0.99552613 0.08219133
vn 0.07256734 0.98773235 -0.13827057
vn -0.08251824 0.78055453 -0.61961716
vn 0.16908397 0.949934 -0.26274693
vn 0.112501755 0.96937716 -0.21829164
vn -0.45910195 0.7124774 -0.5306613
vn -0.6014233 0.32368064 -0.73042506
vn -0.1609949 0.7441614 -0.6483089
vn 0.124882914 0.9595049 -0.25249675
vn -0.18057676 0.8207456 0.54200435
vn -0.052483093 0.9050552 -0.42204338
vn 0.20222247 0.95046806 -0.23604342
vn 0.040846538 0.9973061 -0.06092646
vn 0.2545655 0.93832034 -0.23399006
vn -0.08832412 0.93341184 0.347766
vn 0.054698296 0.9752372 -0.21429086
vn -0.12556809 0.9587708 -0.25493363
vn 0.098610975 0.9760735 -0.19379486
vn -0.68859553 0.620613 -0.3750676
vn -0.5662291 -0.042106934 -0.8231717
vn -0.6371602 0.22678044 -0.7366122
vn 0.012915699 0.8243324 0.5659587
vn -0.023519386 0.74704325 -0.6643593
vn -0.05628898 0.9650115 0.2560945
vn 0.17036662 0.9639623 -0.20433277
vn -0.26219276 0.93870723 0.22379391
vn -0.06073297 0.95823306 -0.2794654
vn -0.085434414 0.9904699 -0.10802984
vn 0.18242298 0.97657466 -0.11412187
vn -0.12676045 0.94150007 0.3122649
vn -0.25989506 0.33259755 -0.9065503
vn -0.11443676 0.9588116 -0.25997028
vn -0.2494987 0.95178866 -0.17846228
vn -0.096377395 0.99519235 0.017423768
vn 0.064936034 0.55643266 -0.8283514
vn -0.13046788 0.9743628 -0.18329012
vn 0.55372053 0.78709775 -0.27179164
vn -0.03435805 0.6769032 -0.7352698
vn 0.3895346 0.87293494 0.293679
vn 0.62330514 0.74179536 0.24744768
vn -0.46148124 0.8603066 -0.21658155
vn 0.5573528 0.54531986 -0.62608635
vn 0.87332815 0.293206 -0.38900924
vn -0.255891 0.951409 -0.17129123
vn -0.43241614 0.8709685 -0.2333027
vn -0.11865998 0.8840759 -0.45202836
vn 0.10463206 0.7991052 -0.592016
vn -0.37100255 0.8950618 -0.24742974
vn -0.4438416 0.8807591 -0.16513026
vn 0.8905488 0.3144937 -0.32865873
vn -0.26550075 0.94460106 -0.19297186
vn -0.13194759 0.98858726 -0.07269842
vn 0.06738166 0.6427118 -0.76313907
vn -0.04047349 0.9885444 0.14540242
vn 0.050769206 0.91293985 0.40492386
vn 0.36458042 0.6485799 -0.6681506
vn -0.33748648 0.91888064 -0.2043557
vn -0.20677756 0.94047326 -0.26972792
vn -0.16015127 0.96668535 -0.19967735
vn 0.275304 0.40335682 -0.872646
vn 0.13826232 0.75019026 -0.646605
vn -0.02292765 0.9880035 -0.15272003
vn -0.25934383 0.93957305 -0.22347996
vn 0.19125472 0.3973098 -0.8975336
vn 0.15064782 0.75785094 0.6347969
vn 0.05067058 0.8827763 -0.46705297
vn 0.43479496 0.3833209 -0.8148733
vn 0.11007314 0.9635105 -0.24399053
vn 0.11348146 0.97257626 -0.20302051
vn 0.31116602 0.55403847 -0.77215093
vn 0.037941273 0.998101 0.04852647
vn 0.16914533 0.9817414 -0.087026656
vn 0.25353938 0.9156779 -0.31185207
vn 0.26960343 0.86101985 0.43122944
vn 0.20524634 0.9561347 0.20899859
vn 0.25838313 0.94806653 -0.18549386
vn 0.3958983 0.7987678 -0.4530281
vn 0.3118111 0.34977663 -0.8834196
vn 0.3121559 0.92657644 -0.20979698
vn 0.42412773 0.8810587 -0.20940696
vn 0.4247421 0.8728158 -0.24038875
vn 0.48372936 0.6369163 -0.6002862
vn 0.4299152 0.31754032 -0.845187
vn 0.5398538 0.7892778 -0.29257205
vn 0.5337209 0.41941786 -0.73432326
vn 0.4596216 0.71416825 0.5279315
vn 0.5331501 0.81658024 -0.22124144
vn 0.35449117 0.93421555 0.03971513
vn 0.473015 0.8173569 0.32891414
vn 0.63174605 0.68368906 -0.36533028
vn 0.45214248 0.8816756 -0.13496415
vn 0.6365973 0.7357956 -0.23097348
vn 0.6080969 0.7705569 -0.19094561
vn 0.5696326 0.81794226 0.080555335
vn 0.6602948 0.72143537 -0.20866668
vn -0.6691396 -0.57352644 0.47256705
vn -0.6893128 -0.67884076 0.25302777
vn -0.5200742 -0.7126914 0.4707375
vn -0.44589552 -0.8558819 0.26199877
vn -0.6497302 -0.7592995 0.036262203
vn -0.46451378 -0.88551116 -0.009845
vn -0.3239844 -0.8152892 0.47993502
vn -0.5886794 -0.7941261 -0.15106423
vn -0.53910327 -0.8136117 -0.21772388
vn -0.3599366 -0.91869813 -0.16260207
vn -0.41642496 -0.9039197 -0.09756744
vn -0.5226354 -0.8105307 -0.26437145
vn -0.56104606 -0.77479 -0.29142365
vn -0.31337243 -0.9163335 -0.2492602
vn -0.3811894 -0.6364817 0.67051154
vn -0.36829567 -0.9008064 -0.2300133
vn -0.4109971 -0.861315 -0.29869348
vn -0.58359283 -0.71849585 -0.3783955
vn -0.2418157 -0.96684915 -0.0820239
vn -0.24577795 -0.95717067 0.15302797
vn -0.14837912 -0.9168646 0.3705981
vn -0.20384455 -0.7261034 0.6566743
vn -0.21207424 -0.9593209 -0.18635434
vn -0.10561249 -0.83180755 0.544924
vn -0.12663677 -0.9567753 -0.26180932
vn -0.34918654 -0.8356914 -0.42389703
vn 0.038588334 -0.97418904 0.2224111
vn -0.06227469 -0.7080234 0.70343775
vn -0.06301372 -0.99742556 0.034227066
vn -0.0310556 -0.9903352 -0.13517268
vn -0.09016391 -0.972158 -0.21628502
vn 0.01767845 -0.8827585 0.4694943
vn -0.07827585 -0.8921969 -0.44481185
vn 0.08758064 -0.9712436 -0.22139432
vn 0.14842159 -0.9741715 -0.17017902
vn 0.11236775 -0.9936553 -0.0047473004
vn 0.16226158 -0.96899366 -0.18633953
vn 0.09360264 -0.94349056 -0.3179058
vn 0.13239199 -0.9603036 -0.24553889
vn 0.14188041 -0.9810753 -0.13176188
vn 0.083032496 -0.84238017 -0.5324484
vn 0.12449303 -0.9905821 0.056996617
vn 0.09895339 -0.9617794 0.25532046
vn 0.15008457 -0.9694358 -0.19408457
vn 0.101731054 -0.9786305 -0.1786987
vn 0.110877134 -0.7637915 0.63586855
vn 0.20567499 -0.9583411 -0.19819193
vn 0.11423988 -0.9753366 -0.1888592
vn 0.047370188 -0.61939985 0.7836453
vn 0.12077466 -0.93293846 -0.3391744
vn 0.12719004 -0.8787264 0.460068
vn 0.096446134 -0.9675835 -0.23341022
vn 0.102648355 -0.8016762 -0.58887905
vn 0.12912619 -0.9705427 0.203404
vn 0.018041048 -0.96519226 -0.26091853
vn 0.096618794 -0.989591 -0.106651336
vn 0.026213083 -0.97780305 -0.20788005
vn 0.041929577 -0.98123014 -0.18822688
vn 0.087419786 -0.90201944 -0.42275137
vn 0.037156463 -0.9864706 -0.15967223
vn 0.2054646 -0.7303152 0.6514783
vn 0.08610703 -0.9691559 -0.2309164
vn 0.18659592 -0.8224565 -0.53735214
vn 0.17892632 -0.8696968 0.46001402
vn 0.1845843 -0.9828142 -0.0022173321
vn 0.14976816 -0.9783119 -0.14309216
vn 0.12040723 -0.9746111 -0.18877317
vn 0.14128202 -0.9212074 -0.36251378
vn 0.3618395 -0.82558703 -0.43298754
vn 0.23249957 -0.94743603 0.21979289
vn 0.29672682 -0.9064607 -0.30046993
vn 0.30566564 -0.9227614 -0.23469128
vn 0.43845645 -0.6794703 -0.5882823
vn 0.29230788 -0.82452863 0.48446736
vn 0.28012583 -0.6966799 -0.6604292
vn 0.3195405 -0.69209385 0.6472248
vn 0.39611453 -0.91407347 0.08696562
vn 0.29908916 -0.9344372 -0.19332023
vn 0.26703274 -0.95458436 -0.13214462
vn 0.5140882 -0.8042643 -0.29811448
vn 0.6071285 -0.6256174 -0.48989585
vn 0.5854929 -0.7212092 -0.37020975
vn 0.42563447 -0.8467313 0.31918868
vn 0.4454431 -0.7139688 0.5402119
vn 0.41629434 -0.9056461 -0.08064849
vn 0.49053025 -0.85277444 -0.17932054
vn 0.55214065 -0.7923969 -0.25932187
vn 0.433782 -0.57770795 0.69143814
vn 0.7480415 -0.55686647 -0.3610175
vn 0.7482627 -0.5946279 -0.29414392
vn 0.62871623 -0.7613214 0.1584473
vn 0.5899115 -0.706886 0.39027756
vn 0.7057171 -0.68010145 -0.19855823
vn 0.771886 -0.5892141 -0.23878598
vn 0.61343306 -0.42629847 0.66480786
vn 0.6134033 -0.58468896 0.5309192
vn 0.6829143 -0.7127225 -0.16017091
vn 0.6448944 -0.7642384 -0.007130711
vn 0.83115333 -0.5203742 -0.19594608
vn 0.7453584 -0.6154019 0.25636172
vn 0.8182309 -0.57487935 0.0034371668
vn 0.8109474 -0.5707168 -0.12902187
vn 0.80794835 -0.42779285 0.40523177
vn 0.4299152 0.31754032 -0.845187
vn 0.3118111 0.34977663 -0.8834196
vn 0.5337209 0.41941786 -0.73432326
vn 0.6830195 0.28829443 -0.6710966
vn 0.48372936 0.6369163 -0.6002862
vn 0.705652 0.47943562 -0.52172476
vn 0.5470985 0.1846731 -0.8164429
vn 0.63174605 0.68368906 -0.36533028
vn 0.6295171 0.6174599 0.47164768
vn 0.473015 0.8173569 0.32891414
vn 0.4596216 0.71416825 0.5279315
vn 0.713775 0.64905953 -0.26314822
vn 0.5398538 0.7892778 -0.29257205
vn 0.6365973 0.7357956 -0.23097348
vn 0.7437217 0.11386511 -0.6587205
vn 0.6531686 -0.030747263 -0.756588
vn 0.5693552 0.45587012 0.68411773
vn 0.72377837 0.65275663 -0.22372667
vn 0.5331501 0.81658024 -0.22124144
vn 0.6602948 0.72143537 -0.20866668
vn 0.7909504 0.49998978 -0.3527147
vn 0.62876546 -0.43125445 -0.6470499
vn 0.7799943 -0.43290752 -0.45188487
vn 0.6071285 -0.6256174 -0.48989585
vn 0.5696326 0.81794226 0.080555335
vn 0.6292901 0.7218772 0.28790146
vn 0.45214248 0.8816756 -0.13496415
vn 0.6911745 0.7132648 -0.116323434
vn 0.816113 0.3435239 -0.46470514
vn 0.6892612 -0.21550585 -0.6917198
vn 0.8207908 -0.02675095 -0.5706021
vn 0.6080969 0.7705569 -0.19094561
vn 0.8150527 -0.2512849 -0.5220585
vn 0.77632415 0.58944166 -0.22333682
vn 0.83219004 0.4766195 -0.2833613
vn 0.84281045 0.1675344 -0.5114712
vn 0.7480415 -0.55686647 -0.3610175
vn 0.87725055 0.3298691 -0.34873745
vn 0.79586357 0.5820801 -0.16668524
vn 0.7600961 0.64764845 0.052965764
vn 0.80289465 0.56089693 -0.2018782
vn 0.8965133 -0.2537575 -0.36314055
vn 0.91825646 0.28448105 -0.27545536
vn 0.9065366 -0.09246529 -0.41187572
vn 0.895059 0.03430293 -0.4446265
vn 0.67450505 0.30038625 0.6743968
vn 0.7862985 0.36794174 0.49634013
vn 0.8662035 0.43032566 -0.25399095
vn 0.7482627 -0.5946279 -0.29414392
vn 0.8789857 -0.37373504 -0.2961524
vn 0.85652435 0.4701455 -0.21290669
vn 0.771886 -0.5892141 -0.23878598
vn 0.8692047 -0.4349297 -0.23520064
vn 0.93807065 0.15198074 -0.3113282
vn 0.8343299 0.54609436 -0.075329766
vn 0.94612485 -0.014777987 -0.32346463
vn 0.7802964 0.5261534 0.33808303
vn 0.83115333 -0.5203742 -0.19594608
vn 0.94816995 -0.14977202 -0.2802537
vn 0.79578084 0.1631503 0.58319366
vn 0.62621844 0.14510696 0.7660251
vn 0.6851816 0.040200114 0.7272621
vn 0.9149193 0.32776988 -0.23556215
vn 0.9323631 -0.27122492 -0.23903148
vn 0.9637289 -0.002014247 -0.26687562
vn 0.8869532 0.44010344 0.14008226
vn 0.92177325 -0.32704762 -0.2082641
vn 0.9448371 0.20990756 -0.25143927
vn 0.6330944 -0.087890305 0.7690688
vn 0.78067017 -0.046997122 0.6231736
vn 0.9149401 0.37498716 -0.14922868
vn 0.96208 0.09055232 -0.25729826
vn 0.67388576 -0.20417245 0.7100645
vn 0.8109474 -0.5707168 -0.12902187
vn 0.89173955 -0.4322589 -0.1339881
vn 0.956202 -0.19748104 -0.21605323
vn 0.8654008 -0.47455242 0.1608771
vn 0.7453584 -0.6154019 0.25636172
vn 0.8182309 -0.57487935 0.0034371668
vn 0.96581763 -0.09327661 -0.24185891
vn 0.80794835 -0.42779285 0.40523177
vn 0.78694326 -0.26375356 0.5578121
vn 0.8908419 0.22120805 0.39682204
vn 0.93329006 0.2909312 -0.21054375
vn 0.92180794 0.3850511 -0.04478575
vn 0.61343306 -0.42629847 0.66480786
vn 0.91844577 0.32317618 0.22806685
vn 0.9056228 -0.26844168 0.32830846
vn 0.88607043 -0.031947926 0.4624484
vn 0.9358077 -0.31298855 0.16217911
vn 0.96500397 0.19678184 -0.17333278
vn 0.96875817 0.13099909 -0.21058694
vn 0.9717686 0.0059540872 -0.23586081
vn 0.97034514 -0.11911542 -0.21033746
vn 0.9337898 0.10223482 0.34290618
vn 0.91067743 -0.4115419 -0.036053337
vn 0.9601352 -0.2167099 -0.17657046
vn 0.9345083 -0.1378331 0.32817104
vn 0.98195255 0.061943267 -0.17869598
vn 0.9661604 -0.25201952 -0.054956105
vn 0.96410495 0.21299429 0.1585405
vn 0.9711077 0.22983012 -0.064249076
vn 0.9769696 0.1612085 -0.13979359
vn 0.98387223 -0.056748044 -0.16963233
vn 0.97894627 0.01937249 0.20319676
vn 0.9874883 -0.118447214 0.104101375
vn 0.9910676 -0.099519975 -0.08877378
vn 0.99357814 0.09628055 0.05943564
vn 0.99753875 0.0305836 -0.063095845
usemtl material_0
f 1/1/1 2/2/2 3/3/3
f 4/4/4 5/5/5 2/2/2
f 2/2/2 5/5/5 3/3/3
f 6/6/6 7/7/7 1/1/1
f 8/8/8 7/7/7 6/6/6
f 8/8/8 9/9/9 10/10/10
f 9/9/9 8/8/8 6/6/6
f 3/3/3 5/5/5 11/11/11
f 3/3/3 12/12/12 1/1/1
f 6/6/6 1/1/1 12/12/12
f 12/12/12 3/3/3 13/13/13
f 14/14/14 10/10/10 15/15/15
f 15/15/15 10/10/10 9/9/9
f 6/6/6 12/12/12 16/16/16
f 3/3/3 11/11/11 17/17/17
f 17/17/17 13/13/13 3/3/3
f 9/9/9 6/6/6 18/18/18
f 14/14/14 15/15/15 19/19/19
f 9/9/9 18/18/18 15/15/15
f 15/15/15 18/18/18 20/20/20
f 21/21/21 18/18/18 6/6/6
f 19/19/19 15/15/15 22/22/22
f 20/20/20 22/22/22 15/15/15
f 16/16/16 21/21/21 6/6/6
f 12/12/12 13/13/13 23/23/23
f 24/24/24 13/13/13 17/17/17
f 23/23/23 16/16/16 12/12/12
f 18/18/18 21/21/21 25/25/25
f 13/13/13 24/24/24 23/23/23
f 18/18/18 26/26/26 20/20/20
f 26/26/26 18/18/18 25/25/25
f 24/24/24 27/27/27 23/23/23
f 24/24/24 28/28/28 27/27/27
f 29/29/29 21/21/21 16/16/16
f 16/16/16 23/23/23 30/30/30
f 29/29/29 25/25/25 21/21/21
f 16/16/16 30/30/30 29/29/29
f 23/23/23 27/27/27 30/30/30
f 27/27/27 28/28/28 31/31/31
f 26/26/26 32/32/32 20/20/20
f 28/28/28 33/33/33 31/31/31
f 32/32/32 26/26/26 25/25/25
f 34/34/34 27/27/27 31/31/31
f 35/35/35 29/29/29 30/30/30
f 34/34/34 30/30/30 27/27/27
f 31/31/31 33/33/33 36/36/36
f 22/22/22 20/20/20 37/37/37
f 25/25/25 29/29/29 35/35/35
f 37/37/37 20/20/20 32/32/32
f 38/38/38 36/36/36 33/33/33
f 35/35/35 30/30/30 39/39/39
f 34/34/34 31/31/31 40/40/40
f 31/31/31 36/36/36 40/40/40
f 36/36/36 38/38/38 41/41/41
f 34/34/34 40/40/40 42/42/42
f 40/40/40 36/36/36 41/41/41
f 25/25/25 35/35/35 43/43/43
f 30/30/30 34/34/34 39/39/39
f 44/44/44 40/40/40 41/41/41
f 45/45/45 42/42/42 40/40/40
f 45/45/45 40/40/40 44/44/44
f 35/35/35 39/39/39 43/43/43
f 42/42/42 46/46/46 34/34/34
f 32/32/32 25/25/25 47/47/47
f 39/39/39 34/34/34 46/46/46
f 45/45/45 44/44/44 48/48/48
f 25/25/25 43/43/43 47/47/47
f 42/42/42 45/45/45 49/49/49
f 46/46/46 42/42/42 49/49/49
f 50/50/50 45/45/45 48/48/48
f 45/45/45 50/50/50 49/49/49
f 46/46/46 49/49/49 51/51/51
f 52/52/52 43/43/43 39/39/39
f 49/49/49 50/50/50 51/51/51
f 37/37/37 32/32/32 53/53/53
f 54/54/54 39/39/39 46/46/46
f 52/52/52 39/39/39 54/54/54
f 47/47/47 53/53/53 32/32/32
f 46/46/46 51/51/51 54/54/54
f 48/48/48 55/55/55 50/50/50
f 56/56/56 37/37/37 53/53/53
f 50/50/50 57/57/57 51/51/51
f 50/50/50 55/55/55 57/57/57
f 58/58/58 47/47/47 43/43/43
f 53/53/53 47/47/47 59/59/59
f 60/60/60 54/54/54 51/51/51
f 43/43/43 52/52/52 58/58/58
f 56/56/56 53/53/53 61/61/61
f 60/60/60 51/51/51 57/57/57
f 58/58/58 52/52/52 62/62/62
f 62/62/62 52/52/52 54/54/54
f 59/59/59 47/47/47 58/58/58
f 59/59/59 61/61/61 53/53/53
f 62/62/62 54/54/54 63/63/63
f 62/62/62 59/59/59 58/58/58
f 64/64/64 57/57/57 55/55/55
f 60/60/60 63/63/63 54/54/54
f 65/65/65 61/61/61 59/59/59
f 57/57/57 64/64/64 66/66/66
f 57/57/57 66/66/66 60/60/60
f 60/60/60 67/67/67 63/63/63
f 62/62/62 68/68/68 59/59/59
f 60/60/60 66/66/66 67/67/67
f 59/59/59 68/68/68 65/65/65
f 68/68/68 62/62/62 69/69/69
f 62/62/62 63/63/63 69/69/69
f 65/65/65 68/68/68 70/70/70
f 63/63/63 67/67/67 69/69/69
f 71/71/71 72/72/72 73/73/73
f 74/74/74 73/73/73 72/72/72
f 75/75/75 71/71/71 73/73/73
f 73/73/73 76/76/76 75/75/75
f 74/74/74 77/77/77 73/73/73
f 73/73/73 77/77/77 76/76/76
f 78/78/78 77/77/77 74/74/74
f 77/77/77 79/79/79 76/76/76
f 80/80/80 74/74/74 72/72/72
f 71/71/71 81/81/81 72/72/72
f 78/78/78 74/74/74 80/80/80
f 77/77/77 82/82/82 79/79/79
f 83/83/83 71/71/71 75/75/75
f 77/77/77 78/78/78 82/82/82
f 72/72/72 81/81/81 84/84/84
f 75/75/75 76/76/76 85/85/85
f 86/86/86 71/71/71 83/83/83
f 83/83/83 75/75/75 87/87/87
f 80/80/80 72/72/72 88/88/88
f 86/86/86 89/89/89 71/71/71
f 85/85/85 87/87/87 75/75/75
f 81/81/81 71/71/71 89/89/89
f 80/80/80 90/90/90 78/78/78
f 91/91/91 76/76/76 79/79/79
f 84/84/84 88/88/88 72/72/72
f 83/83/83 92/92/92 86/86/86
f 92/92/92 83/83/83 87/87/87
f 79/79/79 82/82/82 93/93/93
f 94/94/94 81/81/81 89/89/89
f 81/81/81 95/95/95 84/84/84
f 79/79/79 96/96/96 91/91/91
f 88/88/88 97/97/97 80/80/80
f 96/96/96 79/79/79 93/93/93
f 78/78/78 90/90/90 82/82/82
f 95/95/95 88/88/88 84/84/84
f 76/76/76 91/91/91 85/85/85
f 97/97/97 90/90/90 80/80/80
f 85/85/85 98/98/98 87/87/87
f 92/92/92 87/87/87 99/99/99
f 87/87/87 98/98/98 99/99/99
f 90/90/90 100/100/100 82/82/82
f 94/94/94 89/89/89 101/101/101
f 101/101/101 89/89/89 86/86/86
f 82/82/82 100/100/100 102/102/102
f 93/93/93 103/103/103 96/96/96
f 103/103/103 93/93/93 82/82/82
f 92/92/92 99/99/99 104/104/104
f 105/105/105 85/85/85 91/91/91
f 99/99/99 98/98/98 106/106/106
f 85/85/85 107/107/107 98/98/98
f 101/101/101 86/86/86 108/108/108
f 86/86/86 92/92/92 109/109/109
f 110/110/110 88/88/88 95/95/95
f 111/111/111 91/91/91 96/96/96
f 85/85/85 105/105/105 107/107/107
f 112/112/112 104/104/104 99/99/99
f 81/81/81 94/94/94 95/95/95
f 88/88/88 110/110/110 97/97/97
f 103/103/103 82/82/82 102/102/102
f 108/108/108 86/86/86 109/109/109
f 111/111/111 105/105/105 91/91/91
f 106/106/106 112/112/112 99/99/99
f 98/98/98 107/107/107 106/106/106
f 94/94/94 101/101/101 113/113/113
f 109/109/109 92/92/92 104/104/104
f 114/114/114 105/105/105 111/111/111
f 95/95/95 115/115/115 110/110/110
f 94/94/94 116/116/116 95/95/95
f 106/106/106 117/117/117 112/112/112
f 113/113/113 101/101/101 108/108/108
f 112/112/112 118/118/118 104/104/104
f 107/107/107 119/119/119 106/106/106
f 118/118/118 112/112/112 117/117/117
f 115/115/115 95/95/95 120/120/120
f 108/108/108 121/121/121 113/113/113
f 108/108/108 109/109/109 121/121/121
f 105/105/105 119/119/119 107/107/107
f 120/120/120 95/95/95 116/116/116
f 122/122/122 119/119/119 105/105/105
f 123/123/123 104/104/104 118/118/118
f 118/118/118 117/117/117 124/124/124
f 106/106/106 125/125/125 117/117/117
f 116/116/116 94/94/94 126/126/126
f 113/113/113 126/126/126 94/94/94
f 109/109/109 104/104/104 123/123/123
f 125/125/125 106/106/106 127/127/127
f 121/121/121 109/109/109 128/128/128
f 118/118/118 124/124/124 129/129/129
f 128/128/128 109/109/109 130/130/130
f 106/106/106 119/119/119 127/127/127
f 125/125/125 124/124/124 117/117/117
f 130/130/130 109/109/109 123/123/123
f 114/114/114 122/122/122 105/105/105
f 127/127/127 131/131/131 125/125/125
f 132/132/132 113/113/113 121/121/121
f 118/118/118 129/129/129 123/123/123
f 133/133/133 130/130/130 123/123/123
f 134/134/134 126/126/126 113/113/113
f 125/125/125 131/131/131 135/135/135
f 134/134/134 113/113/113 132/132/132
f 136/136/136 129/129/129 124/124/124
f 124/124/124 125/125/125 135/135/135
f 128/128/128 130/130/130 137/137/137
f 133/133/133 137/137/137 130/130/130
f 138/138/138 123/123/123 129/129/129
f 132/132/132 121/121/121 128/128/128
f 139/139/139 127/127/127 119/119/119
f 135/135/135 131/131/131 140/140/140
f 138/138/138 133/133/133 123/123/123
f 131/131/131 127/127/127 139/139/139
f 124/124/124 135/135/135 141/141/141
f 142/142/142 141/141/141 135/135/135
f 132/132/132 128/128/128 143/143/143
f 136/136/136 124/124/124 141/141/141
f 137/137/137 133/133/133 144/144/144
f 140/140/140 142/142/142 135/135/135
f 137/137/137 145/145/145 128/128/128
f 146/146/146 131/131/131 139/139/139
f 138/138/138 129/129/129 136/136/136
f 147/147/147 133/133/133 138/138/138
f 140/140/140 131/131/131 148/148/148
f 128/128/128 145/145/145 143/143/143
f 131/131/131 146/146/146 148/148/148
f 144/144/144 145/145/145 137/137/137
f 149/149/149 138/138/138 136/136/136
f 140/140/140 148/148/148 142/142/142
f 150/150/150 149/149/149 136/136/136
f 136/136/136 141/141/141 151/151/151
f 141/141/141 142/142/142 152/152/152
f 136/136/136 151/151/151 150/150/150
f 147/147/147 144/144/144 133/133/133
f 151/151/151 141/141/141 152/152/152
f 138/138/138 149/149/149 147/147/147
f 147/147/147 149/149/149 153/153/153
f 153/153/153 149/149/149 150/150/150
f 147/147/147 153/153/153 154/154/154
f 155/155/155 156/156/156 157/157/157
f 157/157/157 156/156/156 158/158/158
f 155/155/155 159/159/159 156/156/156
f 158/158/158 160/160/160 161/161/161
f 161/161/161 162/162/162 163/163/163
f 160/160/160 162/162/162 161/161/161
f 162/162/162 164/164/164 163/163/163
f 165/165/165 156/156/156 159/159/159
f 166/166/166 165/165/165 159/159/159
f 156/156/156 167/167/167 158/158/158
f 160/160/160 158/158/158 167/167/167
f 165/165/165 166/166/166 168/168/168
f 165/165/165 167/167/167 156/156/156
f 160/160/160 169/169/169 162/162/162
f 170/170/170 166/166/166 171/171/171
f 172/172/172 164/164/164 162/162/162
f 160/160/160 173/173/173 169/169/169
f 174/174/174 170/170/170 171/171/171
f 167/167/167 173/173/173 160/160/160
f 175/175/175 165/165/165 168/168/168
f 170/170/170 168/168/168 166/166/166
f 164/164/164 172/172/172 176/176/176
f 165/165/165 177/177/177 167/167/167
f 175/175/175 168/168/168 178/178/178
f 168/168/168 170/170/170 178/178/178
f 172/172/172 162/162/162 169/169/169
f 165/165/165 175/175/175 177/177/177
f 167/167/167 179/179/179 173/173/173
f 179/179/179 167/167/167 177/177/177
f 174/174/174 180/180/180 170/170/170
f 172/172/172 169/169/169 181/181/181
f 170/170/170 180/180/180 178/178/178
f 169/169/169 173/173/173 182/182/182
f 172/172/172 181/181/181 176/176/176
f 178/178/178 180/180/180 183/183/183
f 179/179/179 182/182/182 173/173/173
f 182/182/182 181/181/181 169/169/169
f 177/177/177 184/184/184 179/179/179
f 185/185/185 175/175/175 178/178/178
f 186/186/186 176/176/176 187/187/187
f 175/175/175 185/185/185 177/177/177
f 181/181/181 187/187/187 176/176/176
f 188/188/188 183/183/183 180/180/180
f 183/183/183 185/185/185 178/178/178
f 189/189/189 177/177/177 185/185/185
f 177/177/177 189/189/189 184/184/184
f 184/184/184 190/190/190 179/179/179
f 179/179/179 191/191/191 182/182/182
f 190/190/190 191/191/191 179/179/179
f 188/188/188 192/192/192 183/183/183
f 193/193/193 181/181/181 182/182/182
f 189/189/189 194/194/194 184/184/184
f 183/183/183 195/195/195 185/185/185
f 184/184/184 194/194/194 190/190/190
f 196/196/196 185/185/185 195/195/195
f 195/195/195 183/183/183 192/192/192
f 189/189/189 185/185/185 196/196/196
f 182/182/182 197/197/197 193/193/193
f 182/182/182 191/191/191 197/197/197
f 190/190/190 194/194/194 198/198/198
f 194/194/194 189/189/189 196/196/196
f 199/199/199 181/181/181 193/193/193
f 181/181/181 199/199/199 187/187/187
f 190/190/190 198/198/198 191/191/191
f 186/186/186 187/187/187 200/200/200
f 191/191/191 198/198/198 197/197/197
f 187/187/187 201/201/201 200/200/200
f 197/197/197 198/198/198 202/202/202
f 187/187/187 199/199/199 201/201/201
f 194/194/194 196/196/196 203/203/203
f 199/199/199 204/204/204 201/201/201
f 194/194/194 205/205/205 198/198/198
f 199/199/199 193/193/193 206/206/206
f 193/193/193 197/197/197 206/206/206
f 203/203/203 205/205/205 194/194/194
f 204/204/204 199/199/199 206/206/206
f 200/200/200 201/201/201 207/207/207
f 192/192/192 208/208/208 195/195/195
f 197/197/197 209/209/209 206/206/206
f 195/195/195 210/210/210 196/196/196
f 195/195/195 208/208/208 210/210/210
f 209/209/209 197/197/197 202/202/202
f 198/198/198 211/211/211 202/202/202
f 212/212/212 206/206/206 209/209/209
f 205/205/205 213/213/213 198/198/198
f 203/203/203 213/213/213 205/205/205
f 204/204/204 214/214/214 201/201/201
f 213/213/213 211/211/211 198/198/198
f 206/206/206 212/212/212 204/204/204
f 196/196/196 210/210/210 215/215/215
f 202/202/202 211/211/211 216/216/216
f 210/210/210 208/208/208 217/217/217
f 196/196/196 215/215/215 203/203/203
f 202/202/202 218/218/218 209/209/209
f 201/201/201 214/214/214 207/207/207
f 218/218/218 202/202/202 216/216/216
f 214/214/214 204/204/204 212/212/212
f 213/213/213 219/219/219 211/211/211
f 210/210/210 217/217/217 215/215/215
f 208/208/208 220/220/220 217/217/217
f 218/218/218 212/212/212 209/209/209
f 203/203/203 219/219/219 213/213/213
f 219/219/219 203/203/203 215/215/215
f 216/216/216 221/221/221 218/218/218
f 222/222/222 217/217/217 220/220/220
f 219/219/219 223/223/223 211/211/211
f 211/211/211 223/223/223 216/216/216
f 217/217/217 224/224/224 215/215/215
f 218/218/218 225/225/225 212/212/212
f 215/215/215 226/226/226 219/219/219
f 221/221/221 216/216/216 223/223/223
f 214/214/214 212/212/212 227/227/227
f 226/226/226 228/228/228 219/219/219
f 226/226/226 215/215/215 224/224/224
f 212/212/212 225/225/225 227/227/227
f 218/218/218 221/221/221 225/225/225
f 219/219/219 228/228/228 223/223/223
f 217/217/217 229/229/229 224/224/224
f 230/230/230 207/207/207 214/214/214
f 229/229/229 231/231/231 224/224/224
f 217/217/217 222/222/222 229/229/229
f 226/226/226 224/224/224 231/231/231
f 226/226/226 232/232/232 228/228/228
f 233/233/233 214/214/214 227/227/227
f 233/233/233 230/230/230 214/214/214
f 223/223/223 234/234/234 221/221/221
f 226/226/226 231/231/231 232/232/232
f 228/228/228 235/235/235 223/223/223
f 236/236/236 227/227/227 225/225/225
f 221/221/221 234/234/234 225/225/225
f 229/229/229 237/237/237 231/231/231
f 236/236/236 233/233/233 227/227/227
f 235/235/235 234/234/234 223/223/223
f 231/231/231 237/237/237 232/232/232
f 229/229/229 222/222/222 238/238/238
f 232/232/232 239/239/239 228/228/228
f 233/233/233 240/240/240 230/230/230
f 228/228/228 239/239/239 235/235/235
f 229/229/229 238/238/238 241/241/241
f 225/225/225 234/234/234 242/242/242
f 225/225/225 242/242/242 236/236/236
f 232/232/232 243/243/243 239/239/239
f 244/244/244 234/234/234 235/235/235
f 245/245/245 240/240/240 233/233/233
f 236/236/236 242/242/242 246/246/246
f 237/237/237 229/229/229 241/241/241
f 235/235/235 239/239/239 244/244/244
f 234/234/234 246/246/246 242/242/242
f 236/236/236 245/245/245 233/233/233
f 234/234/234 244/244/244 246/246/246
f 246/246/246 245/245/245 236/236/236
f 237/237/237 247/247/247 232/232/232
f 248/248/248 244/244/244 239/239/239
f 232/232/232 247/247/247 243/243/243
f 244/244/244 248/248/248 246/246/246
f 237/237/237 241/241/241 249/249/249
f 239/239/239 243/243/243 248/248/248
f 248/248/248 250/250/250 246/246/246
f 251/251/251 245/245/245 246/246/246
f 249/249/249 247/247/247 237/237/237
f 250/250/250 251/251/251 246/246/246
f 252/252/252 248/248/248 253/253/253
f 243/243/243 253/253/253 248/248/248
f 243/243/243 247/247/247 254/254/254
f 252/252/252 250/250/250 248/248/248
f 243/243/243 254/254/254 253/253/253
f 247/247/247 249/249/249 255/255/255
f 254/254/254 247/247/247 255/255/255
f 256/256/256 257/257/257 258/258/258
f 259/259/259 256/256/256 258/258/258
f 256/256/256 260/260/260 261/261/261
f 256/256/256 259/259/259 260/260/260
f 260/260/260 262/262/262 261/261/261
f 263/263/263 262/262/262 264/264/264
f 259/259/259 265/265/265 260/260/260
f 258/258/258 266/266/266 259/259/259
f 263/263/263 267/267/267 268/268/268
f 264/264/264 267/267/267 263/263/263
f 267/267/267 269/269/269 268/268/268
f 262/262/262 270/270/270 264/264/264
f 260/260/260 270/270/270 262/262/262
f 269/269/269 271/271/271 268/268/268
f 272/272/272 265/265/265 259/259/259
f 268/268/268 271/271/271 273/273/273
f 260/260/260 274/274/274 270/270/270
f 274/274/274 260/260/260 265/265/265
f 267/267/267 264/264/264 275/275/275
f 266/266/266 272/272/272 259/259/259
f 273/273/273 271/271/271 276/276/276
f 269/269/269 267/267/267 275/275/275
f 274/274/274 277/277/277 270/270/270
f 269/269/269 278/278/278 271/271/271
f 273/273/273 276/276/276 279/279/279
f 264/264/264 280/280/280 275/275/275
f 281/281/281 280/280/280 264/264/264
f 270/270/270 281/281/281 264/264/264
f 269/269/269 275/275/275 278/278/278
f 282/282/282 283/283/283 279/279/279
f 265/265/265 284/284/284 274/274/274
f 270/270/270 277/277/277 281/281/281
f 279/279/279 276/276/276 282/282/282
f 282/282/282 285/285/285 283/283/283
f 266/266/266 286/286/286 272/272/272
f 272/272/272 284/284/284 265/265/265
f 271/271/271 287/287/287 276/276/276
f 275/275/275 288/288/288 278/278/278
f 275/275/275 280/280/280 288/288/288
f 272/272/272 289/289/289 284/284/284
f 281/281/281 277/277/277 290/290/290
f 278/278/278 287/287/287 271/271/271
f 274/274/274 284/284/284 291/291/291
f 290/290/290 280/280/280 281/281/281
f 291/291/291 277/277/277 274/274/274
f 288/288/288 280/280/280 290/290/290
f 272/272/272 286/286/286 289/289/289
f 292/292/292 282/282/282 276/276/276
f 285/285/285 282/282/282 293/293/293
f 289/289/289 294/294/294 284/284/284
f 278/278/278 295/295/295 287/287/287
f 282/282/282 292/292/292 293/293/293
f 292/292/292 276/276/276 287/287/287
f 278/278/278 288/288/288 295/295/295
f 294/294/294 291/291/291 284/284/284
f 292/292/292 287/287/287 296/296/296
f 285/285/285 293/293/293 297/297/297
f 286/286/286 298/298/298 289/289/289
f 291/291/291 290/290/290 277/277/277
f 290/290/290 299/299/299 288/288/288
f 300/300/300 293/293/293 292/292/292
f 298/298/298 301/301/301 289/289/289
f 301/301/301 294/294/294 289/289/289
f 299/299/299 295/295/295 288/288/288
f 294/294/294 302/302/302 291/291/291
f 287/287/287 295/295/295 296/296/296
f 292/292/292 303/303/303 300/300/300
f 295/295/295 299/299/299 304/304/304
f 291/291/291 305/305/305 290/290/290
f 295/295/295 304/304/304 296/296/296
f 293/293/293 300/300/300 297/297/297
f 305/305/305 299/299/299 290/290/290
f 297/297/297 306/306/306 307/307/307
f 292/292/292 296/296/296 303/303/303
f 302/302/302 305/305/305 291/291/291
f 308/308/308 306/306/306 297/297/297
f 304/304/304 309/309/309 296/296/296
f 286/286/286 310/310/310 298/298/298
f 297/297/297 300/300/300 308/308/308
f 311/311/311 303/303/303 296/296/296
f 302/302/302 312/312/312 305/305/305
f 294/294/294 313/313/313 302/302/302
f 301/301/301 313/313/313 294/294/294
f 305/305/305 314/314/314 299/299/299
f 310/310/310 315/315/315 298/298/298
f 304/304/304 316/316/316 309/309/309
f 296/296/296 309/309/309 311/311/311
f 306/306/306 308/308/308 317/317/317
f 302/302/302 318/318/318 312/312/312
f 319/319/319 307/307/307 306/306/306
f 303/303/303 311/311/311 300/300/300
f 307/307/307 319/319/319 320/320/320
f 306/306/306 317/317/317 319/319/319
f 298/298/298 315/315/315 301/301/301
f 312/312/312 314/314/314 305/305/305
f 320/320/320 319/319/319 321/321/321
f 318/318/318 302/302/302 313/313/313
f 315/315/315 310/310/310 322/322/322
f 308/308/308 323/323/323 317/317/317
f 315/315/315 324/324/324 301/301/301
f 325/325/325 304/304/304 299/299/299
f 299/299/299 314/314/314 325/325/325
f 319/319/319 326/326/326 321/321/321
f 316/316/316 311/311/311 309/309/309
f 308/308/308 300/300/300 323/323/323
f 316/316/316 304/304/304 325/325/325
f 327/327/327 314/314/314 312/312/312
f 317/317/317 326/326/326 319/319/319
f 313/313/313 301/301/301 328/328/328
f 317/317/317 323/323/323 329/329/329
f 313/313/313 328/328/328 318/318/318
f 322/322/322 324/324/324 315/315/315
f 321/321/321 326/326/326 330/330/330
f 326/326/326 317/317/317 329/329/329
f 330/330/330 331/331/331 321/321/321
f 312/312/312 318/318/318 332/332/332
f 332/332/332 327/327/327 312/312/312
f 325/325/325 333/333/333 316/316/316
f 324/324/324 334/334/334 301/301/301
f 301/301/301 334/334/334 328/328/328
f 300/300/300 335/335/335 323/323/323
f 316/316/316 333/333/333 311/311/311
f 333/333/333 325/325/325 336/336/336
f 337/337/337 331/331/331 330/330/330
f 314/314/314 336/336/336 325/325/325
f 335/335/335 300/300/300 338/338/338
f 326/326/326 339/339/339 330/330/330
f 340/340/340 330/330/330 339/339/339
f 300/300/300 311/311/311 338/338/338
f 329/329/329 339/339/339 326/326/326
f 330/330/330 340/340/340 337/337/337
f 314/314/314 327/327/327 336/336/336
f 327/327/327 341/341/341 336/336/336
f 328/328/328 332/332/332 318/318/318
f 329/329/329 342/342/342 339/339/339
f 343/343/343 337/337/337 340/340/340
f 328/328/328 344/344/344 332/332/332
f 345/345/345 341/341/341 327/327/327
f 346/346/346 311/311/311 333/333/333
f 323/323/323 347/347/347 329/329/329
f 332/332/332 348/348/348 327/327/327
f 336/336/336 349/349/349 333/333/333
f 342/342/342 329/329/329 347/347/347
f 350/350/350 343/343/343 340/340/340
f 350/350/350 340/340/340 339/339/339
f 351/351/351 332/332/332 344/344/344
f 328/328/328 334/334/334 352/352/352
f 348/348/348 345/345/345 327/327/327
f 342/342/342 350/350/350 339/339/339
f 332/332/332 351/351/351 348/348/348
f 335/335/335 338/338/338 353/353/353
f 341/341/341 349/349/349 336/336/336
f 311/311/311 346/346/346 338/338/338
f 323/323/323 335/335/335 347/347/347
f 352/352/352 344/344/344 328/328/328
f 324/324/324 354/354/354 334/334/334
f 322/322/322 355/355/355 324/324/324
f 355/355/355 354/354/354 324/324/324
f 352/352/352 334/334/334 354/354/354
f 347/347/347 335/335/335 356/356/356
f 352/352/352 351/351/351 344/344/344
f 345/345/345 357/357/357 341/341/341
f 349/349/349 358/358/358 333/333/333
f 333/333/333 358/358/358 346/346/346
f 338/338/338 346/346/346 353/353/353
f 341/341/341 357/357/357 349/349/349
f 351/351/351 359/359/359 348/348/348
f 348/348/348 359/359/359 345/345/345
f 347/347/347 356/356/356 342/342/342
f 335/335/335 360/360/360 356/356/356
f 353/353/353 346/346/346 361/361/361
f 352/352/352 362/362/362 351/351/351
f 349/349/349 363/363/363 358/358/358
f 353/353/353 364/364/364 335/335/335
f 322/322/322 365/365/365 355/355/355
f 345/345/345 359/359/359 357/357/357
f 335/335/335 364/364/364 360/360/360
f 358/358/358 366/366/366 346/346/346
f 351/351/351 362/362/362 359/359/359
f 342/342/342 356/356/356 367/367/367
f 363/363/363 349/349/349 357/357/357
f 360/360/360 367/367/367 356/356/356
f 366/366/366 361/361/361 346/346/346
f 357/357/357 368/368/368 363/363/363
f 363/363/363 368/368/368 358/358/358
f 357/357/357 359/359/359 369/369/369
f 353/353/353 370/370/370 364/364/364
f 371/371/371 352/352/352 354/354/354
f 369/369/369 368/368/368 357/357/357
f 353/353/353 361/361/361 370/370/370
f 352/352/352 372/372/372 362/362/362
f 358/358/358 373/373/373 366/366/366
f 358/358/358 368/368/368 373/373/373
f 355/355/355 365/365/365 374/374/374
f 355/355/355 375/375/375 354/354/354
f 362/362/362 376/376/376 359/359/359
f 369/369/369 359/359/359 376/376/376
f 366/366/366 377/377/377 361/361/361
f 371/371/371 354/354/354 375/375/375
f 371/371/371 372/372/372 352/352/352
f 355/355/355 374/374/374 375/375/375
f 360/360/360 364/364/364 378/378/378
f 377/377/377 366/366/366 373/373/373
f 369/369/369 379/379/379 368/368/368
f 364/364/364 370/370/370 378/378/378
f 376/376/376 380/380/380 369/369/369
f 368/368/368 381/381/381 373/373/373
f 369/369/369 380/380/380 379/379/379
f 368/368/368 379/379/379 381/381/381
f 377/377/377 382/382/382 361/361/361
f 361/361/361 382/382/382 370/370/370
f 367/367/367 360/360/360 383/383/383
f 362/362/362 372/372/372 376/376/376
f 381/381/381 384/384/384 373/373/373
f 371/371/371 375/375/375 372/372/372
f 373/373/373 384/384/384 377/377/377
f 378/378/378 370/370/370 385/385/385
f 386/386/386 374/374/374 365/365/365
f 360/360/360 378/378/378 383/383/383
f 387/387/387 381/381/381 379/379/379
f 372/372/372 375/375/375 388/388/388
f 370/370/370 382/382/382 385/385/385
f 389/389/389 375/375/375 374/374/374
f 390/390/390 382/382/382 377/377/377
f 387/387/387 379/379/379 380/380/380
f 377/377/377 384/384/384 390/390/390
f 374/374/374 386/386/386 389/389/389
f 391/391/391 376/376/376 372/372/372
f 372/372/372 388/388/388 391/391/391
f 384/384/384 381/381/381 392/392/392
f 388/388/388 375/375/375 389/389/389
f 387/387/387 392/392/392 381/381/381
f 376/376/376 393/393/393 380/380/380
f 376/376/376 391/391/391 393/393/393
f 394/394/394 391/391/391 388/388/388
f 380/380/380 395/395/395 387/387/387
f 394/394/394 388/388/388 389/389/389
f 395/395/395 380/380/380 393/393/393
f 396/396/396 397/397/397 398/398/398
f 398/398/398 397/397/397 399/399/399
f 399/399/399 397/397/397 400/400/400
f 399/399/399 400/400/400 401/401/401
f 402/402/402 398/398/398 399/399/399
f 403/403/403 404/404/404 405/405/405
f 406/406/406 401/401/401 403/403/403
f 406/406/406 403/403/403 405/405/405
f 407/407/407 408/408/408 409/409/409
f 402/402/402 410/410/410 398/398/398
f 404/404/404 407/407/407 411/411/411
f 408/408/408 412/412/412 409/409/409
f 405/405/405 404/404/404 411/411/411
f 411/411/411 407/407/407 409/409/409
f 412/412/412 408/408/408 413/413/413
f 401/401/401 406/406/406 414/414/414
f 415/415/415 399/399/399 401/401/401
f 401/401/401 414/414/414 415/415/415
f 402/402/402 399/399/399 416/416/416
f 402/402/402 417/417/417 410/410/410
f 416/416/416 399/399/399 415/415/415
f 405/405/405 411/411/411 418/418/418
f 406/406/406 405/405/405 414/414/414
f 411/411/411 409/409/409 418/418/418
f 416/416/416 419/419/419 402/402/402
f 417/417/417 402/402/402 419/419/419
f 414/414/414 405/405/405 418/418/418
f 409/409/409 412/412/412 420/420/420
f 412/412/412 413/413/413 421/421/421
f 416/416/416 415/415/415 422/422/422
f 420/420/420 412/412/412 421/421/421
f 419/419/419 423/423/423 417/417/417
f 415/415/415 414/414/414 424/424/424
f 414/414/414 418/418/418 425/425/425
f 415/415/415 424/424/424 422/422/422
f 409/409/409 426/426/426 418/418/418
f 409/409/409 420/420/420 426/426/426
f 416/416/416 427/427/427 419/419/419
f 418/418/418 426/426/426 425/425/425
f 420/420/420 421/421/421 428/428/428
f 414/414/414 425/425/425 424/424/424
f 416/416/416 422/422/422 427/427/427
f 426/426/426 420/420/420 429/429/429
f 425/425/425 426/426/426 430/430/430
f 424/424/424 425/425/425 431/431/431
f 424/424/424 431/431/431 422/422/422
f 430/430/430 426/426/426 432/432/432
f 420/420/420 428/428/428 433/433/433
f 434/434/434 420/420/420 433/433/433
f 419/419/419 427/427/427 423/423/423
f 429/429/429 420/420/420 434/434/434
f 425/425/425 430/430/430 435/435/435
f 426/426/426 429/429/429 432/432/432
f 436/436/436 433/433/433 428/428/428
f 431/431/431 425/425/425 435/435/435
f 422/422/422 431/431/431 437/437/437
f 438/438/438 427/427/427 422/422/422
f 439/439/439 432/432/432 429/429/429
f 432/432/432 440/440/440 430/430/430
f 441/441/441 423/423/423 427/427/427
f 432/432/432 439/439/439 440/440/440
f 429/429/429 434/434/434 442/442/442
f 438/438/438 422/422/422 437/437/437
f 435/435/435 430/430/430 443/443/443
f 431/431/431 435/435/435 437/437/437
f 423/423/423 441/441/441 444/444/444
f 430/430/430 440/440/440 443/443/443
f 429/429/429 442/442/442 439/439/439
f 433/433/433 436/436/436 445/445/445
f 445/445/445 434/434/434 433/433/433
f 427/427/427 446/446/446 441/441/441
f 438/438/438 446/446/446 427/427/427
f 434/434/434 447/447/447 442/442/442
f 445/445/445 436/436/436 448/448/448
f 447/447/447 434/434/434 445/445/445
f 439/439/439 442/442/442 447/447/447
f 449/449/449 438/438/438 437/437/437
f 447/447/447 445/445/445 450/450/450
f 446/446/446 438/438/438 449/449/449
f 435/435/435 443/443/443 451/451/451
f 439/439/439 447/447/447 452/452/452
f 440/440/440 439/439/439 452/452/452
f 437/437/437 435/435/435 451/451/451
f 440/440/440 452/452/452 453/453/453
f 454/454/454 445/445/445 448/448/448
f 447/447/447 450/450/450 452/452/452
f 455/455/455 443/443/443 440/440/440
f 450/450/450 445/445/445 454/454/454
f 451/451/451 443/443/443 455/455/455
f 455/455/455 440/440/440 453/453/453
f 456/456/456 441/441/441 446/446/446
f 452/452/452 450/450/450 457/457/457
f 454/454/454 448/448/448 458/458/458
f 446/446/446 449/449/449 459/459/459
f 437/437/437 451/451/451 460/460/460
f 455/455/455 453/453/453 461/461/461
f 453/453/453 452/452/452 462/462/462
f 456/456/456 446/446/446 459/459/459
f 455/455/455 461/461/461 451/451/451
f 461/461/461 453/453/453 462/462/462
f 454/454/454 463/463/463 450/450/450
f 463/463/463 457/457/457 450/450/450
f 454/454/454 458/458/458 463/463/463
f 437/437/437 460/460/460 449/449/449
f 451/451/451 461/461/461 460/460/460
f 463/463/463 458/458/458 464/464/464
f 465/465/465 449/449/449 460/460/460
f 449/449/449 465/465/465 459/459/459
f 452/452/452 457/457/457 462/462/462
f 466/466/466 457/457/457 463/463/463
f 462/462/462 457/457/457 467/467/467
f 468/468/468 464/464/464 458/458/458
f 469/469/469 459/459/459 465/465/465
f 456/456/456 459/459/459 469/469/469
f 470/470/470 468/468/468 458/458/458
f 471/471/471 456/456/456 469/469/469
f 466/466/466 467/467/467 457/457/457
f 466/466/466 463/463/463 464/464/464
f 465/465/465 460/460/460 472/472/472
f 462/462/462 473/473/473 461/461/461
f 474/474/474 460/460/460 461/461/461
f 466/466/466 464/464/464 475/475/475
f 475/475/475 467/467/467 466/466/466
f 464/464/464 468/468/468 476/476/476
f 464/464/464 477/477/477 475/475/475
f 461/461/461 473/473/473 474/474/474
f 473/473/473 462/462/462 467/467/467
f 465/465/465 478/478/478 469/469/469
f 465/465/465 472/472/472 478/478/478
f 471/471/471 469/469/469 479/479/479
f 464/464/464 476/476/476 477/477/477
f 460/460/460 474/474/474 480/480/480
f 472/472/472 460/460/460 480/480/480
f 469/469/469 478/478/478 479/479/479
f 474/474/474 473/473/473 481/481/481
f 467/467/467 482/482/482 473/473/473
f 482/482/482 467/467/467 475/475/475
f 479/479/479 483/483/483 471/471/471
f 484/484/484 477/477/477 476/476/476
f 473/473/473 482/482/482 481/481/481
f 474/474/474 481/481/481 480/480/480
f 475/475/475 477/477/477 485/485/485
f 484/484/484 485/485/485 477/477/477
f 475/475/475 485/485/485 482/482/482
f 478/478/478 472/472/472 486/486/486
f 487/487/487 479/479/479 478/478/478
f 481/481/481 482/482/482 488/488/488
f 482/482/482 485/485/485 489/489/489
f 490/490/490 483/483/483 491/491/491
f 491/491/491 483/483/483 479/479/479
f 487/487/487 478/478/478 486/486/486
f 480/480/480 481/481/481 492/492/492
f 489/489/489 488/488/488 482/482/482
f 487/487/487 491/491/491 479/479/479
f 472/472/472 480/480/480 493/493/493
f 480/480/480 492/492/492 493/493/493
f 481/481/481 488/488/488 492/492/492
f 486/486/486 472/472/472 493/493/493
f 494/494/494 492/492/492 488/488/488
f 488/488/488 489/489/489 494/494/494
f 487/487/487 495/495/495 491/491/491
f 486/486/486 495/495/495 487/487/487
f 486/486/486 493/493/493 496/496/496
f 493/493/493 492/492/492 497/497/497
f 492/492/492 494/494/494 497/497/497
f 491/491/491 498/498/498 490/490/490
f 493/493/493 497/497/497 496/496/496
f 495/495/495 486/486/486 496/496/496
f 498/498/498 491/491/491 495/495/495
f 499/499/499 500/500/500 501/501/501
f 499/499/499 501/501/501 502/502/502
f 503/503/503 504/504/504 501/501/501
f 505/505/505 499/499/499 502/502/502
f 503/503/503 506/506/506 504/504/504
f 507/507/507 508/508/508 509/509/509
f 510/510/510 511/511/511 512/512/512
f 513/513/513 505/505/505 502/502/502
f 514/514/514 505/505/505 513/513/513
f 507/507/507 509/509/509 515/515/515
f 502/502/502 501/501/501 504/504/504
f 516/516/516 512/512/512 517/517/517
f 510/510/510 506/506/506 511/511/511
f 518/518/518 516/516/516 517/517/517
f 510/510/510 519/519/519 506/506/506
f 506/506/506 519/519/519 504/504/504
f 520/520/520 521/521/521 522/522/522
f 523/523/523 508/508/508 524/524/524
f 525/525/525 523/523/523 526/526/526
f 504/504/504 527/527/527 502/502/502
f 528/528/528 514/514/514 529/529/529
f 507/507/507 524/524/524 508/508/508
f 530/530/530 525/525/525 526/526/526
f 529/529/529 514/514/514 513/513/513
f 504/504/504 519/519/519 527/527/527
f 531/531/531 520/520/520 528/528/528
f 532/532/532 510/510/510 512/512/512
f 510/510/510 533/533/533 519/519/519
f 531/531/531 521/521/521 520/520/520
f 513/513/513 502/502/502 534/534/534
f 535/535/535 522/522/522 521/521/521
f 516/516/516 532/532/532 512/512/512
f 519/519/519 536/536/536 527/527/527
f 530/530/530 526/526/526 537/537/537
f 533/533/533 510/510/510 532/532/532
f 531/531/531 528/528/528 529/529/529
f 534/534/534 502/502/502 527/527/527
f 536/536/536 519/519/519 533/533/533
f 529/529/529 513/513/513 534/534/534
f 530/530/530 537/537/537 518/518/518
f 538/538/538 523/523/523 524/524/524
f 518/518/518 539/539/539 516/516/516
f 538/538/538 526/526/526 523/523/523
f 537/537/537 539/539/539 518/518/518
f 536/536/536 534/534/534 527/527/527
f 521/521/521 531/531/531 540/540/540
f 541/541/541 536/536/536 533/533/533
f 529/529/529 542/542/542 531/531/531
f 529/529/529 534/534/534 543/543/543
f 544/544/544 545/545/545 515/515/515
f 542/542/542 529/529/529 543/543/543
f 532/532/532 546/546/546 533/533/533
f 540/540/540 531/531/531 542/542/542
f 547/547/547 535/535/535 548/548/548
f 548/548/548 521/521/521 540/540/540
f 535/535/535 521/521/521 548/548/548
f 516/516/516 549/549/549 532/532/532
f 550/550/550 547/547/547 551/551/551
f 536/536/536 552/552/552 534/534/534
f 543/543/543 534/534/534 552/552/552
f 553/553/553 537/537/537 526/526/526
f 539/539/539 549/549/549 516/516/516
f 549/549/549 546/546/546 532/532/532
f 507/507/507 515/515/515 545/545/545
f 551/551/551 547/547/547 548/548/548
f 546/546/546 541/541/541 533/533/533
f 542/542/542 543/543/543 554/554/554
f 553/553/553 526/526/526 538/538/538
f 507/507/507 555/555/555 524/524/524
f 550/550/550 551/551/551 556/556/556
f 557/557/557 548/548/548 540/540/540
f 540/540/540 542/542/542 557/557/557
f 558/558/558 544/544/544 559/559/559
f 552/552/552 554/554/554 543/543/543
f 555/555/555 507/507/507 545/545/545
f 555/555/555 538/538/538 524/524/524
f 560/560/560 558/558/558 559/559/559
f 536/536/536 541/541/541 552/552/552
f 542/542/542 554/554/554 557/557/557
f 549/549/549 561/561/561 546/546/546
f 548/548/548 562/562/562 551/551/551
f 554/554/554 552/552/552 563/563/563
f 546/546/546 561/561/561 541/541/541
f 557/557/557 554/554/554 563/563/563
f 555/555/555 564/564/564 538/538/538
f 557/557/557 562/562/562 548/548/548
f 564/564/564 555/555/555 545/545/545
f 553/553/553 538/538/538 564/564/564
f 565/565/565 556/556/556 551/551/551
f 561/561/561 566/566/566 541/541/541
f 558/558/558 545/545/545 544/544/544
f 567/567/567 568/568/568 560/560/560
f 539/539/539 537/537/537 569/569/569
f 570/570/570 552/552/552 541/541/541
f 571/571/571 568/568/568 567/567/567
f 572/572/572 556/556/556 573/573/573
f 570/570/570 563/563/563 552/552/552
f 569/569/569 549/549/549 539/539/539
f 551/551/551 562/562/562 565/565/565
f 570/570/570 541/541/541 566/566/566
f 574/574/574 565/565/565 562/562/562
f 575/575/575 576/576/576 577/577/577
f 578/578/578 562/562/562 557/557/557
f 575/575/575 579/579/579 576/576/576
f 568/568/568 571/571/571 580/580/580
f 558/558/558 581/581/581 545/545/545
f 582/582/582 561/561/561 549/549/549
f 578/578/578 557/557/557 563/563/563
f 583/583/583 537/537/537 553/553/553
f 573/573/573 556/556/556 565/565/565
f 568/568/568 558/558/558 560/560/560
f 584/584/584 579/579/579 580/580/580
f 553/553/553 564/564/564 583/583/583
f 577/577/577 572/572/572 573/573/573
f 561/561/561 582/582/582 566/566/566
f 574/574/574 562/562/562 578/578/578
f 582/582/582 549/549/549 569/569/569
f 563/563/563 570/570/570 578/578/578
f 585/585/585 564/564/564 545/545/545
f 580/580/580 579/579/579 586/586/586
f 569/569/569 537/537/537 583/583/583
f 587/587/587 558/558/558 568/568/568
f 579/579/579 575/575/575 588/588/588
f 569/569/569 589/589/589 582/582/582
f 590/590/590 566/566/566 582/582/582
f 570/570/570 566/566/566 590/590/590
f 591/591/591 578/578/578 570/570/570
f 545/545/545 581/581/581 585/585/585
f 568/568/568 580/580/580 587/587/587
f 574/574/574 578/578/578 592/592/592
f 590/590/590 591/591/591 570/570/570
f 586/586/586 579/579/579 588/588/588
f 581/581/581 558/558/558 593/593/593
f 590/590/590 582/582/582 589/589/589
f 592/592/592 578/578/578 591/591/591
f 564/564/564 585/585/585 583/583/583
f 575/575/575 577/577/577 594/594/594
f 573/573/573 565/565/565 595/595/595
f 596/596/596 587/587/587 580/580/580
f 596/596/596 580/580/580 586/586/586
f 577/577/577 573/573/573 594/594/594
f 589/589/589 597/597/597 590/590/590
f 588/588/588 575/575/575 594/594/594
f 574/574/574 592/592/592 565/565/565
f 587/587/587 593/593/593 558/558/558
f 594/594/594 573/573/573 598/598/598
f 597/597/597 591/591/591 590/590/590
f 592/592/592 591/591/591 597/597/597
f 585/585/585 599/599/599 583/583/583
f 585/585/585 581/581/581 599/599/599
f 595/595/595 598/598/598 573/573/573
f 565/565/565 592/592/592 595/595/595
f 600/600/600 569/569/569 583/583/583
f 589/589/589 569/569/569 601/601/601
f 601/601/601 597/597/597 589/589/589
f 592/592/592 602/602/602 595/595/595
f 599/599/599 581/581/581 593/593/593
f 601/601/601 569/569/569 600/600/600
f 592/592/592 597/597/597 602/602/602
f 599/599/599 600/600/600 583/583/583
f 596/596/596 603/603/603 587/587/587
f 587/587/587 603/603/603 593/593/593
f 594/594/594 598/598/598 588/588/588
f 586/586/586 604/604/604 596/596/596
f 586/586/586 588/588/588 604/604/604
f 603/603/603 596/596/596 604/604/604
f 595/595/595 602/602/602 605/605/605
f 603/603/603 599/599/599 593/593/593
f 606/606/606 600/600/600 599/599/599
f 605/605/605 598/598/598 595/595/595
f 598/598/598 604/604/604 588/588/588
f 602/602/602 597/597/597 607/607/607
f 600/600/600 607/607/607 601/601/601
f 601/601/601 607/607/607 597/597/597
f 599/599/599 603/603/603 606/606/606
f 605/605/605 602/602/602 607/607/607
f 598/598/598 605/605/605 604/604/604
f 607/607/607 600/600/600 606/606/606
f 605/605/605 607/607/607 604/604/604
f 607/607/607 606/606/606 603/603/603
f 604/604/604 607/607/607 603/603/603
