# exported by v3d-codec
mtllib model.mtl
o surface_7
v -0.4729211 0.12449894 0.0645477
v -0.45533773 0.1971891 0.00051339803
v -0.47789788 0.11786816 -0.01917889
v -0.44416046 0.18882328 0.109200686
v -0.45313334 0.12783688 -0.15117769
v -0.4462506 0.19055729 -0.108295634
v -0.44584557 0.21355091 -0.0605061
v -0.41946563 0.2521376 0.0837484
v -0.42620245 0.1792378 -0.18194401
v -0.39300302 0.30640742 -0.01494903
v -0.41880774 0.25996897 -0.08255547
v -0.43258724 0.1133791 0.20686087
v -0.39001542 0.18446481 0.23959014
v -0.397185 0.24821304 -0.17257632
v -0.39629176 0.23978923 0.1773975
v -0.37656075 0.21838315 -0.24092172
v -0.3726808 0.31325155 0.10754742
v -0.36991104 0.3108519 -0.13012893
v -0.345379 0.31138292 0.17759603
v -0.34776372 0.35517168 -0.060624328
v -0.34847566 0.28000203 -0.22179538
v -0.30296314 0.28884333 0.2661934
v -0.32628566 0.37040156 0.08051734
v -0.31828442 0.19504514 0.3244132
v -0.31392625 0.38939342 0.022141583
v -0.3616735 0.111902826 0.31519002
v -0.32534137 0.3534616 0.1369103
v -0.30090645 0.34650078 -0.19641745
v -0.29098824 0.38311997 -0.13409583
v -0.278251 0.1209314 0.3887234
v -0.34896275 0.040060874 0.3458175
v -0.29030898 0.31746405 -0.25194782
v -0.26851237 0.37370527 0.19221655
v -0.24436401 0.4337306 -0.046731792
v -0.2783706 0.047966424 0.40501797
v -0.25263393 0.41879675 0.1036856
v -0.25236383 0.26443636 0.33754495
v -0.2364397 0.20975155 0.382486
v -0.2150621 0.4513806 0.024590787
v -0.25442973 0.3015314 -0.30292404
v -0.23545375 0.3629715 -0.24754988
v -0.19926836 0.430648 -0.15383151
v -0.1985539 0.117390744 0.43829808
v -0.22330172 0.35493383 0.27053618
v -0.21433844 0.30378923 0.33163685
v -0.20542029 0.42495576 0.16453457
v -0.20329571 0.34840363 -0.29249895
v -0.17846972 0.40431666 0.23345357
v -0.17112571 0.46578845 0.069150336
v -0.19112684 0.26785344 0.37457088
v -0.18540211 0.21609499 0.4082508
v -0.15338477 0.383229 0.28104818
v -0.15729411 0.4175437 -0.22234085
v -0.13425194 0.208763 0.4299608
v -0.1446578 0.4739533 -0.07648899
v -0.13967963 0.28665385 0.38240772
v -0.14246596 0.44819307 0.1708256
v -0.14652991 0.36129653 -0.31043205
v -0.1328551 0.35473338 0.32501203
v -0.09729325 0.40503174 -0.27375346
v -0.12644854 0.486321 0.0027331384
v -0.0957277 0.44388503 0.2085997
v -0.10444956 0.48123124 0.096705794
v -0.10171877 0.46763918 -0.14701532
v -0.09160079 0.30843547 0.38051236
v -0.050130546 0.4145938 0.27347627
v -0.05606224 0.19775617 0.45081624
v -0.055904187 0.350669 0.3500103
v -0.055363677 0.44932163 -0.21323802
v -0.03681162 0.4972638 -0.049762238
v -0.05133448 0.4982973 0.035786062
v -0.038618222 0.47809404 -0.14600554
v -0.041013043 0.48752666 0.11438687
v -0.0055783754 0.28329775 0.40883395
v -0.014585835 0.46579254 0.18312538
v 0.027150322 0.49331805 0.08393959
v 0.0013810712 0.39053825 0.3121545
v 0.043710038 0.34318036 0.35840398
v 0.017977035 0.44142357 0.23633172
v 0.04230613 0.49995267 -0.0011013622
v 0.04589488 0.48548266 -0.117357284
v 0.07771164 0.45539194 0.19229808
v 0.06681966 0.40261376 0.2884497
v 0.09978007 0.48892435 -0.056879725
v 0.12281976 0.42743644 0.22834633
v 0.106075 0.4796853 0.10365261
v 0.13243575 0.38119546 0.29524222
v -0.4842093 -0.049437452 0.054853603
v -0.48866355 0.038488295 0.00912597
v -0.48932004 -0.020366933 -0.018736666
v -0.48298076 0.05190906 -0.06808243
v -0.47162312 0.062810674 0.11493293
v -0.4745053 -0.11134925 -0.04880003
v -0.4729211 0.12449894 0.0645477
v -0.4663568 -0.014090273 0.14801066
v -0.47789788 0.11786816 -0.01917889
v -0.47241703 -0.059612844 -0.116831765
v -0.46551055 -0.1505256 0.035604604
v -0.45313334 0.12783688 -0.15117769
v -0.46019047 0.030567173 -0.16909175
v -0.4474853 -0.12838686 0.15453646
v -0.44245273 -0.08914428 -0.19267628
v -0.4451075 -0.19994594 -0.065936714
v -0.43630314 -0.17106059 -0.15076534
v -0.44416046 0.18882328 0.109200686
v -0.44478747 -0.1838385 0.10637368
v -0.43434495 -0.013050215 0.22775377
v -0.425874 -0.23899509 0.07130049
v -0.42762086 -0.2468926 0.008453363
v -0.41621736 -0.12999949 0.22609052
v -0.43258724 0.1133791 0.20686087
v -0.41840532 -0.20520599 0.16144331
v -0.398778 0.047697626 0.28336525
v -0.4047601 -0.24883196 -0.13361214
v -0.39775848 -0.049901646 0.28456488
v -0.40119386 -0.26172498 0.11896397
v -0.40187326 -0.28319585 -0.055324186
v -0.4033938 -0.17009374 -0.22788475
v -0.39130712 -0.29904196 0.041977078
v -0.39001542 0.18446481 0.23959014
v -0.3693987 -0.13996644 0.29180408
v -0.3834475 -0.24772681 0.18859224
v -0.3750766 -0.21901864 0.23392826
v -0.3838381 -0.2292907 -0.2099388
v -0.36162135 -0.33724177 -0.015130552
v -0.3616735 0.111902826 0.31519002
v -0.37531093 -0.30175695 -0.11418331
v -0.36781695 -0.29240447 0.15433143
v -0.3462475 -0.051150948 0.34614506
v -0.34896275 0.040060874 0.3458175
v -0.3310206 -0.31813508 -0.18353516
v -0.34154484 -0.2879923 0.2122343
v -0.3465262 -0.3411286 0.09392491
v -0.3187809 -0.3756318 0.048385225
v -0.32456353 -0.3655166 -0.07577543
v -0.32338107 -0.33614945 0.16590358
v -0.31372178 -0.119830124 0.35997516
v -0.31589028 -0.24407077 0.28969058
v -0.31012028 0.007983232 0.38336605
v -0.2845791 -0.38651523 0.12243203
v -0.2934196 -0.05081886 0.39336884
v -0.28311148 -0.37358257 -0.1622131
v -0.2783706 0.047966424 0.40501797
v -0.27733198 -0.31948736 0.2575055
v -0.21769379 -0.44510373 -0.024713498
v -0.25985634 -0.20860411 0.363698
v -0.23631124 -0.365129 -0.23718798
v -0.2367035 -0.012472744 0.43254107
v -0.2347228 -0.42534485 -0.1009265
v -0.23374118 -0.43084574 0.07475794
v -0.23568824 -0.10329504 0.42040172
v -0.22744837 -0.3891001 0.20619856
v -0.23797306 -0.2927661 0.32109213
v -0.21809234 -0.4182442 0.1526516
v -0.20879808 -0.36079907 0.2683585
v -0.21017408 -0.4143932 -0.17473313
v -0.18272343 -0.1790711 0.42209166
v -0.19193433 -0.323591 0.32301566
v -0.15247118 -0.25650615 0.39430058
v -0.17652781 -0.45179173 0.11076859
v -0.14775042 -0.429401 0.20085523
v -0.14332077 -0.4525542 -0.1463839
v -0.15671913 -0.016534988 0.46827382
v -0.16446656 -0.46878654 0.044973463
v -0.13183789 -0.104609676 0.46544674
v -0.12401534 -0.46783 0.11713941
v -0.14282511 -0.3547444 0.31725457
v -0.13295442 -0.3156225 0.35948166
v -0.12682238 -0.48300347 -0.021742145
v -0.085916504 -0.4143003 0.25973514
v -0.07013527 -0.37552577 0.31805098
v -0.11452052 -0.17672107 0.4477998
v -0.087848686 -0.45165122 0.18870798
v -0.07085586 -0.49559054 0.019256094
v -0.068928085 -0.4912374 -0.068608485
v -0.0785398 -0.47036678 -0.1458303
v -0.048910417 -0.48447937 0.112756625
v -0.021733228 -0.45369437 0.20472232
v 0.011253806 -0.5001918 -0.019714018
v 0.014750123 -0.42560947 0.25852704
v 0.014760215 -0.49736091 0.05698598
v -0.009362357 -0.48856315 -0.10512254
v 0.0046143136 -0.4817683 0.13323519
v 0.03759925 -0.4623004 0.18350026
v 0.064908214 -0.48050365 0.120735414
v -0.45313334 0.12783688 -0.15117769
v -0.43156052 0.100313485 -0.21670417
v -0.46019047 0.030567173 -0.16909175
v -0.42620245 0.1792378 -0.18194401
v -0.40270373 0.022095675 -0.28008884
v -0.44245273 -0.08914428 -0.19267628
v -0.3800766 0.16011983 -0.27284732
v -0.4017951 -0.10608676 -0.26359296
v -0.4033938 -0.17009374 -0.22788475
v -0.37656075 0.21838315 -0.24092172
v -0.37667978 0.104626715 -0.300665
v -0.3620795 -0.024237707 -0.33067438
v -0.3838381 -0.2292907 -0.2099388
v -0.3537558 -0.18363667 -0.28963628
v -0.33357874 -0.106101684 -0.34291026
v -0.34714502 -0.23812318 -0.25845522
v -0.32573077 0.18105161 -0.32425898
v -0.32468954 0.08299904 -0.3589237
v -0.3310206 -0.31813508 -0.18353516
v -0.32323137 0.25174832 -0.28083983
v -0.34847566 0.28000203 -0.22179538
v -0.2761154 -0.30077648 -0.27861392
v -0.29738024 -0.23100092 -0.31880695
v -0.27719647 -0.19218934 -0.35825995
v -0.28579763 0.0456914 -0.39640173
v -0.29030898 0.31746405 -0.25194782
v -0.27839774 -0.042273402 -0.40154177
v -0.28532758 0.20790637 -0.34413993
v -0.25442973 0.3015314 -0.30292404
v -0.26086292 0.12888388 -0.39643544
v -0.23631124 -0.365129 -0.23718798
v -0.22334695 0.022940138 -0.43586665
v -0.2346231 -0.28059763 -0.33269256
v -0.21294072 0.27226922 -0.35327137
v -0.23891695 -0.1663098 -0.3969439
v -0.21601282 -0.08374111 -0.4322745
v -0.20430487 0.17573273 -0.4121675
v -0.2160685 0.09043048 -0.4329071
v -0.20616221 -0.23780473 -0.38025597
v -0.1794369 -0.3327671 -0.32029578
v -0.20329571 0.34840363 -0.29249895
v -0.17780505 -0.1794963 -0.4229804
v -0.1271517 -0.119712375 -0.4607215
v -0.1800907 -0.28701 -0.36071703
v -0.1597391 0.11042284 -0.45288983
v -0.14738448 -0.39409953 -0.2612968
v -0.14258336 -0.23276937 -0.41187844
v -0.14652991 0.36129653 -0.31043205
v -0.16092108 0.25257567 -0.39492524
v -0.1408699 0.3097191 -0.36265895
v -0.21017408 -0.4143932 -0.17473313
v -0.12483671 0.002246248 -0.47621986
v -0.14332077 -0.4525542 -0.1463839
v -0.12986745 0.1979258 -0.43398884
v -0.12725587 -0.287467 -0.38250554
v -0.11475712 -0.3443284 -0.33915436
v -0.1084575 0.24730588 -0.41630372
v -0.10976538 0.08997073 -0.47370464
v -0.09073639 0.29894483 -0.38670793
v -0.092046104 -0.18011107 -0.45160562
v -0.098933764 0.35023376 -0.34065422
v -0.09656785 0.14003259 -0.4648481
v -0.051564313 -0.31030476 -0.38371035
v -0.06613077 -0.4426179 -0.21678346
v -0.06826377 -0.39837804 -0.2891056
v -0.07134437 -0.24543826 -0.4247588
v -0.061192177 -0.3647077 -0.3326117
v -0.058337007 0.20100735 -0.4494052
v -0.0785398 -0.47036678 -0.1458303
v -0.041007504 0.118134916 -0.479396
v -0.035295084 0.26008523 -0.4218036
v -0.05980097 0.01876839 -0.4911902
v -0.022924282 -0.12715855 -0.47877216
v -0.0160776 0.062039632 -0.49161345
v -0.038535766 -0.06083166 -0.48995036
v -0.033826713 0.3283084 -0.37234816
v -0.01796082 -0.20463379 -0.45169246
v -0.0000297948 -0.3889771 -0.31056783
v -0.00195987 -0.25337532 -0.42732552
v 0.012866317 0.20904556 -0.45052186
v 0.015353128 -0.35233545 -0.35056862
v 0.02482959 -0.00930349 -0.49572048
v 0.014909662 -0.42209208 -0.2641177
v 0.030330427 0.30420423 -0.39181188
v 0.024141831 0.14065804 -0.47615302
v 0.030397406 -0.13898413 -0.47606102
v 0.06659586 -0.31842458 -0.37525403
v 0.021315208 -0.06668585 -0.4916854
v 0.06871121 0.12672094 -0.4755175
v 0.07392966 -0.19953984 -0.44955194
v 0.115150034 0.00022225981 -0.48306063
v 0.060267 -0.2625278 -0.41869956
v 0.09446807 -0.07019865 -0.482839
v 0.10814555 0.25153098 -0.41462988
v 0.11131936 -0.13466491 -0.46513346
v 0.13354456 0.19247107 -0.43980306
v 0.14607094 0.12059886 -0.46081623
v 0.14509395 -0.19047779 -0.4373617
v 0.13163857 -0.2549903 -0.40712866
v 0.17342472 -0.06750224 -0.462475
v 0.20842098 0.08309389 -0.44591373
v 0.20333877 -0.13007218 -0.43572238
v 0.18798676 -0.00958862 -0.4619614
v 0.20904633 0.1577968 -0.42607826
v 0.23699224 0.022903401 -0.43896228
v 0.26825982 0.06966972 -0.41594353
v -0.1985539 0.117390744 0.43829808
v -0.2783706 0.047966424 0.40501797
v -0.2367035 -0.012472744 0.43254107
v -0.15671913 -0.016534988 0.46827382
v -0.115841806 0.104033366 0.47065657
v -0.13425194 0.208763 0.4299608
v -0.11452052 -0.17672107 0.4477998
v -0.18272343 -0.1790711 0.42209166
v -0.15247118 -0.25650615 0.39430058
v -0.108824305 0.027751755 0.48364905
v -0.05606224 0.19775617 0.45081624
v -0.057063654 -0.28583118 0.40076655
v -0.13295442 -0.3156225 0.35948166
v -0.0515512 -0.21106231 0.44415024
v -0.13183789 -0.104609676 0.46544674
v -0.047572177 -0.108760625 0.48045444
v -0.07013527 -0.37552577 0.31805098
v -0.031684734 -0.007249988 0.4938646
v -0.035778325 0.093605176 0.48541152
v 0.01399659 -0.37024346 0.3321844
v 0.015646126 -0.31204432 0.3868804
v 0.007455755 -0.15524544 0.4704952
v 0.014750123 -0.42560947 0.25852704
v 0.021495014 0.17146799 0.4654826
v 0.02719655 -0.07135959 0.48989674
v 0.0299748 -0.26173332 0.4210614
v 0.023688653 0.22406654 0.4434745
v -0.0055783754 0.28329775 0.40883395
v 0.03824818 -0.0011246179 0.49467564
v 0.036687575 0.067366175 0.49013495
v 0.06956917 -0.21417607 0.44173622
v 0.071881495 0.1397846 0.4709706
v 0.08343142 -0.07874855 0.4814532
v 0.03759925 -0.4623004 0.18350026
v 0.086696036 -0.44437277 0.20871828
v 0.10922915 -0.39878827 0.27728662
v 0.0908671 0.22173296 0.43592718
v 0.15073073 0.015110426 0.47123674
v 0.11754775 0.08296566 0.47470602
v 0.043710038 0.34318036 0.35840398
v 0.12417385 0.2859112 0.38901716
v 0.09421329 -0.33621258 0.35655576
v 0.064908214 -0.48050365 0.120735414
v 0.10484354 -0.27569628 0.40081522
v 0.12264695 -0.1607151 0.45299697
v 0.12922587 -0.4567855 0.15480073
v 0.13403676 -0.101034656 0.4671114
v 0.14655517 0.1607399 0.44649872
v 0.14868599 -0.20218182 0.4290882
v 0.16054334 -0.3493299 0.31828034
v 0.14598444 -0.30806202 0.36430287
v 0.16352148 0.22654365 0.4122395
v 0.16754657 -0.038100895 0.4660241
v 0.15499958 0.3271143 0.34410164
v 0.13243575 0.38119546 0.29524222
v 0.16076894 -0.42764387 0.20124324
v 0.15726177 -0.25874335 0.3957715
v 0.21001856 0.089885354 0.44035006
v 0.20107716 0.25827298 0.37684914
v 0.20605442 -0.0999938 0.4410462
v 0.1963675 -0.28173766 0.3623584
v 0.18144426 0.38193867 0.26645672
v 0.19988194 -0.16882297 0.42344925
v 0.21809511 -0.23166463 0.38374904
v 0.20338309 -0.38932663 0.23710386
v 0.21862055 0.16062117 0.4170554
v 0.24009033 -0.29535744 0.32349867
v 0.22943161 -0.35007462 0.27325088
v 0.25362402 -0.03880451 0.42616504
v 0.24125391 0.29721883 0.32081544
v 0.19832298 -0.43095025 0.15694445
v 0.2424711 0.22020993 0.37687474
v 0.25827911 -0.13132086 0.40623114
v 0.2795171 -0.38416666 0.15712078
v 0.28308293 -0.19069666 0.36448985
v 0.27924618 -0.3524108 0.21939237
v 0.28884777 0.1371576 0.3823647
v 0.29606798 -0.30165708 0.2679131
v 0.3070499 0.0016903108 0.39246494
v 0.31387532 -0.23729995 0.31033435
v 0.30233565 0.23088644 0.32587153
v 0.3196616 -0.09972264 0.37264633
v 0.2975757 0.27751905 0.29251355
v 0.33430701 0.18692678 0.32337672
v 0.34226888 0.0692341 0.35721186
v 0.33479953 -0.3255813 0.18373334
v 0.36121193 0.21258348 0.27461785
v 0.33348557 0.2864907 0.2395475
v 0.3451213 -0.16090466 0.32646245
v 0.36326694 0.122312844 0.3229695
v 0.38172862 -0.052114896 0.3212677
v 0.36319476 -0.2535997 0.23648727
v 0.40047476 -0.17804828 0.24658896
v 0.3760877 0.2672202 0.19409066
v 0.391764 -0.27025706 0.16262786
v 0.40331748 -0.11610928 0.27827767
v 0.39778617 0.024522364 0.30680698
v 0.40758598 0.07840122 0.28371063
v 0.4098987 0.19359112 0.21514037
v 0.40303636 0.15751395 0.25530776
v 0.4200698 -0.21656272 0.17573532
v 0.434281 -0.048567444 0.25234282
v 0.43533635 0.028405476 0.2526849
v 0.43979952 0.09584761 0.22435822
v 0.45272046 -0.08061159 0.20689975
v 0.45130873 -0.16707402 0.15118527
v 0.4486315 0.15101527 0.16973127
v 0.46131802 0.018957285 0.20165628
v 0.46795353 0.077826045 0.16526827
v 0.47443745 -0.107887946 0.105253264
v 0.47522268 -0.037925806 0.15235344
v 0.47806063 0.020244943 0.14067197
v -0.14652991 0.36129653 -0.31043205
v -0.09729325 0.40503174 -0.27375346
v -0.098933764 0.35023376 -0.34065422
v -0.056595128 0.3815576 -0.3163318
v -0.033826713 0.3283084 -0.37234816
v -0.021897037 0.42049745 -0.2678047
v -0.055363677 0.44932163 -0.21323802
v -0.00043456137 0.37949914 -0.32330662
v -0.038618222 0.47809404 -0.14600554
v 0.017458273 0.45584816 -0.20377648
v 0.030330427 0.30420423 -0.39181188
v 0.04589488 0.48548266 -0.117357284
v 0.0682221 0.41926438 -0.26028782
v 0.07159251 0.36728978 -0.32827106
v 0.10550717 0.4895298 0.025474235
v 0.04230613 0.49995267 -0.0011013622
v 0.027150322 0.49331805 0.08393959
v 0.11777531 0.4640508 -0.14322071
v 0.106075 0.4796853 0.10365261
v 0.09978007 0.48892435 -0.056879725
v 0.12731911 0.31418335 -0.3657757
v 0.10814555 0.25153098 -0.41462988
v 0.15984258 0.4728754 0.04813213
v 0.18330856 0.36604643 -0.28202835
v 0.16191919 0.45424393 0.135085
v 0.07771164 0.45539194 0.19229808
v 0.12281976 0.42743644 0.22834633
v 0.17226528 0.41557974 -0.21653688
v 0.19388139 0.46124727 -0.026977947
v 0.13243575 0.38119546 0.29524222
v 0.18144426 0.38193867 0.26645672
v 0.22896321 0.2951316 -0.32993835
v 0.23211561 0.40022162 0.18858296
v 0.24464944 0.4163078 -0.12618911
v 0.13354456 0.19247107 -0.43980306
v 0.19916038 0.23223794 -0.39472124
v 0.22851649 0.43277732 0.105550766
v 0.20904633 0.1577968 -0.42607826
v 0.22523221 0.44655147 0.040066868
v 0.28445247 0.33736637 0.23315595
v 0.24974239 0.3887137 -0.1912097
v 0.24966288 0.22244692 -0.37138924
v 0.26586145 0.4231706 -0.021911133
v 0.282442 0.1416815 -0.38658208
v 0.20842098 0.08309389 -0.44591373
v 0.24125391 0.29721883 0.32081544
v 0.28886235 0.39793232 0.093495816
v 0.27852502 0.34094474 -0.2362282
v 0.2859601 0.40221208 -0.08300703
v 0.26825982 0.06966972 -0.41594353
v 0.32538855 0.21184944 -0.31473076
v 0.30591583 0.36374334 -0.15600412
v 0.3162112 0.28048316 -0.26720634
v 0.2975757 0.27751905 0.29251355
v 0.328919 0.37632784 0.00037823612
v 0.3222312 0.35375008 0.1443667
v 0.33348557 0.2864907 0.2395475
v 0.34177837 0.31454378 -0.18775043
v 0.34332243 0.13073596 -0.3405893
v 0.34994048 0.35184085 0.0660916
v 0.34068888 0.35545063 -0.08724745
v 0.37708536 0.30191863 -0.12948777
v 0.3760877 0.2672202 0.19409066
v 0.38010207 0.13057308 -0.29862872
v 0.38732892 0.22811258 -0.22114755
v 0.3732533 0.33340633 -0.0075222906
v 0.3898343 0.2879326 0.12659074
v 0.38732532 0.30832884 0.075311996
v 0.3951905 0.30336297 -0.04426256
v 0.41029763 0.28281608 0.041106243
v 0.41301277 0.2695109 -0.08881861
v 0.41444412 0.24166746 -0.14548907
v 0.4098987 0.19359112 0.21514037
v 0.42419165 0.2321265 0.13197699
v 0.41692075 0.13054663 -0.24796735
v 0.4262177 0.18872637 -0.18773727
v 0.4305676 0.25060964 -0.044133805
v 0.44699788 0.19585577 -0.11534535
v 0.44693437 0.22164616 0.034656767
v 0.4486315 0.15101527 0.16973127
v 0.44286722 0.091367595 -0.21611139
v 0.45615795 0.17426665 0.11484858
v 0.4639758 0.13211423 -0.12540938
v 0.46546355 0.17854796 0.0025923783
v 0.47130948 0.15396157 0.055028386
v 0.47681555 0.0940798 0.11824003
v 0.47339845 0.1466216 -0.049829096
v 0.46795353 0.077826045 0.16526827
v 0.47816905 0.10757036 -0.074813284
v 0.4775101 0.11930363 -0.012487759
v -0.068928085 -0.4912374 -0.068608485
v -0.0785398 -0.47036678 -0.1458303
v -0.009362357 -0.48856315 -0.10512254
v -0.0049946844 -0.4612612 -0.1880006
v -0.06613077 -0.4426179 -0.21678346
v 0.014909662 -0.42209208 -0.2641177
v 0.075592 -0.48687667 -0.082626
v 0.011253806 -0.5001918 -0.019714018
v 0.053591933 -0.46742553 -0.16579045
v 0.08725 -0.42306936 -0.24800023
v -0.0000297948 -0.3889771 -0.31056783
v 0.07321548 -0.3859977 -0.30645317
v 0.015353128 -0.35233545 -0.35056862
v 0.15262724 -0.4733695 -0.03506466
v 0.064908214 -0.48050365 0.120735414
v 0.014760215 -0.49736091 0.05698598
v 0.089154124 -0.4900935 0.04435739
v 0.06659586 -0.31842458 -0.37525403
v 0.112615 -0.45846152 -0.16232015
v 0.13163857 -0.2549903 -0.40712866
v 0.060267 -0.2625278 -0.41869956
v 0.07392966 -0.19953984 -0.44955194
v 0.14272079 -0.3691804 -0.30333808
v 0.15667771 -0.46619192 0.085765734
v 0.1601142 -0.41184506 -0.23033376
v 0.12922587 -0.4567855 0.15480073
v 0.17485017 -0.44490597 -0.14492044
v 0.1802133 -0.31223282 -0.34431684
v 0.19087464 -0.26389202 -0.37884635
v 0.16076894 -0.42764387 0.20124324
v 0.19832298 -0.43095025 0.15694445
v 0.22261992 -0.20921531 -0.394798
v 0.14509395 -0.19047779 -0.4373617
v 0.21703148 -0.44980037 0.026595764
v 0.20333877 -0.13007218 -0.43572238
v 0.21551202 -0.37327388 -0.25090343
v 0.25845402 -0.41849577 -0.08643272
v 0.18798676 -0.00958862 -0.4619614
v 0.26333842 -0.054556318 -0.41929454
v 0.17342472 -0.06750224 -0.462475
v 0.2439854 -0.40383694 -0.16518867
v 0.2565823 -0.27111104 -0.33269784
v 0.24778228 -0.42091116 0.11023022
v 0.27361867 -0.3201399 -0.26877838
v 0.23699224 0.022903401 -0.43896228
v 0.2795171 -0.38416666 0.15712078
v 0.27541667 -0.13504478 -0.3927678
v 0.275583 -0.35921943 -0.2121212
v 0.29211825 -0.4049678 0.04650267
v 0.28658357 -0.4112884 -0.021729818
v 0.3105603 -0.19083972 -0.34157148
v 0.2947108 -0.0011070181 -0.40310797
v 0.26825982 0.06966972 -0.41594353
v 0.30254057 -0.3708513 -0.14910485
v 0.282442 0.1416815 -0.38658208
v 0.341355 0.046375655 -0.36143866
v 0.33807322 -0.3161996 -0.19224171
v 0.33824447 -0.2426417 -0.27939323
v 0.3398214 -0.35029972 -0.11437235
v 0.35307392 -0.33897638 0.10950563
v 0.33951452 -0.06278862 -0.36182693
v 0.34940374 -0.36173704 0.009779758
v 0.35006425 -0.3576493 -0.039374895
v 0.3594643 -0.27240494 -0.22042023
v 0.34332243 0.13073596 -0.3405893
v 0.3729935 -0.10436932 -0.31777456
v 0.33479953 -0.3255813 0.18373334
v 0.37678507 -0.16609229 -0.28698453
v 0.38802665 -0.2968383 -0.11493404
v 0.391764 -0.27025706 0.16262786
v 0.39127836 -0.21056522 -0.2348811
v 0.38674933 -0.028273303 -0.317328
v 0.39063805 -0.31204328 0.059036266
v 0.38010207 0.13057308 -0.29862872
v 0.4074778 0.03931918 -0.2901677
v 0.42402422 -0.24880612 0.10748917
v 0.41700011 -0.2815713 -0.0056406665
v 0.41067696 -0.24500479 -0.15586953
v 0.42414594 -0.13571951 -0.23347151
v 0.42440793 -0.03353796 -0.26582927
v 0.41692075 0.13054663 -0.24796735
v 0.43718183 -0.17604105 -0.17698455
v 0.44286722 0.091367595 -0.21611139
v 0.43834454 -0.23647913 -0.07374523
v 0.4200698 -0.21656272 0.17573532
v 0.44572437 -0.2317142 0.046916235
v 0.44939172 -0.19755992 -0.11529079
v 0.45132363 0.027073659 -0.21996057
v 0.45539117 -0.09973863 -0.18808961
v 0.45130873 -0.16707402 0.15118527
v 0.46075627 -0.20538163 -0.0076901163
v 0.4553355 -0.026964776 -0.21083552
v 0.46705127 -0.17960441 -0.058309115
v 0.46689653 -0.13773231 -0.12241674
v 0.472017 -0.051873315 -0.15882199
v 0.46740806 -0.17420907 0.07799201
v 0.47112334 0.030786863 -0.16387972
v 0.4639758 0.13211423 -0.12540938
v 0.46808207 -0.039544985 0.04669168
v 0.46593902 -0.029313304 -0.006745441
v 0.46606186 0.009713518 0.024751337
v 0.47606722 -0.16083637 0.030048238
v 0.47078472 0.05136782 -0.029958356
v 0.4717683 -0.0015739036 -0.058808792
v 0.47668552 -0.01953186 0.08490184
v 0.4705304 0.08350521 0.012069447
v 0.47081375 -0.051126797 -0.06137984
v 0.47980732 0.08503171 0.0613139
v 0.47837752 -0.093135014 0.027880676
v 0.47407472 -0.081266575 -0.11321235
v 0.47527003 0.060428564 -0.10862657
v 0.47443745 -0.107887946 0.105253264
v 0.47280103 -0.07891063 0.08470478
v 0.4775101 0.11930363 -0.012487759
v 0.47812772 -0.082017794 -0.045348637
v 0.47816905 0.10757036 -0.074813284
v 0.47877422 -0.013381502 -0.10365968
v 0.47980934 -0.1333122 -0.059282176
v 0.47681555 0.0940798 0.11824003
v 0.46795353 0.077826045 0.16526827
v 0.47806063 0.020244943 0.14067197
v 0.47522268 -0.037925806 0.15235344
v 0.47130948 0.15396157 0.055028386
vt 0.78834665 0.0010330081
vt 0.7648974 0.038399994
vt 0.75338167 0.00089019537
vt 0.8090944 0.032726824
vt 0.6992113 0.017967999
vt 0.72125494 0.04352367
vt 0.74168235 0.050128758
vt 0.7997192 0.0644632
vt 0.6898194 0.04787743
vt 0.763908 0.094796956
vt 0.73576915 0.075169444
vt 0.8540356 0.0043728948
vt 0.86660814 0.044178903
vt 0.6992635 0.08190209
vt 0.8377484 0.06375313
vt 0.6673993 0.0807395
vt 0.81062865 0.09755671
vt 0.7205822 0.10902232
vt 0.83841896 0.10260105
vt 0.7497543 0.12569487
vt 0.68071294 0.111123204
vt 0.8762181 0.10611737
vt 0.8029364 0.12981051
vt 0.90560776 0.06962377
vt 0.78246117 0.14174438
vt 0.90832496 0.025947273
vt 0.8236165 0.12280482
vt 0.69688773 0.14679253
vt 0.7243696 0.15656304
vt 0.9464006 0.055219233
vt 0.9340069 0.0023996234
vt 0.6708591 0.14595169
vt 0.8472527 0.14408445
vt 0.76115656 0.18035126
vt 0.9656895 0.027524114
vt 0.81542814 0.16525805
vt 0.9104562 0.11271608
vt 0.93646437 0.099542975
vt 0.7891354 0.19051802
vt 0.64635605 0.15999222
vt 0.6776152 0.17943662
vt 0.7214745 0.20333517
vt 0.9796345 0.07843274
vt 0.8809902 0.15047497
vt 0.9088958 0.13683838
vt 0.8407886 0.17955339
vt 0.656414 0.19240236
vt 0.8691396 0.18015587
vt 0.8081511 0.20682234
vt 0.93211365 0.13284123
vt 0.9533358 0.117884696
vt 0.89075863 0.18131518
vt 0.6934106 0.22211802
vt 0.9728925 0.13296753
vt 0.7552806 0.22856265
vt 0.94048136 0.15608156
vt 0.84796137 0.20701206
vt 0.6496686 0.22119683
vt 0.91207844 0.17931211
vt 0.6702729 0.24951768
vt 0.7865787 0.23251021
vt 0.8669821 0.22123468
vt 0.82326615 0.23348975
vt 0.7287185 0.2504452
vt 0.9446086 0.18007267
vt 0.8989685 0.22819674
vt 0.9988794 0.16045058
vt 0.9334422 0.20615649
vt 0.70036906 0.2725798
vt 0.771693 0.2763226
vt 0.8044048 0.26308715
vt 0.73145366 0.28069586
vt 0.83575183 0.2591381
vt 0.97616076 0.2068255
vt 0.8660646 0.26032424
vt 0.83082974 0.29408002
vt 0.923847 0.24120647
vt 0.956407 0.24608755
vt 0.8924537 0.26501012
vt 0.7968307 0.30957228
vt 0.7480879 0.31943226
vt 0.8835626 0.299788
vt 0.92472166 0.27453542
vt 0.77650106 0.3410468
vt 0.9089856 0.3122102
vt 0.8505617 0.32708108
vt 0.9428712 0.30108225
vt 0.65039456 0.48682696
vt 0.7055492 0.501237
vt 0.6733142 0.52050406
vt 0.7152547 0.5493645
vt 0.7011689 0.43273127
vt 0.6305163 0.5366363
vt 0.7561678 0.45035827
vt 0.64797646 0.4343235
vt 0.76414 0.5166264
vt 0.65158516 0.56722903
vt 0.6084081 0.5066623
vt 0.7558845 0.62024266
vt 0.68899035 0.6066175
vt 0.595661 0.45728064
vt 0.62966615 0.5964558
vt 0.5953255 0.5452195
vt 0.6030545 0.5747034
vt 0.7836931 0.39089692
vt 0.5852178 0.4849065
vt 0.6184577 0.39404762
vt 0.5706108 0.50357574
vt 0.57460266 0.52358097
vt 0.57210016 0.43148792
vt 0.69705373 0.35464025
vt 0.5655412 0.4707793
vt 0.6173701 0.33678746
vt 0.57613397 0.56762624
vt 0.57525176 0.38246226
vt 0.5545925 0.49297595
vt 0.56496423 0.5447858
vt 0.5941735 0.6013463
vt 0.5529925 0.5187449
vt 0.7156148 0.2865404
vt 0.53986067 0.413633
vt 0.54352075 0.47130895
vt 0.5386996 0.4527545
vt 0.5762697 0.5913091
vt 0.5443054 0.5374195
vt 0.627012 0.27645868
vt 0.5583661 0.5621458
vt 0.53678954 0.48858213
vt 0.5336962 0.35931748
vt 0.5647228 0.30112982
vt 0.54836106 0.58147866
vt 0.52327836 0.4742564
vt 0.53124887 0.5108099
vt 0.52496666 0.52623695
vt 0.53589 0.5545825
vt 0.5188273 0.4938671
vt 0.5052632 0.38939548
vt 0.5089876 0.44752574
vt 0.5098197 0.31093162
vt 0.5095451 0.51197547
vt 0.49177533 0.34905195
vt 0.53008854 0.5766996
vt 0.47502613 0.27357668
vt 0.49730358 0.4735403
vt 0.5024136 0.5507398
vt 0.4802107 0.42577034
vt 0.52360606 0.5956524
vt 0.44622365 0.32757127
vt 0.51209676 0.56518304
vt 0.49952033 0.52867424
vt 0.45756927 0.3783008
vt 0.487453 0.49821573
vt 0.47905758 0.45817983
vt 0.48982882 0.51272196
vt 0.4768354 0.4835431
vt 0.51173127 0.5817702
vt 0.44255328 0.41581315
vt 0.4663476 0.46839428
vt 0.4429812 0.4457525
vt 0.48364675 0.52661437
vt 0.47013414 0.5099359
vt 0.4951156 0.57854927
vt 0.39412537 0.35142052
vt 0.48581553 0.5408277
vt 0.40581307 0.39482254
vt 0.4724559 0.53026175
vt 0.4555822 0.4797213
vt 0.4462816 0.46672773
vt 0.48293558 0.5560019
vt 0.45103115 0.50328034
vt 0.44014397 0.4905311
vt 0.41579285 0.4235741
vt 0.459158 0.5191051
vt 0.46969563 0.55252653
vt 0.47529307 0.5679105
vt 0.48220158 0.5813775
vt 0.45868456 0.5375492
vt 0.44516334 0.5223566
vt 0.4580526 0.56459373
vt 0.43208584 0.51494414
vt 0.45193207 0.55205524
vt 0.46718833 0.5777144
vt 0.4474304 0.5381948
vt 0.43676338 0.5318722
vt 0.4381305 0.545155
vt 0.7558845 0.62024266
vt 0.7117631 0.65460914
vt 0.68899035 0.6066175
vt 0.7757875 0.6759548
vt 0.6515255 0.65891886
vt 0.62966615 0.5964558
vt 0.70784104 0.7226764
vt 0.60922337 0.6218953
vt 0.5941735 0.6013463
vt 0.7550753 0.7515463
vt 0.67145944 0.70301867
vt 0.6151454 0.66491663
vt 0.5762697 0.5913091
vt 0.5772504 0.6199019
vt 0.5854578 0.6496314
vt 0.5657291 0.6052713
vt 0.6679828 0.7625898
vt 0.62792873 0.71624875
vt 0.54836106 0.58147866
vt 0.71413183 0.80941415
vt 0.7819518 0.81728697
vt 0.5400551 0.6077181
vt 0.55439574 0.6236451
vt 0.5541519 0.63982725
vt 0.59654707 0.7124266
vt 0.73835546 0.8801474
vt 0.5764189 0.6840819
vt 0.64665043 0.7924896
vt 0.6706636 0.8814866
vt 0.6016351 0.7530345
vt 0.52360606 0.5956524
vt 0.56430906 0.7155409
vt 0.53344774 0.6234305
vt 0.6082706 0.85369927
vt 0.5467558 0.6544548
vt 0.5495803 0.6819269
vt 0.5758543 0.78447723
vt 0.5701927 0.7420016
vt 0.5312533 0.640256
vt 0.51647913 0.617752
vt 0.6226589 0.95297515
vt 0.5293493 0.65953106
vt 0.51982236 0.6804707
vt 0.52080876 0.6306567
vt 0.5457536 0.7537582
vt 0.50399256 0.60276884
vt 0.516627 0.649432
vt 0.54521364 0.96834856
vt 0.5581567 0.83465827
vt 0.5433484 0.88581145
vt 0.51173127 0.5817702
vt 0.5251894 0.7163366
vt 0.4951156 0.57854927
vt 0.5351716 0.7976517
vt 0.50939995 0.63671297
vt 0.5026601 0.6227252
vt 0.5227956 0.8257226
vt 0.52313495 0.7471206
vt 0.5060921 0.86148137
vt 0.5075388 0.66702205
vt 0.4974474 0.91662014
vt 0.51852757 0.7675404
vt 0.49217877 0.63670474
vt 0.48431733 0.5956893
vt 0.48927864 0.6110042
vt 0.49968562 0.6518111
vt 0.49074748 0.6216765
vt 0.49953184 0.7937742
vt 0.48220158 0.5813775
vt 0.4968726 0.7565569
vt 0.4811189 0.82226133
vt 0.50399345 0.72318786
vt 0.49208993 0.6831424
vt 0.48946658 0.7364852
vt 0.49714333 0.700435
vt 0.4605904 0.8672498
vt 0.48922548 0.6641591
vt 0.47751412 0.6182154
vt 0.48438978 0.65281117
vt 0.46801364 0.78920245
vt 0.47673985 0.62875766
vt 0.47914127 0.71390206
vt 0.47223797 0.60868126
vt 0.43655267 0.8318346
vt 0.47186828 0.7602422
vt 0.47911444 0.68051064
vt 0.46816552 0.63805073
vt 0.4810853 0.69863296
vt 0.45895714 0.7508848
vt 0.46903363 0.6659998
vt 0.45442998 0.711615
vt 0.47115007 0.651544
vt 0.46283796 0.69553417
vt 0.42072642 0.7898934
vt 0.46028405 0.6799294
vt 0.42641073 0.7644183
vt 0.4349856 0.74100447
vt 0.45364988 0.6663082
vt 0.45659655 0.6522328
vt 0.44351122 0.69192207
vt 0.4218003 0.72389585
vt 0.43929738 0.67620397
vt 0.43634492 0.703776
vt 0.4097162 0.7421958
vt 0.42109922 0.70644075
vt 0.40705454 0.7127567
vt 0.3718948 0.24489462
vt 0.47502613 0.27357668
vt 0.44622365 0.32757127
vt 0.39412537 0.35142052
vt 0.3197553 0.30139482
vt 0.2604034 0.2172764
vt 0.41579285 0.4235741
vt 0.44255328 0.41581315
vt 0.4429812 0.4457525
vt 0.35331514 0.3446294
vt 0.2107255 0.2871837
vt 0.42059785 0.4652875
vt 0.4462816 0.46672773
vt 0.4039546 0.44500244
vt 0.40581307 0.39482254
vt 0.37772268 0.41635984
vt 0.44014397 0.4905311
vt 0.33932903 0.3884197
vt 0.29051593 0.35334468
vt 0.4208841 0.49793792
vt 0.40901455 0.48266566
vt 0.37507704 0.44233906
vt 0.43208584 0.51494414
vt 0.21948475 0.36883175
vt 0.34567267 0.426798
vt 0.39553487 0.47276533
vt 0.17279212 0.36913323
vt 0.09828992 0.35427904
vt 0.31691173 0.4142372
vt 0.28559664 0.39877284
vt 0.37715858 0.47031808
vt 0.23798218 0.40638942
vt 0.33755943 0.44581032
vt 0.43676338 0.5318722
vt 0.42523283 0.53161365
vt 0.41167343 0.52062297
vt 0.18071176 0.42119813
vt 0.29215416 0.4568318
vt 0.2655859 0.4362291
vt 0.0461167 0.43563652
vt 0.13349798 0.4671688
vt 0.4002295 0.5015915
vt 0.4381305 0.545155
vt 0.38564432 0.49042696
vt 0.3544556 0.47257483
vt 0.4237099 0.5446379
vt 0.3360377 0.46568477
vt 0.22357236 0.45092618
vt 0.36171034 0.48645335
vt 0.3944154 0.5175086
vt 0.38700822 0.5055104
vt 0.1851641 0.4717605
vt 0.3111567 0.4687804
vt 0.112973645 0.51535904
vt 0.055156913 0.5516886
vt 0.41276062 0.539556
vt 0.37445873 0.49844116
vt 0.2588872 0.48040968
vt 0.17260161 0.5052099
vt 0.3278978 0.48832983
vt 0.37543806 0.51169163
vt 0.09541948 0.58657026
vt 0.347548 0.49493015
vt 0.36161548 0.50885
vt 0.39964798 0.5372676
vt 0.22719352 0.48975188
vt 0.3749714 0.52484506
vt 0.3884118 0.5333214
vt 0.30648997 0.49964714
vt 0.16393414 0.5490741
vt 0.41120207 0.5500748
vt 0.2008271 0.5155437
vt 0.33309153 0.50749725
vt 0.39545703 0.55740863
vt 0.34729895 0.5212475
vt 0.3866923 0.54752964
vt 0.2439359 0.52005494
vt 0.37358007 0.5412228
vt 0.29326212 0.5187769
vt 0.35751173 0.535931
vt 0.20969531 0.5518362
vt 0.32261786 0.52484304
vt 0.19201756 0.5707458
vt 0.2326747 0.55359143
vt 0.27342436 0.5360759
vt 0.37964943 0.55897254
vt 0.23164977 0.57684654
vt 0.20323057 0.5982253
vt 0.33840334 0.5374484
vt 0.25885344 0.5529073
vt 0.31118628 0.5463794
vt 0.3615383 0.55435616
vt 0.3441272 0.5586391
vt 0.22584192 0.61356854
vt 0.3677006 0.56905925
vt 0.32885227 0.5553805
vt 0.2917482 0.5553327
vt 0.27855635 0.5660384
vt 0.25138736 0.5977596
vt 0.25703773 0.5809849
vt 0.35568967 0.5715654
vt 0.31476286 0.567425
vt 0.29588026 0.5725751
vt 0.28081337 0.58598965
vt 0.32547587 0.57620305
vt 0.3473924 0.5810817
vt 0.2730206 0.60684454
vt 0.30343413 0.58558226
vt 0.29321438 0.6000687
vt 0.33957604 0.5951316
vt 0.32096696 0.5919844
vt 0.3094318 0.6000213
vt 0.54521364 0.96834856
vt 0.4407371 0.9939126
vt 0.4974474 0.91662014
vt 0.4426144 0.926715
vt 0.4605904 0.8672498
vt 0.3772301 0.9392103
vt 0.3380334 0.9971039
vt 0.41104603 0.8919903
vt 0.25699714 0.9988714
vt 0.30247968 0.93378955
vt 0.43655267 0.8318346
vt 0.21232758 0.92108095
vt 0.33832818 0.8800536
vt 0.3846302 0.85195535
vt 0.10490278 0.8132308
vt 0.084733196 0.87256914
vt 0.012838446 0.82627344
vt 0.24064313 0.86036605
vt 0.05483363 0.757771
vt 0.16273248 0.8608481
vt 0.3914186 0.8087887
vt 0.42072642 0.7898934
vt 0.12320061 0.7668359
vt 0.33748382 0.80660254
vt 0.087378204 0.7067377
vt 0.0008902077 0.68326443
vt 0.035844527 0.63302803
vt 0.2973423 0.82302094
vt 0.18193097 0.7840627
vt 0.055156913 0.5516886
vt 0.09541948 0.58657026
vt 0.36130303 0.7730101
vt 0.13133125 0.6446635
vt 0.25494733 0.77685803
vt 0.42641073 0.7644183
vt 0.39513755 0.7636889
vt 0.1429407 0.70095456
vt 0.4097162 0.7421958
vt 0.16386856 0.7381132
vt 0.16949631 0.60838073
vt 0.28952947 0.7802069
vt 0.3812202 0.7503448
vt 0.20887956 0.7429293
vt 0.3907788 0.72570974
vt 0.4218003 0.72389585
vt 0.16393414 0.5490741
vt 0.18075071 0.6863826
vt 0.31583384 0.76434004
vt 0.24404076 0.74926525
vt 0.40705454 0.7127567
vt 0.35865277 0.7299545
vt 0.28267974 0.7501758
vt 0.33507067 0.7432337
vt 0.19201756 0.5707458
vt 0.22794548 0.70807415
vt 0.19237249 0.65039504
vt 0.20323057 0.5982253
vt 0.30434898 0.7349595
vt 0.3749639 0.71158475
vt 0.21981464 0.67718434
vt 0.26359475 0.7246968
vt 0.2909872 0.7145818
vt 0.22584192 0.61356854
vt 0.36333537 0.7027153
vt 0.32929328 0.7123313
vt 0.24882838 0.692708
vt 0.23321204 0.64065874
vt 0.23725769 0.66136783
vt 0.26840895 0.69266737
vt 0.25494778 0.66440564
vt 0.288886 0.6935379
vt 0.3082871 0.6987971
vt 0.25138736 0.5977596
vt 0.25327972 0.6287321
vt 0.35053647 0.6925489
vt 0.32781225 0.6939059
vt 0.2838596 0.6779532
vt 0.3111905 0.68094224
vt 0.2755699 0.65263283
vt 0.2730206 0.60684454
vt 0.34950098 0.6789358
vt 0.2748779 0.62432843
vt 0.32539544 0.6701529
vt 0.29254434 0.6520132
vt 0.28989625 0.63598037
vt 0.29533964 0.61306465
vt 0.30897027 0.657647
vt 0.29321438 0.6000687
vt 0.32097128 0.6560156
vt 0.3084826 0.6455865
vt 0.47529307 0.5679105
vt 0.48220158 0.5813775
vt 0.46718833 0.5777144
vt 0.47147673 0.5928504
vt 0.48431733 0.5956893
vt 0.47223797 0.60868126
vt 0.45146713 0.57907915
vt 0.4580526 0.56459373
vt 0.4601445 0.591884
vt 0.4587993 0.6091302
vt 0.47751412 0.6182154
vt 0.4640299 0.6205912
vt 0.47673985 0.62875766
vt 0.4356459 0.57660764
vt 0.4381305 0.545155
vt 0.45193207 0.55205524
vt 0.44043848 0.5594598
vt 0.46816552 0.63805073
vt 0.45009488 0.5947953
vt 0.45659655 0.6522328
vt 0.47115007 0.651544
vt 0.46903363 0.6659998
vt 0.45153815 0.62406313
vt 0.42558497 0.5579494
vt 0.4454559 0.6102971
vt 0.4237099 0.5446379
vt 0.43875003 0.5959398
vt 0.44585443 0.6371104
vt 0.44437265 0.6479659
vt 0.41276062 0.539556
vt 0.41120207 0.5500748
vt 0.43725955 0.6580555
vt 0.45364988 0.6663082
vt 0.42025024 0.5718524
vt 0.43929738 0.67620397
vt 0.43658632 0.61851317
vt 0.42083535 0.59288114
vt 0.43634492 0.703776
vt 0.42106232 0.68699896
vt 0.44351122 0.69192207
vt 0.42782733 0.6047507
vt 0.4306388 0.6417559
vt 0.4071474 0.56168306
vt 0.42616847 0.6278642
vt 0.42109922 0.70644075
vt 0.39545703 0.55740863
vt 0.42311537 0.66923493
vt 0.4240459 0.6162302
vt 0.40497217 0.57521564
vt 0.4115745 0.5850076
vt 0.417352 0.65392464
vt 0.40864095 0.6943768
vt 0.40705454 0.7127567
vt 0.4162731 0.60724187
vt 0.3907788 0.72570974
vt 0.39007884 0.69644904
vt 0.41074896 0.61921525
vt 0.41210395 0.6390708
vt 0.40701887 0.6051976
vt 0.38543606 0.57202053
vt 0.40325394 0.6761701
vt 0.39667192 0.5863589
vt 0.40032786 0.5940347
vt 0.4066895 0.62799984
vt 0.3749639 0.71158475
vt 0.39798307 0.663044
vt 0.37964943 0.55897254
vt 0.40059832 0.64997995
vt 0.39620206 0.6113603
vt 0.3677006 0.56905925
vt 0.39815316 0.6373006
vt 0.38746953 0.6747414
vt 0.3824185 0.58384544
vt 0.36333537 0.7027153
vt 0.37228593 0.6819646
vt 0.36649358 0.58162665
vt 0.38167912 0.5973076
vt 0.39196694 0.6227022
vt 0.38600186 0.64642316
vt 0.3772272 0.6656666
vt 0.35053647 0.6925489
vt 0.38339612 0.6335571
vt 0.34950098 0.6789358
vt 0.38032997 0.61216426
vt 0.35568967 0.5715654
vt 0.36771014 0.59396404
vt 0.3785204 0.6223856
vt 0.35963792 0.6679793
vt 0.37310037 0.6445663
vt 0.3473924 0.5810817
vt 0.36791584 0.6054235
vt 0.36603788 0.65808344
vt 0.36883357 0.615941
vt 0.369793 0.63019836
vt 0.36149025 0.6464949
vt 0.35439664 0.59420687
vt 0.34935957 0.6592334
vt 0.32539544 0.6701529
vt 0.33249938 0.61300755
vt 0.33699965 0.62407964
vt 0.32560542 0.6229934
vt 0.3564447 0.60365987
vt 0.32489488 0.6389641
vt 0.3388362 0.6369665
vt 0.32406923 0.60746205
vt 0.31238294 0.63505816
vt 0.34793216 0.63104105
vt 0.3048783 0.62466747
vt 0.34479573 0.610675
vt 0.35978827 0.63562137
vt 0.33530414 0.654714
vt 0.33957604 0.5951316
vt 0.3360128 0.601758
vt 0.3084826 0.6455865
vt 0.3512871 0.6245804
vt 0.32097128 0.6560156
vt 0.3473963 0.6430952
vt 0.36127746 0.6210501
vt 0.29533964 0.61306465
vt 0.29321438 0.6000687
vt 0.3094318 0.6000213
vt 0.32096696 0.5919844
vt 0.28989625 0.63598037
vn -0.9689513 0.21293576 0.12566552
vn -0.9114863 0.4091326 0.04246433
vn -0.9736544 0.21376584 -0.07938077
vn -0.90813583 0.31970078 0.27033454
vn -0.94972676 0.18938528 -0.2493035
vn -0.91779476 0.33085164 -0.21952207
vn -0.93369395 0.34412825 -0.09895138
vn -0.8550273 0.4974506 0.14653054
vn -0.8563001 0.32093558 -0.40466097
vn -0.8012087 0.59824735 0.0128361555
vn -0.8451533 0.51463234 -0.14446287
vn -0.8983593 0.18913276 0.39645848
vn -0.7933188 0.35052493 0.49777254
vn -0.81404984 0.4737489 -0.33598348
vn -0.79255366 0.47241658 0.38559207
vn -0.76574594 0.40838715 -0.49684316
vn -0.7768435 0.5986636 0.19523324
vn -0.73097175 0.631162 -0.25945097
vn -0.68898 0.59859335 0.40864724
vn -0.6647547 0.73719 -0.12104583
vn -0.6960775 0.56770116 -0.4395355
vn -0.6462117 0.55037194 0.5286787
vn -0.6883714 0.71291184 0.13379641
vn -0.6614607 0.38025433 0.6464336
vn -0.6175195 0.7859717 0.03029992
vn -0.7319435 0.2368588 0.6388714
vn -0.6276211 0.7215028 0.2924474
vn -0.57944024 0.7183754 -0.38494915
vn -0.5734242 0.779267 -0.2528391
vn -0.59603536 0.24494866 0.76468426
vn -0.71887183 0.08235943 0.69024646
vn -0.58509445 0.6190614 -0.52385825
vn -0.5499401 0.7273744 0.41047823
vn -0.50623846 0.8527214 -0.12879753
vn -0.5501657 0.11961025 0.82644486
vn -0.51796323 0.8298154 0.20765488
vn -0.557254 0.49618188 0.6657864
vn -0.5202382 0.3620645 0.7734736
vn -0.44851956 0.893458 0.023727339
vn -0.52011627 0.56094736 -0.644063
vn -0.4692795 0.75189006 -0.46307462
vn -0.42825285 0.8469214 -0.3151565
vn -0.41245434 0.19438761 0.8899971
vn -0.48757592 0.6875186 0.5381337
vn -0.4273092 0.6342513 0.6443075
vn -0.4221829 0.849582 0.31618348
vn -0.3909834 0.6922881 -0.60652214
vn -0.37358743 0.80871975 0.4543179
vn -0.36160332 0.91407233 0.18361586
vn -0.4106037 0.5163588 0.75151724
vn -0.36957884 0.39902806 0.8391592
vn -0.28863305 0.7698077 0.56928647
vn -0.3224813 0.82666653 -0.46111628
vn -0.2529828 0.376336 0.89127487
vn -0.315078 0.93665445 -0.15298447
vn -0.25575113 0.5515798 0.79394656
vn -0.3008869 0.8970097 0.32379124
vn -0.32949594 0.70901215 -0.6234855
vn -0.25355867 0.70404464 0.66334695
vn -0.21338908 0.8276293 -0.5191289
vn -0.25368124 0.9672874 -0.0009188935
vn -0.18614246 0.88705194 0.4224806
vn -0.21770987 0.9520349 0.21501617
vn -0.23103343 0.9188316 -0.31995633
vn -0.16200036 0.56732947 0.807399
vn -0.11579189 0.8240632 0.5545377
vn -0.13347848 0.40871257 0.9028497
vn -0.09046873 0.7006427 0.70775366
vn -0.13129759 0.88849425 -0.43970314
vn -0.07185681 0.9895974 -0.124633744
vn -0.08176743 0.994711 0.06216236
vn -0.05753926 0.95768034 -0.28202403
vn -0.094400115 0.960536 0.26164702
vn 0.00615134 0.5646041 0.82533896
vn -0.019433532 0.92906344 0.36940965
vn 0.068425246 0.9777628 0.19823688
vn -0.0007223127 0.76498216 0.6440511
vn 0.106304444 0.67537296 0.7297745
vn 0.036006574 0.8690256 0.49345523
vn 0.057481892 0.9983441 -0.00219536
vn 0.07601739 0.9674201 -0.24149469
vn 0.14345609 0.9189272 0.36741418
vn 0.11824134 0.8120481 0.57148653
vn 0.1902366 0.97375023 -0.124981955
vn 0.28689554 0.8487405 0.44421896
vn 0.19382672 0.95540655 0.22277682
vn 0.22955436 0.74838173 0.6222778
vn -0.9850571 -0.10741607 0.1346265
vn -0.9953923 0.069677696 0.06587206
vn -0.9954487 -0.06841193 -0.06634557
vn -0.98539805 0.048467215 -0.16322243
vn -0.9605828 0.104614384 0.25755885
vn -0.9762251 -0.19015975 -0.10403797
vn -0.9689513 0.21293576 0.12566552
vn -0.9555707 -0.060898498 0.2884025
vn -0.9736544 0.21376584 -0.07938077
vn -0.9679834 -0.11316337 -0.22405843
vn -0.9565766 -0.2826919 0.07103884
vn -0.94972676 0.18938528 -0.2493035
vn -0.9342469 0.020375017 -0.35604432
vn -0.9372291 -0.1928536 0.29053238
vn -0.90319103 -0.12537985 -0.41051894
vn -0.9184482 -0.37735558 -0.11855634
vn -0.9097411 -0.30750096 -0.27895206
vn -0.90813583 0.31970078 0.27033454
vn -0.9218153 -0.3314106 0.20105621
vn -0.90826344 -0.02065801 0.4178885
vn -0.882367 -0.4484405 0.14258198
vn -0.8799441 -0.47507155 0.002333051
vn -0.856257 -0.24023296 0.45728773
vn -0.8983593 0.18913276 0.39645848
vn -0.85872614 -0.38172284 0.341873
vn -0.8257046 0.11907191 0.5513926
vn -0.82630616 -0.488783 -0.27983797
vn -0.80977774 -0.09538688 0.5789313
vn -0.80988216 -0.5402503 0.2285181
vn -0.8334524 -0.54075426 -0.11376272
vn -0.8354427 -0.31153804 -0.45274666
vn -0.78385055 -0.61348 0.096024215
vn -0.7933188 0.35052493 0.49777254
vn -0.74322194 -0.2876369 0.6040581
vn -0.787762 -0.49242222 0.37006947
vn -0.76797736 -0.39829287 0.5015711
vn -0.78382206 -0.4668663 -0.40946156
vn -0.74569404 -0.6651115 -0.039586794
vn -0.7319435 0.2368588 0.6388714
vn -0.74125355 -0.6343855 -0.21931301
vn -0.7467389 -0.5934133 0.3004026
vn -0.72417676 -0.11691524 0.6796314
vn -0.71887183 0.08235943 0.69024646
vn -0.67533743 -0.62635124 -0.3893629
vn -0.6831132 -0.56545264 0.46219006
vn -0.71834105 -0.66714615 0.19723628
vn -0.62019825 -0.78344095 0.03967842
vn -0.63044894 -0.7645853 -0.13395308
vn -0.620034 -0.69573027 0.36265305
vn -0.63714254 -0.29052657 0.71389335
vn -0.6516708 -0.44534904 0.6139946
vn -0.6282816 -0.005289373 0.77796805
vn -0.57448715 -0.77717316 0.25683922
vn -0.58802456 -0.12426702 0.7992402
vn -0.57870215 -0.75242233 -0.3145862
vn -0.5501657 0.11961025 0.82644486
vn -0.57456434 -0.64681906 0.50149876
vn -0.4855225 -0.8720506 -0.06160932
vn -0.52358854 -0.40397134 0.7501081
vn -0.48980635 -0.7195668 -0.4922533
vn -0.4644225 -0.0031905654 0.885608
vn -0.48912692 -0.8508047 -0.19205792
vn -0.50794995 -0.8527753 0.12149545
vn -0.4701113 -0.21821138 0.8552071
vn -0.501617 -0.76114136 0.41114992
vn -0.49509388 -0.55180687 0.67111194
vn -0.4283297 -0.8493066 0.30856442
vn -0.39019194 -0.75060135 0.5332428
vn -0.41121966 -0.82944417 -0.3780486
vn -0.40059623 -0.35041216 0.8466014
vn -0.39411032 -0.616906 0.6812518
vn -0.32874727 -0.4953463 0.8040878
vn -0.3883815 -0.8933769 0.2259148
vn -0.32420698 -0.8453922 0.4245018
vn -0.32039046 -0.9047754 -0.28059134
vn -0.3197553 -0.035066277 0.9468511
vn -0.3469191 -0.9337273 0.088320255
vn -0.3085879 -0.20157778 0.92959124
vn -0.26279566 -0.93221474 0.2488256
vn -0.29006213 -0.74674344 0.59853005
vn -0.23761077 -0.62483585 0.74372125
vn -0.3170297 -0.94295394 -0.10163659
vn -0.20994428 -0.8255626 0.5238032
vn -0.120678894 -0.7364081 0.6656874
vn -0.22584194 -0.36679658 0.90247196
vn -0.18478519 -0.9061113 0.38054794
vn -0.15380478 -0.9855616 0.0707981
vn -0.1648267 -0.9751228 -0.14821488
vn -0.15242688 -0.93783754 -0.31181207
vn -0.12377157 -0.96266943 0.24072419
vn -0.07388134 -0.90580744 0.41719827
vn 0.06646637 -0.996528 -0.050140455
vn 0.019309456 -0.83927137 0.5433698
vn 0.018388232 -0.9923224 0.12230367
vn -0.0019300681 -0.9728909 -0.2312565
vn 0.004031651 -0.95930547 0.28234148
vn 0.07228727 -0.9175971 0.3908837
vn 0.158109 -0.95609975 0.2467283
vn -0.94972676 0.18938528 -0.2493035
vn -0.8685519 0.16186939 -0.46841845
vn -0.9342469 0.020375017 -0.35604432
vn -0.8563001 0.32093558 -0.40466097
vn -0.83932954 0.009216984 -0.5435448
vn -0.90319103 -0.12537985 -0.41051894
vn -0.7760679 0.3062928 -0.55127424
vn -0.8092287 -0.16506776 -0.5638276
vn -0.8354427 -0.31153804 -0.45274666
vn -0.76574594 0.40838715 -0.49684316
vn -0.7645638 0.17615083 -0.62001055
vn -0.71892595 -0.0421622 -0.69380677
vn -0.78382206 -0.4668663 -0.40946156
vn -0.71575433 -0.33161944 -0.6145928
vn -0.6489449 -0.21478027 -0.72989035
vn -0.67988926 -0.5199598 -0.5171
vn -0.6646933 0.31623092 -0.67689055
vn -0.6721296 0.160405 -0.72284997
vn -0.67533743 -0.62635124 -0.3893629
vn -0.6437357 0.46716154 -0.6061059
vn -0.6960775 0.56770116 -0.4395355
vn -0.57143897 -0.6122454 -0.546455
vn -0.59166205 -0.46654028 -0.65747714
vn -0.5957301 -0.346957 -0.72438
vn -0.5955674 0.065137915 -0.8006601
vn -0.58509445 0.6190614 -0.52385825
vn -0.5855183 -0.08879891 -0.805781
vn -0.5510703 0.39354366 -0.7358294
vn -0.52011627 0.56094736 -0.644063
vn -0.5557068 0.25976413 -0.78975475
vn -0.48980635 -0.7195668 -0.4922533
vn -0.4298587 0.013623709 -0.90279335
vn -0.49320075 -0.5527554 -0.671725
vn -0.44129536 0.5225759 -0.7295018
vn -0.5225732 -0.27237535 -0.80791646
vn -0.45048037 -0.1574105 -0.8788
vn -0.43979457 0.3622204 -0.8218133
vn -0.46204078 0.17936307 -0.86853164
vn -0.4557244 -0.44938844 -0.7683523
vn -0.3943875 -0.6770754 -0.62131107
vn -0.3909834 0.6922881 -0.60652214
vn -0.3713323 -0.3203849 -0.8714734
vn -0.28028008 -0.18833661 -0.94126105
vn -0.3691862 -0.55571127 -0.7449071
vn -0.35459942 0.18699066 -0.91612977
vn -0.30897027 -0.8074774 -0.5025113
vn -0.3025226 -0.45675555 -0.836573
vn -0.32949594 0.70901215 -0.6234855
vn -0.35720202 0.4785515 -0.8021192
vn -0.32914844 0.60563964 -0.7244736
vn -0.41121966 -0.82944417 -0.3780486
vn -0.3168739 -0.032071657 -0.94792527
vn -0.32039046 -0.9047754 -0.28059134
vn -0.30119047 0.3615146 -0.88237834
vn -0.25544697 -0.58087486 -0.7728721
vn -0.2489676 -0.699579 -0.66977936
vn -0.20931193 0.47982293 -0.85203195
vn -0.22326958 0.13720119 -0.9650526
vn -0.18657768 0.5827579 -0.7909374
vn -0.21067192 -0.34927937 -0.9130286
vn -0.19381209 0.69843644 -0.68892914
vn -0.22232798 0.296948 -0.92865074
vn -0.08405305 -0.6158748 -0.7833475
vn -0.17722364 -0.8735341 -0.45335412
vn -0.16178852 -0.8113905 -0.5616671
vn -0.16540612 -0.4953622 -0.8527937
vn -0.107318595 -0.716936 -0.68882906
vn -0.12824506 0.3848242 -0.9140369
vn -0.15242688 -0.93783754 -0.31181207
vn -0.09044239 0.26806486 -0.9591462
vn -0.06601515 0.52630454 -0.8477296
vn -0.14200437 0.02518744 -0.9895455
vn -0.10803863 -0.25416487 -0.9611076
vn 0.021097224 0.123426005 -0.9921295
vn -0.15609436 -0.115246855 -0.9809958
vn -0.061947674 0.6513587 -0.756237
vn -0.04230546 -0.38985837 -0.91990256
vn -0.010431115 -0.7805247 -0.62503797
vn -0.0034520288 -0.53844374 -0.84265435
vn 0.05660334 0.42486072 -0.9034874
vn 0.021370538 -0.6890094 -0.72443724
vn 0.04805414 0.000198503 -0.9988447
vn 0.006047143 -0.8564369 -0.5162163
vn 0.07864914 0.6007239 -0.7955784
vn 0.013188849 0.2667714 -0.9636696
vn 0.07551879 -0.28021932 -0.95696086
vn 0.13913856 -0.641715 -0.7542164
vn 0.03777427 -0.15043083 -0.9878986
vn 0.14279778 0.21393299 -0.9663547
vn 0.124644294 -0.40291592 -0.90670973
vn 0.19982913 0.06678018 -0.9775524
vn 0.12033643 -0.53144956 -0.83849895
vn 0.17151614 -0.13642542 -0.97568965
vn 0.22103545 0.52632886 -0.82104886
vn 0.22939198 -0.26266575 -0.9372225
vn 0.22184338 0.38852715 -0.89433336
vn 0.26326698 0.19799769 -0.9441861
vn 0.2990544 -0.37495813 -0.877481
vn 0.2528346 -0.52745026 -0.8110924
vn 0.33590683 -0.14691064 -0.9303676
vn 0.38330168 0.15610732 -0.9103353
vn 0.4061149 -0.2585419 -0.87648547
vn 0.36881694 -0.005838949 -0.9294837
vn 0.41603246 0.3213001 -0.8506957
vn 0.47492307 0.019219363 -0.8798174
vn 0.56042165 0.14742304 -0.814981
vn -0.41245434 0.19438761 0.8899971
vn -0.5501657 0.11961025 0.82644486
vn -0.4644225 -0.0031905654 0.885608
vn -0.3197553 -0.035066277 0.9468511
vn -0.25936785 0.2215245 0.9400294
vn -0.2529828 0.376336 0.89127487
vn -0.22584194 -0.36679658 0.90247196
vn -0.40059623 -0.35041216 0.8466014
vn -0.32874727 -0.4953463 0.8040878
vn -0.19236574 0.058811124 0.9795594
vn -0.13347848 0.40871257 0.9028497
vn -0.12687655 -0.5914853 0.79627097
vn -0.23761077 -0.62483585 0.74372125
vn -0.10350953 -0.4278443 0.89790595
vn -0.3085879 -0.20157778 0.92959124
vn -0.13448638 -0.19296394 0.97194564
vn -0.120678894 -0.7364081 0.6656874
vn -0.10164174 -0.032897994 0.99427694
vn -0.068762004 0.19912747 0.9775582
vn 0.014849203 -0.7402206 0.6722001
vn 0.032911092 -0.627834 0.77765113
vn 0.042063523 -0.31498635 0.9481636
vn 0.019309456 -0.83927137 0.5433698
vn 0.018491564 0.32319617 0.9461513
vn 0.021499416 -0.15278214 0.988026
vn 0.021166 -0.50189686 0.8646685
vn 0.015992878 0.45491076 0.89039344
vn 0.00615134 0.5646041 0.82533896
vn 0.12889282 -0.008093149 0.9916255
vn 0.08707904 0.11303827 0.98976743
vn 0.11059735 -0.38530117 0.9161393
vn 0.12853214 0.2699681 0.95425195
vn 0.16343759 -0.17468561 0.970965
vn 0.07228727 -0.9175971 0.3908837
vn 0.17122537 -0.88409185 0.43481433
vn 0.20023942 -0.79960996 0.56615204
vn 0.16735479 0.45066968 0.8768633
vn 0.2891358 0.032666344 0.95673054
vn 0.256143 0.16090733 0.9531524
vn 0.106304444 0.67537296 0.7297745
vn 0.19188204 0.5699368 0.79897016
vn 0.15726447 -0.69502026 0.70158017
vn 0.158109 -0.95609975 0.2467283
vn 0.17473035 -0.53747934 0.8249759
vn 0.2300389 -0.29716417 0.9267014
vn 0.25402236 -0.91832536 0.30356416
vn 0.2750756 -0.20062633 0.9402566
vn 0.29336488 0.2978835 0.90840656
vn 0.2773035 -0.42185244 0.8632168
vn 0.32893986 -0.70999587 0.62265915
vn 0.2823261 -0.61255974 0.7382835
vn 0.32661122 0.42870525 0.8423402
vn 0.32790253 -0.07201166 0.94196296
vn 0.30722597 0.65924394 0.6863014
vn 0.22955436 0.74838173 0.6222778
vn 0.29429138 -0.8477259 0.44130868
vn 0.31150153 -0.4978791 0.8093721
vn 0.44093272 0.13374296 0.88751966
vn 0.38205513 0.5429536 0.7478203
vn 0.3864303 -0.20231007 0.8998568
vn 0.38872117 -0.5799068 0.7159636
vn 0.41332552 0.73678654 0.5350772
vn 0.4014614 -0.3355625 0.8521893
vn 0.4398993 -0.44994456 0.77719915
vn 0.3955018 -0.7891444 0.46992496
vn 0.42743286 0.31216535 0.8484421
vn 0.48576158 -0.5675094 0.6648073
vn 0.45523733 -0.69167936 0.56065917
vn 0.47950992 -0.033592843 0.8768932
vn 0.46441618 0.6207143 0.63168925
vn 0.40523857 -0.8561398 0.32063428
vn 0.48790613 0.4242269 0.76287556
vn 0.50427175 -0.2442597 0.8282797
vn 0.5508203 -0.77505594 0.30965343
vn 0.5371719 -0.395458 0.745023
vn 0.53571045 -0.7178727 0.44460446
vn 0.55986047 0.23959455 0.79319024
vn 0.5890015 -0.60623837 0.5343709
vn 0.588178 0.043415245 0.80756533
vn 0.629794 -0.469283 0.61897737
vn 0.5728055 0.44741178 0.6868162
vn 0.6201272 -0.1749581 0.76474303
vn 0.594001 0.56921446 0.5684696
vn 0.64871836 0.34594125 0.6778563
vn 0.6700851 0.09931061 0.7356109
vn 0.65747243 -0.6486491 0.3833854
vn 0.7174686 0.43992087 0.54010034
vn 0.6702804 0.57015586 0.4750226
vn 0.6888965 -0.31060874 0.65493804
vn 0.7067188 0.26377743 0.65648305
vn 0.72947705 -0.08175614 0.6791017
vn 0.7074921 -0.5160194 0.48288602
vn 0.78866905 -0.35825807 0.49965212
vn 0.72743773 0.56505257 0.3892942
vn 0.75448775 -0.5725604 0.32081586
vn 0.7901243 -0.23313588 0.5668785
vn 0.7538697 0.03937037 0.65584326
vn 0.7860874 0.17998224 0.59133154
vn 0.81565905 0.40446463 0.4136528
vn 0.78793365 0.30349916 0.5357694
vn 0.8169128 -0.4389548 0.3741286
vn 0.84777033 -0.0813229 0.52409166
vn 0.8452018 0.036648005 0.53318936
vn 0.8715087 0.21519539 0.44063988
vn 0.90728515 -0.19254667 0.37384412
vn 0.89985543 -0.30118212 0.3155147
vn 0.89155704 0.30980542 0.3303736
vn 0.9280861 0.021308599 0.37175554
vn 0.93899834 0.15087044 0.30906346
vn 0.98224974 -0.11552645 0.14778063
vn 0.9801595 -0.07095718 0.18507394
vn 0.9935767 0.009573272 0.11275488
vn -0.32949594 0.70901215 -0.6234855
vn -0.21338908 0.8276293 -0.5191289
vn -0.19381209 0.69843644 -0.68892914
vn -0.10868215 0.75788254 -0.6432746
vn -0.061947674 0.6513587 -0.756237
vn -0.023733145 0.83986324 -0.542279
vn -0.13129759 0.88849425 -0.43970314
vn 0.035632838 0.7489776 -0.6616365
vn -0.05753926 0.95768034 -0.28202403
vn 0.07777082 0.907752 -0.41223544
vn 0.07864914 0.6007239 -0.7955784
vn 0.07601739 0.9674201 -0.24149469
vn 0.17549336 0.8376982 -0.51716894
vn 0.17647445 0.7343411 -0.6554388
vn 0.21308091 0.9760738 0.04331807
vn 0.057481892 0.9983441 -0.00219536
vn 0.068425246 0.9777628 0.19823688
vn 0.27659604 0.9096129 -0.30999836
vn 0.19382672 0.95540655 0.22277682
vn 0.1902366 0.97375023 -0.124981955
vn 0.26734385 0.63677853 -0.7232153
vn 0.22103545 0.52632886 -0.82104886
vn 0.3373097 0.9340846 0.11708175
vn 0.34732157 0.7373608 -0.5793676
vn 0.33132625 0.89117074 0.3098993
vn 0.14345609 0.9189272 0.36741418
vn 0.28689554 0.8487405 0.44421896
vn 0.32419038 0.8459805 -0.42334098
vn 0.37356484 0.9197706 -0.12029701
vn 0.22955436 0.74838173 0.6222778
vn 0.41332552 0.73678654 0.5350772
vn 0.44526625 0.59515125 -0.66897905
vn 0.4626821 0.8011605 0.3795617
vn 0.42832756 0.869271 -0.24678622
vn 0.22184338 0.38852715 -0.89433336
vn 0.3492197 0.5025914 -0.79085237
vn 0.44358453 0.8656863 0.23199145
vn 0.41603246 0.3213001 -0.8506957
vn 0.4766628 0.8759203 0.07453971
vn 0.5558656 0.6897494 0.4639603
vn 0.46848816 0.7764557 -0.42146814
vn 0.5231875 0.43776745 -0.73118705
vn 0.53497726 0.84409183 -0.03617083
vn 0.56591094 0.27806544 -0.77616006
vn 0.38330168 0.15610732 -0.9103353
vn 0.46441618 0.6207143 0.63168925
vn 0.57695144 0.79938406 0.16766697
vn 0.524365 0.6833274 -0.5080404
vn 0.58932817 0.7922822 -0.15805435
vn 0.56042165 0.14742304 -0.814981
vn 0.6387849 0.43635648 -0.6336773
vn 0.6118101 0.73009837 -0.3043761
vn 0.6218161 0.55737895 -0.55015767
vn 0.594001 0.56921446 0.5684696
vn 0.6362426 0.77147424 -0.004770301
vn 0.64399415 0.6954174 0.31885135
vn 0.6702804 0.57015586 0.4750226
vn 0.6849202 0.608931 -0.40010914
vn 0.66211414 0.26206362 -0.702088
vn 0.68506175 0.71611494 0.13367812
vn 0.68817484 0.70762676 -0.1602489
vn 0.7424904 0.61164266 -0.2731323
vn 0.72743773 0.56505257 0.3892942
vn 0.7484113 0.27830863 -0.6020173
vn 0.7468001 0.46602657 -0.4744563
vn 0.7420504 0.67030394 -0.0073389295
vn 0.767659 0.5869869 0.2571887
vn 0.749275 0.6428495 0.15915869
vn 0.7847324 0.61263126 -0.09422348
vn 0.8355624 0.5441517 0.075725734
vn 0.827738 0.5314865 -0.17992188
vn 0.808412 0.5025356 -0.30647683
vn 0.81565905 0.40446463 0.4136528
vn 0.8460089 0.47051516 0.2507676
vn 0.8147398 0.27527386 -0.51031685
vn 0.8711405 0.33361682 -0.36029726
vn 0.8801732 0.47113383 -0.057689615
vn 0.908198 0.3812749 -0.17264354
vn 0.89194673 0.44450775 0.08272755
vn 0.89155704 0.30980542 0.3303736
vn 0.9017821 0.19430952 -0.38604778
vn 0.9193599 0.34706306 0.18526903
vn 0.9439818 0.21362074 -0.25152445
vn 0.9374292 0.3458445 -0.0402249
vn 0.9690503 0.23722199 0.068317115
vn 0.9732568 0.1694745 0.15507926
vn 0.9585441 0.26810685 -0.09649868
vn 0.93899834 0.15087044 0.30906346
vn 0.99811286 0.02495078 -0.056108326
vn 0.99919283 0.039330848 0.008169288
vn -0.1648267 -0.9751228 -0.14821488
vn -0.15242688 -0.93783754 -0.31181207
vn -0.0019300681 -0.9728909 -0.2312565
vn -0.0023286007 -0.9175086 -0.3977091
vn -0.17722364 -0.8735341 -0.45335412
vn 0.006047143 -0.8564369 -0.5162163
vn 0.18064687 -0.968184 -0.17316587
vn 0.06646637 -0.996528 -0.050140455
vn 0.09930707 -0.9350777 -0.34024662
vn 0.16463892 -0.86145324 -0.48040852
vn -0.010431115 -0.7805247 -0.62503797
vn 0.14037344 -0.75931686 -0.63540006
vn 0.021370538 -0.6890094 -0.72443724
vn 0.30431697 -0.94987506 -0.07161359
vn 0.158109 -0.95609975 0.2467283
vn 0.018388232 -0.9923224 0.12230367
vn 0.19728462 -0.9787537 0.05585694
vn 0.13913856 -0.641715 -0.7542164
vn 0.2284786 -0.9092461 -0.3479499
vn 0.2528346 -0.52745026 -0.8110924
vn 0.12033643 -0.53144956 -0.83849895
vn 0.124644294 -0.40291592 -0.90670973
vn 0.27411425 -0.7342472 -0.62108165
vn 0.31648117 -0.93639946 0.1516434
vn 0.32335877 -0.8330049 -0.44893423
vn 0.25402236 -0.91832536 0.30356416
vn 0.3495615 -0.9034301 -0.24823545
vn 0.34561947 -0.65158683 -0.6752642
vn 0.3829792 -0.52880764 -0.75742286
vn 0.29429138 -0.8477259 0.44130868
vn 0.40523857 -0.8561398 0.32063428
vn 0.4504902 -0.40339974 -0.7964466
vn 0.2990544 -0.37495813 -0.877481
vn 0.42278004 -0.9059591 0.022251498
vn 0.4061149 -0.2585419 -0.87648547
vn 0.41994372 -0.73756546 -0.5288142
vn 0.48958722 -0.85706663 -0.16044046
vn 0.36881694 -0.005838949 -0.9294837
vn 0.5069816 -0.13231921 -0.8517401
vn 0.33590683 -0.14691064 -0.9303676
vn 0.4514201 -0.8199347 -0.35203254
vn 0.5185941 -0.5318484 -0.6694755
vn 0.46314144 -0.8635938 0.19926292
vn 0.5363723 -0.636628 -0.5540844
vn 0.47492307 0.019219363 -0.8798174
vn 0.5508203 -0.77505594 0.30965343
vn 0.5666619 -0.2627354 -0.78093815
vn 0.5394608 -0.72064185 -0.43549675
vn 0.58330303 -0.8006825 0.13662042
vn 0.5534989 -0.8310174 -0.055218097
vn 0.6060367 -0.37272796 -0.7027043
vn 0.5986257 -0.0040843943 -0.8010185
vn 0.56042165 0.14742304 -0.814981
vn 0.5854501 -0.7546003 -0.2963554
vn 0.56591094 0.27806544 -0.77616006
vn 0.68172586 0.0991119 -0.72486323
vn 0.659837 -0.64488804 -0.3856612
vn 0.64223796 -0.4952855 -0.584998
vn 0.6602836 -0.7196251 -0.21486096
vn 0.68657434 -0.6933323 0.21887428
vn 0.65035844 -0.11519319 -0.7508425
vn 0.6722429 -0.7375239 0.06440455
vn 0.70443225 -0.7015019 -0.108028784
vn 0.701886 -0.564777 -0.43403104
vn 0.66211414 0.26206362 -0.702088
vn 0.7251432 -0.2207806 -0.6522448
vn 0.65747243 -0.6486491 0.3833854
vn 0.72699183 -0.33954567 -0.59681785
vn 0.7656866 -0.6058679 -0.21598181
vn 0.75448775 -0.5725604 0.32081586
vn 0.77829516 -0.4218341 -0.46509418
vn 0.7475809 -0.038595952 -0.66304845
vn 0.7747754 -0.625294 0.09343715
vn 0.7484113 0.27830863 -0.6020173
vn 0.7991936 0.104991004 -0.5918331
vn 0.83154184 -0.5167684 0.2036874
vn 0.8129871 -0.5816209 -0.027734794
vn 0.8050602 -0.49812832 -0.32209656
vn 0.829832 -0.2415448 -0.50302577
vn 0.83932126 -0.103860915 -0.53362226
vn 0.8147398 0.27527386 -0.51031685
vn 0.86571985 -0.3456126 -0.3620512
vn 0.9017821 0.19430952 -0.38604778
vn 0.8491675 -0.50711393 -0.14747857
vn 0.8169128 -0.4389548 0.3741286
vn 0.87869924 -0.46857178 0.0912586
vn 0.88901347 -0.3887091 -0.24199224
vn 0.8876462 0.06597801 -0.45577532
vn 0.9136828 -0.18004996 -0.36437026
vn 0.89985543 -0.30118212 0.3155147
vn 0.899768 -0.43550488 -0.027442383
vn 0.9167447 -0.058835946 -0.395117
vn 0.9378092 -0.32772744 -0.1144929
vn 0.94622 -0.21899551 -0.23813598
vn 0.9750235 -0.06785165 -0.21148346
vn 0.925587 -0.33063388 0.18430945
vn 0.96787703 0.08376068 -0.2370616
vn 0.9439818 0.21362074 -0.25152445
vn 0.99557185 0.06777256 -0.065142505
vn 0.9962112 0.07870455 0.036998894
vn 0.9935409 -0.05536461 -0.09905211
vn 0.979461 -0.19819862 0.03705983
vn 0.99650156 -0.04920911 0.06755109
vn 0.9914208 -0.03805445 0.12504677
vn 0.99571526 -0.04634728 -0.08001874
vn 0.99115676 -0.12159467 -0.05313175
vn 0.99668765 0.041587103 0.06988704
vn 0.99837375 -0.009664428 -0.056182466
vn 0.9969989 0.07114231 0.03052804
vn 0.9927802 -0.055075936 -0.10655545
vn 0.99736935 0.045044735 -0.056792203
vn 0.98224974 -0.11552645 0.14778063
vn 0.9975081 0.056087423 -0.042798672
vn 0.99919283 0.039330848 0.008169288
vn 0.9911432 0.13216145 -0.012979322
vn 0.99811286 0.02495078 -0.056108326
vn 0.9999485 -0.0079046 0.0063667754
vn 0.99409753 -0.09087693 -0.059258223
vn 0.9732568 0.1694745 0.15507926
vn 0.93899834 0.15087044 0.30906346
vn 0.9935767 0.009573272 0.11275488
vn 0.9801595 -0.07095718 0.18507394
vn 0.9690503 0.23722199 0.068317115
usemtl material_0
f 1/1/1 2/2/2 3/3/3
f 1/1/1 4/4/4 2/2/2
f 5/5/5 3/3/3 6/6/6
f 3/3/3 7/7/7 6/6/6
f 2/2/2 7/7/7 3/3/3
f 4/4/4 8/8/8 2/2/2
f 5/5/5 6/6/6 9/9/9
f 2/2/2 8/8/8 10/10/10
f 6/6/6 7/7/7 11/11/11
f 12/12/12 13/13/13 4/4/4
f 2/2/2 10/10/10 11/11/11
f 2/2/2 11/11/11 7/7/7
f 9/9/9 6/6/6 14/14/14
f 6/6/6 11/11/11 14/14/14
f 8/8/8 4/4/4 15/15/15
f 13/13/13 15/15/15 4/4/4
f 16/16/16 9/9/9 14/14/14
f 8/8/8 17/17/17 10/10/10
f 10/10/10 18/18/18 11/11/11
f 14/14/14 11/11/11 18/18/18
f 17/17/17 8/8/8 15/15/15
f 15/15/15 19/19/19 17/17/17
f 10/10/10 20/20/20 18/18/18
f 14/14/14 21/21/21 16/16/16
f 21/21/21 14/14/14 18/18/18
f 15/15/15 13/13/13 22/22/22
f 23/23/23 10/10/10 17/17/17
f 15/15/15 22/22/22 19/19/19
f 22/22/22 13/13/13 24/24/24
f 23/23/23 25/25/25 10/10/10
f 13/13/13 26/26/26 24/24/24
f 27/27/27 17/17/17 19/19/19
f 10/10/10 25/25/25 20/20/20
f 18/18/18 28/28/28 21/21/21
f 17/17/17 27/27/27 23/23/23
f 18/18/18 20/20/20 29/29/29
f 30/30/30 24/24/24 26/26/26
f 30/30/30 26/26/26 31/31/31
f 21/21/21 28/28/28 32/32/32
f 29/29/29 28/28/28 18/18/18
f 33/33/33 27/27/27 19/19/19
f 25/25/25 34/34/34 20/20/20
f 31/31/31 35/35/35 30/30/30
f 27/27/27 36/36/36 23/23/23
f 20/20/20 34/34/34 29/29/29
f 25/25/25 23/23/23 36/36/36
f 33/33/33 36/36/36 27/27/27
f 22/22/22 24/24/24 37/37/37
f 37/37/37 24/24/24 38/38/38
f 24/24/24 30/30/30 38/38/38
f 36/36/36 39/39/39 25/25/25
f 19/19/19 22/22/22 33/33/33
f 40/40/40 32/32/32 41/41/41
f 25/25/25 39/39/39 34/34/34
f 32/32/32 28/28/28 41/41/41
f 29/29/29 42/42/42 28/28/28
f 43/43/43 30/30/30 35/35/35
f 44/44/44 33/33/33 22/22/22
f 42/42/42 41/41/41 28/28/28
f 37/37/37 45/45/45 22/22/22
f 33/33/33 46/46/46 36/36/36
f 44/44/44 22/22/22 45/45/45
f 34/34/34 42/42/42 29/29/29
f 41/41/41 47/47/47 40/40/40
f 33/33/33 44/44/44 48/48/48
f 30/30/30 43/43/43 38/38/38
f 36/36/36 49/49/49 39/39/39
f 38/38/38 50/50/50 37/37/37
f 45/45/45 37/37/37 50/50/50
f 38/38/38 43/43/43 51/51/51
f 46/46/46 49/49/49 36/36/36
f 46/46/46 33/33/33 48/48/48
f 44/44/44 52/52/52 48/48/48
f 42/42/42 53/53/53 41/41/41
f 50/50/50 38/38/38 51/51/51
f 41/41/41 53/53/53 47/47/47
f 44/44/44 45/45/45 52/52/52
f 51/51/51 43/43/43 54/54/54
f 42/42/42 34/34/34 55/55/55
f 56/56/56 45/45/45 50/50/50
f 49/49/49 46/46/46 57/57/57
f 58/58/58 47/47/47 53/53/53
f 34/34/34 39/39/39 55/55/55
f 51/51/51 56/56/56 50/50/50
f 52/52/52 45/45/45 59/59/59
f 57/57/57 46/46/46 48/48/48
f 60/60/60 58/58/58 53/53/53
f 45/45/45 56/56/56 59/59/59
f 49/49/49 61/61/61 39/39/39
f 39/39/39 61/61/61 55/55/55
f 48/48/48 62/62/62 57/57/57
f 63/63/63 49/49/49 57/57/57
f 53/53/53 42/42/42 64/64/64
f 56/56/56 51/51/51 54/54/54
f 62/62/62 48/48/48 52/52/52
f 55/55/55 64/64/64 42/42/42
f 63/63/63 61/61/61 49/49/49
f 56/56/56 65/65/65 59/59/59
f 64/64/64 60/60/60 53/53/53
f 52/52/52 59/59/59 66/66/66
f 56/56/56 54/54/54 67/67/67
f 57/57/57 62/62/62 63/63/63
f 52/52/52 66/66/66 62/62/62
f 65/65/65 68/68/68 59/59/59
f 67/67/67 65/65/65 56/56/56
f 59/59/59 68/68/68 66/66/66
f 64/64/64 69/69/69 60/60/60
f 55/55/55 70/70/70 64/64/64
f 61/61/61 70/70/70 55/55/55
f 63/63/63 71/71/71 61/61/61
f 69/69/69 64/64/64 72/72/72
f 71/71/71 70/70/70 61/61/61
f 62/62/62 73/73/73 63/63/63
f 71/71/71 63/63/63 73/73/73
f 70/70/70 72/72/72 64/64/64
f 67/67/67 74/74/74 65/65/65
f 65/65/65 74/74/74 68/68/68
f 62/62/62 66/66/66 75/75/75
f 73/73/73 62/62/62 75/75/75
f 73/73/73 76/76/76 71/71/71
f 68/68/68 77/77/77 66/66/66
f 74/74/74 78/78/78 68/68/68
f 66/66/66 79/79/79 75/75/75
f 71/71/71 80/80/80 70/70/70
f 77/77/77 68/68/68 78/78/78
f 75/75/75 76/76/76 73/73/73
f 72/72/72 70/70/70 81/81/81
f 76/76/76 80/80/80 71/71/71
f 79/79/79 82/82/82 75/75/75
f 83/83/83 79/79/79 66/66/66
f 77/77/77 83/83/83 66/66/66
f 82/82/82 76/76/76 75/75/75
f 84/84/84 81/81/81 70/70/70
f 78/78/78 83/83/83 77/77/77
f 84/84/84 70/70/70 80/80/80
f 79/79/79 83/83/83 82/82/82
f 83/83/83 85/85/85 82/82/82
f 82/82/82 86/86/86 76/76/76
f 83/83/83 78/78/78 87/87/87
f 85/85/85 83/83/83 87/87/87
f 88/88/88 89/89/89 90/90/90
f 90/90/90 89/89/89 91/91/91
f 88/88/88 92/92/92 89/89/89
f 93/93/93 88/88/88 90/90/90
f 90/90/90 91/91/91 93/93/93
f 92/92/92 94/94/94 89/89/89
f 88/88/88 95/95/95 92/92/92
f 96/96/96 91/91/91 89/89/89
f 93/93/93 91/91/91 97/97/97
f 96/96/96 89/89/89 94/94/94
f 98/98/98 88/88/88 93/93/93
f 96/96/96 99/99/99 91/91/91
f 91/91/91 100/100/100 97/97/97
f 100/100/100 91/91/91 99/99/99
f 101/101/101 95/95/95 88/88/88
f 101/101/101 88/88/88 98/98/98
f 102/102/102 97/97/97 100/100/100
f 103/103/103 98/98/98 93/93/93
f 104/104/104 93/93/93 97/97/97
f 103/103/103 93/93/93 104/104/104
f 92/92/92 105/105/105 94/94/94
f 101/101/101 98/98/98 106/106/106
f 97/97/97 102/102/102 104/104/104
f 101/101/101 107/107/107 95/95/95
f 92/92/92 95/95/95 107/107/107
f 106/106/106 98/98/98 108/108/108
f 109/109/109 98/98/98 103/103/103
f 110/110/110 107/107/107 101/101/101
f 92/92/92 111/111/111 105/105/105
f 92/92/92 107/107/107 111/111/111
f 108/108/108 98/98/98 109/109/109
f 106/106/106 108/108/108 112/112/112
f 112/112/112 101/101/101 106/106/106
f 113/113/113 111/111/111 107/107/107
f 114/114/114 103/103/103 104/104/104
f 110/110/110 115/115/115 107/107/107
f 101/101/101 112/112/112 110/110/110
f 116/116/116 112/112/112 108/108/108
f 109/109/109 103/103/103 117/117/117
f 118/118/118 104/104/104 102/102/102
f 119/119/119 108/108/108 109/109/109
f 120/120/120 111/111/111 113/113/113
f 103/103/103 114/114/114 117/117/117
f 121/121/121 115/115/115 110/110/110
f 122/122/122 112/112/112 116/116/116
f 123/123/123 110/110/110 112/112/112
f 107/107/107 115/115/115 113/113/113
f 104/104/104 118/118/118 124/124/124
f 124/124/124 114/114/114 104/104/104
f 122/122/122 123/123/123 112/112/112
f 119/119/119 109/109/109 125/125/125
f 125/125/125 109/109/109 117/117/117
f 120/120/120 113/113/113 126/126/126
f 116/116/116 108/108/108 119/119/119
f 117/117/117 114/114/114 127/127/127
f 128/128/128 122/122/122 116/116/116
f 123/123/123 121/121/121 110/110/110
f 115/115/115 121/121/121 129/129/129
f 115/115/115 130/130/130 113/113/113
f 125/125/125 117/117/117 127/127/127
f 113/113/113 130/130/130 126/126/126
f 127/127/127 114/114/114 131/131/131
f 129/129/129 130/130/130 115/115/115
f 131/131/131 114/114/114 124/124/124
f 128/128/128 132/132/132 122/122/122
f 128/128/128 116/116/116 133/133/133
f 125/125/125 134/134/134 119/119/119
f 119/119/119 133/133/133 116/116/116
f 125/125/125 127/127/127 135/135/135
f 136/136/136 128/128/128 133/133/133
f 123/123/123 122/122/122 132/132/132
f 131/131/131 135/135/135 127/127/127
f 133/133/133 119/119/119 134/134/134
f 137/137/137 129/129/129 121/121/121
f 123/123/123 132/132/132 138/138/138
f 121/121/121 123/123/123 138/138/138
f 132/132/132 128/128/128 136/136/136
f 129/129/129 139/139/139 130/130/130
f 136/136/136 133/133/133 140/140/140
f 140/140/140 133/133/133 134/134/134
f 125/125/125 135/135/135 134/134/134
f 138/138/138 137/137/137 121/121/121
f 129/129/129 141/141/141 139/139/139
f 142/142/142 135/135/135 131/131/131
f 139/139/139 143/143/143 130/130/130
f 136/136/136 144/144/144 132/132/132
f 129/129/129 137/137/137 141/141/141
f 144/144/144 138/138/138 132/132/132
f 134/134/134 135/135/135 145/145/145
f 146/146/146 137/137/137 138/138/138
f 142/142/142 131/131/131 147/147/147
f 141/141/141 148/148/148 139/139/139
f 142/142/142 149/149/149 135/135/135
f 140/140/140 134/134/134 150/150/150
f 137/137/137 151/151/151 141/141/141
f 148/148/148 143/143/143 139/139/139
f 146/146/146 151/151/151 137/137/137
f 152/152/152 144/144/144 136/136/136
f 136/136/136 140/140/140 152/152/152
f 145/145/145 150/150/150 134/134/134
f 138/138/138 153/153/153 146/146/146
f 144/144/144 153/153/153 138/138/138
f 149/149/149 145/145/145 135/135/135
f 151/151/151 148/148/148 141/141/141
f 154/154/154 152/152/152 140/140/140
f 144/144/144 155/155/155 153/153/153
f 144/144/144 152/152/152 155/155/155
f 140/140/140 150/150/150 154/154/154
f 156/156/156 142/142/142 147/147/147
f 151/151/151 146/146/146 157/157/157
f 156/156/156 149/149/149 142/142/142
f 153/153/153 155/155/155 158/158/158
f 159/159/159 146/146/146 153/153/153
f 158/158/158 159/159/159 153/153/153
f 154/154/154 150/150/150 160/160/160
f 146/146/146 159/159/159 157/157/157
f 152/152/152 154/154/154 161/161/161
f 162/162/162 149/149/149 156/156/156
f 148/148/148 151/151/151 163/163/163
f 164/164/164 150/150/150 145/145/145
f 150/150/150 164/164/164 160/160/160
f 145/145/145 149/149/149 162/162/162
f 161/161/161 155/155/155 152/152/152
f 151/151/151 157/157/157 165/165/165
f 164/164/164 166/166/166 160/160/160
f 167/167/167 158/158/158 155/155/155
f 166/166/166 154/154/154 160/160/160
f 151/151/151 165/165/165 163/163/163
f 168/168/168 159/159/159 158/158/158
f 162/162/162 169/169/169 145/145/145
f 170/170/170 155/155/155 161/161/161
f 158/158/158 167/167/167 168/168/168
f 154/154/154 166/166/166 161/161/161
f 169/169/169 164/164/164 145/145/145
f 167/167/167 155/155/155 170/170/170
f 167/167/167 170/170/170 171/171/171
f 157/157/157 172/172/172 165/165/165
f 161/161/161 166/166/166 173/173/173
f 164/164/164 174/174/174 166/166/166
f 169/169/169 174/174/174 164/164/164
f 169/169/169 162/162/162 175/175/175
f 168/168/168 167/167/167 171/171/171
f 173/173/173 170/170/170 161/161/161
f 175/175/175 162/162/162 176/176/176
f 166/166/166 174/174/174 177/177/177
f 169/169/169 175/175/175 174/174/174
f 166/166/166 177/177/177 173/173/173
f 170/170/170 173/173/173 178/178/178
f 174/174/174 175/175/175 179/179/179
f 171/171/171 170/170/170 180/180/180
f 177/177/177 174/174/174 181/181/181
f 179/179/179 175/175/175 182/182/182
f 170/170/170 178/178/178 180/180/180
f 174/174/174 179/179/179 181/181/181
f 183/183/183 177/177/177 181/181/181
f 173/173/173 177/177/177 178/178/178
f 177/177/177 183/183/183 178/178/178
f 178/178/178 184/184/184 180/180/180
f 183/183/183 184/184/184 178/178/178
f 183/183/183 185/185/185 184/184/184
f 181/181/181 185/185/185 183/183/183
f 186/186/186 187/187/187 188/188/188
f 186/186/186 189/189/189 187/187/187
f 188/188/188 187/187/187 190/190/190
f 191/191/191 188/188/188 190/190/190
f 192/192/192 187/187/187 189/189/189
f 191/191/191 190/190/190 193/193/193
f 194/194/194 191/191/191 193/193/193
f 195/195/195 192/192/192 189/189/189
f 187/187/187 192/192/192 196/196/196
f 187/187/187 196/196/196 190/190/190
f 197/197/197 193/193/193 190/190/190
f 198/198/198 194/194/194 199/199/199
f 199/199/199 194/194/194 193/193/193
f 193/193/193 200/200/200 199/199/199
f 197/197/197 200/200/200 193/193/193
f 199/199/199 201/201/201 198/198/198
f 202/202/202 196/196/196 192/192/192
f 190/190/190 203/203/203 197/197/197
f 190/190/190 196/196/196 203/203/203
f 204/204/204 198/198/198 201/201/201
f 192/192/192 195/195/195 205/205/205
f 203/203/203 196/196/196 202/202/202
f 192/192/192 205/205/205 202/202/202
f 206/206/206 205/205/205 195/195/195
f 207/207/207 204/204/204 201/201/201
f 201/201/201 199/199/199 208/208/208
f 199/199/199 200/200/200 209/209/209
f 197/197/197 203/203/203 210/210/210
f 206/206/206 211/211/211 205/205/205
f 208/208/208 199/199/199 209/209/209
f 212/212/212 197/197/197 210/210/210
f 201/201/201 208/208/208 207/207/207
f 197/197/197 212/212/212 200/200/200
f 205/205/205 213/213/213 202/202/202
f 202/202/202 213/213/213 203/203/203
f 205/205/205 214/214/214 213/213/213
f 214/214/214 205/205/205 211/211/211
f 203/203/203 213/213/213 215/215/215
f 216/216/216 204/204/204 207/207/207
f 203/203/203 215/215/215 210/210/210
f 210/210/210 217/217/217 212/212/212
f 207/207/207 208/208/208 218/218/218
f 213/213/213 214/214/214 219/219/219
f 220/220/220 209/209/209 200/200/200
f 200/200/200 212/212/212 221/221/221
f 213/213/213 222/222/222 215/215/215
f 220/220/220 200/200/200 221/221/221
f 223/223/223 210/210/210 215/215/215
f 224/224/224 208/208/208 209/209/209
f 208/208/208 224/224/224 218/218/218
f 210/210/210 223/223/223 217/217/217
f 213/213/213 219/219/219 222/222/222
f 217/217/217 221/221/221 212/212/212
f 209/209/209 220/220/220 224/224/224
f 216/216/216 207/207/207 225/225/225
f 214/214/214 226/226/226 219/219/219
f 220/220/220 221/221/221 227/227/227
f 225/225/225 207/207/207 218/218/218
f 220/220/220 227/227/227 224/224/224
f 215/215/215 222/222/222 223/223/223
f 228/228/228 227/227/227 221/221/221
f 218/218/218 224/224/224 229/229/229
f 223/223/223 222/222/222 230/230/230
f 217/217/217 223/223/223 230/230/230
f 231/231/231 216/216/216 225/225/225
f 229/229/229 225/225/225 218/218/218
f 224/224/224 227/227/227 232/232/232
f 219/219/219 226/226/226 233/233/233
f 229/229/229 224/224/224 232/232/232
f 219/219/219 234/234/234 222/222/222
f 219/219/219 233/233/233 235/235/235
f 236/236/236 216/216/216 231/231/231
f 217/217/217 230/230/230 237/237/237
f 238/238/238 236/236/236 231/231/231
f 217/217/217 237/237/237 221/221/221
f 234/234/234 239/239/239 222/222/222
f 240/240/240 225/225/225 229/229/229
f 240/240/240 229/229/229 232/232/232
f 222/222/222 239/239/239 230/230/230
f 219/219/219 235/235/235 234/234/234
f 231/231/231 225/225/225 241/241/241
f 234/234/234 242/242/242 239/239/239
f 240/240/240 241/241/241 225/225/225
f 237/237/237 230/230/230 243/243/243
f 235/235/235 244/244/244 234/234/234
f 237/237/237 228/228/228 221/221/221
f 234/234/234 244/244/244 242/242/242
f 227/227/227 245/245/245 232/232/232
f 233/233/233 246/246/246 235/235/235
f 227/227/227 228/228/228 245/245/245
f 239/239/239 247/247/247 230/230/230
f 230/230/230 247/247/247 243/243/243
f 241/241/241 240/240/240 248/248/248
f 238/238/238 231/231/231 249/249/249
f 241/241/241 250/250/250 231/231/231
f 232/232/232 245/245/245 251/251/251
f 251/251/251 240/240/240 232/232/232
f 244/244/244 235/235/235 246/246/246
f 252/252/252 250/250/250 241/241/241
f 253/253/253 239/239/239 242/242/242
f 238/238/238 249/249/249 254/254/254
f 241/241/241 248/248/248 252/252/252
f 255/255/255 243/243/243 247/247/247
f 242/242/242 244/244/244 256/256/256
f 237/237/237 243/243/243 257/257/257
f 249/249/249 231/231/231 250/250/250
f 245/245/245 228/228/228 258/258/258
f 257/257/257 243/243/243 259/259/259
f 260/260/260 228/228/228 237/237/237
f 228/228/228 260/260/260 258/258/258
f 248/248/248 240/240/240 251/251/251
f 247/247/247 239/239/239 253/253/253
f 242/242/242 256/256/256 253/253/253
f 247/247/247 253/253/253 255/255/255
f 246/246/246 261/261/261 244/244/244
f 259/259/259 243/243/243 255/255/255
f 245/245/245 262/262/262 251/251/251
f 257/257/257 260/260/260 237/237/237
f 258/258/258 262/262/262 245/245/245
f 263/263/263 250/250/250 252/252/252
f 248/248/248 251/251/251 264/264/264
f 244/244/244 261/261/261 256/256/256
f 265/265/265 255/255/255 253/253/253
f 252/252/252 248/248/248 266/266/266
f 264/264/264 251/251/251 262/262/262
f 256/256/256 265/265/265 253/253/253
f 260/260/260 257/257/257 267/267/267
f 252/252/252 266/266/266 263/263/263
f 268/268/268 249/249/249 250/250/250
f 256/256/256 261/261/261 269/269/269
f 259/259/259 267/267/267 257/257/257
f 270/270/270 255/255/255 265/265/265
f 250/250/250 263/263/263 268/268/268
f 258/258/258 271/271/271 262/262/262
f 266/266/266 248/248/248 272/272/272
f 258/258/258 260/260/260 273/273/273
f 248/248/248 264/264/264 272/272/272
f 270/270/270 259/259/259 255/255/255
f 273/273/273 260/260/260 267/267/267
f 265/265/265 256/256/256 269/269/269
f 258/258/258 273/273/273 271/271/271
f 259/259/259 270/270/270 274/274/274
f 264/264/264 262/262/262 275/275/275
f 271/271/271 275/275/275 262/262/262
f 276/276/276 259/259/259 274/274/274
f 272/272/272 264/264/264 277/277/277
f 271/271/271 273/273/273 278/278/278
f 267/267/267 259/259/259 276/276/276
f 270/270/270 265/265/265 274/274/274
f 265/265/265 269/269/269 279/279/279
f 275/275/275 277/277/277 264/264/264
f 267/267/267 278/278/278 273/273/273
f 278/278/278 280/280/280 271/271/271
f 275/275/275 271/271/271 280/280/280
f 265/265/265 281/281/281 274/274/274
f 281/281/281 265/265/265 279/279/279
f 278/278/278 267/267/267 276/276/276
f 274/274/274 282/282/282 276/276/276
f 275/275/275 283/283/283 284/284/284
f 274/274/274 281/281/281 282/282/282
f 275/275/275 280/280/280 283/283/283
f 278/278/278 276/276/276 285/285/285
f 280/280/280 278/278/278 285/285/285
f 282/282/282 286/286/286 276/276/276
f 285/285/285 287/287/287 280/280/280
f 287/287/287 283/283/283 280/280/280
f 288/288/288 285/285/285 276/276/276
f 288/288/288 276/276/276 286/286/286
f 281/281/281 289/289/289 282/282/282
f 286/286/286 282/282/282 289/289/289
f 288/288/288 286/286/286 290/290/290
f 286/286/286 291/291/291 290/290/290
f 292/292/292 293/293/293 294/294/294
f 294/294/294 295/295/295 292/292/292
f 296/296/296 292/292/292 295/295/295
f 297/297/297 292/292/292 296/296/296
f 298/298/298 299/299/299 300/300/300
f 295/295/295 301/301/301 296/296/296
f 296/296/296 302/302/302 297/297/297
f 303/303/303 300/300/300 304/304/304
f 298/298/298 300/300/300 305/305/305
f 306/306/306 298/298/298 307/307/307
f 303/303/303 304/304/304 308/308/308
f 303/303/303 305/305/305 300/300/300
f 295/295/295 306/306/306 307/307/307
f 301/301/301 295/295/295 309/309/309
f 296/296/296 301/301/301 310/310/310
f 310/310/310 301/301/301 309/309/309
f 295/295/295 307/307/307 309/309/309
f 296/296/296 310/310/310 302/302/302
f 305/305/305 307/307/307 298/298/298
f 303/303/303 308/308/308 311/311/311
f 312/312/312 303/303/303 311/311/311
f 305/305/305 313/313/313 307/307/307
f 308/308/308 314/314/314 311/311/311
f 310/310/310 315/315/315 302/302/302
f 316/316/316 309/309/309 307/307/307
f 303/303/303 317/317/317 305/305/305
f 318/318/318 302/302/302 315/315/315
f 317/317/317 303/303/303 312/312/312
f 318/318/318 319/319/319 302/302/302
f 309/309/309 320/320/320 321/321/321
f 310/310/310 309/309/309 321/321/321
f 313/313/313 316/316/316 307/307/307
f 322/322/322 305/305/305 317/317/317
f 320/320/320 309/309/309 316/316/316
f 322/322/322 313/313/313 305/305/305
f 310/310/310 323/323/323 315/315/315
f 313/313/313 324/324/324 316/316/316
f 314/314/314 325/325/325 326/326/326
f 321/321/321 323/323/323 310/310/310
f 314/314/314 327/327/327 311/311/311
f 319/319/319 318/318/318 328/328/328
f 318/318/318 315/315/315 328/328/328
f 316/316/316 324/324/324 320/320/320
f 314/314/314 326/326/326 327/327/327
f 320/320/320 329/329/329 321/321/321
f 313/313/313 322/322/322 324/324/324
f 330/330/330 323/323/323 321/321/321
f 331/331/331 319/319/319 332/332/332
f 312/312/312 311/311/311 333/333/333
f 325/325/325 334/334/334 326/326/326
f 317/317/317 312/312/312 335/335/335
f 320/320/320 324/324/324 329/329/329
f 322/322/322 336/336/336 324/324/324
f 317/317/317 335/335/335 322/322/322
f 312/312/312 333/333/333 335/335/335
f 328/328/328 332/332/332 319/319/319
f 315/315/315 323/323/323 328/328/328
f 321/321/321 329/329/329 330/330/330
f 311/311/311 327/327/327 333/333/333
f 337/337/337 326/326/326 334/334/334
f 336/336/336 338/338/338 324/324/324
f 323/323/323 339/339/339 328/328/328
f 336/336/336 322/322/322 340/340/340
f 333/333/333 327/327/327 341/341/341
f 335/335/335 340/340/340 322/322/322
f 335/335/335 333/333/333 342/342/342
f 323/323/323 330/330/330 339/339/339
f 333/333/333 341/341/341 342/342/342
f 343/343/343 332/332/332 328/328/328
f 344/344/344 329/329/329 324/324/324
f 331/331/331 345/345/345 346/346/346
f 347/347/347 326/326/326 337/337/337
f 332/332/332 345/345/345 331/331/331
f 324/324/324 338/338/338 344/344/344
f 339/339/339 343/343/343 328/328/328
f 340/340/340 335/335/335 348/348/348
f 348/348/348 335/335/335 342/342/342
f 327/327/327 326/326/326 347/347/347
f 330/330/330 349/349/349 339/339/339
f 332/332/332 343/343/343 350/350/350
f 332/332/332 350/350/350 345/345/345
f 336/336/336 351/351/351 338/338/338
f 342/342/342 341/341/341 352/352/352
f 329/329/329 349/349/349 330/330/330
f 338/338/338 351/351/351 344/344/344
f 346/346/346 345/345/345 353/353/353
f 354/354/354 336/336/336 340/340/340
f 348/348/348 342/342/342 352/352/352
f 336/336/336 354/354/354 351/351/351
f 348/348/348 355/355/355 340/340/340
f 341/341/341 327/327/327 356/356/356
f 339/339/339 357/357/357 343/343/343
f 327/327/327 347/347/347 356/356/356
f 348/348/348 352/352/352 355/355/355
f 357/357/357 339/339/339 349/349/349
f 354/354/354 340/340/340 355/355/355
f 352/352/352 341/341/341 358/358/358
f 341/341/341 356/356/356 359/359/359
f 351/351/351 360/360/360 344/344/344
f 344/344/344 360/360/360 329/329/329
f 345/345/345 350/350/350 361/361/361
f 356/356/356 347/347/347 362/362/362
f 357/357/357 363/363/363 343/343/343
f 345/345/345 361/361/361 353/353/353
f 350/350/350 343/343/343 363/363/363
f 341/341/341 359/359/359 358/358/358
f 360/360/360 349/349/349 329/329/329
f 351/351/351 354/354/354 364/364/364
f 358/358/358 355/355/355 352/352/352
f 356/356/356 362/362/362 365/365/365
f 355/355/355 366/366/366 354/354/354
f 350/350/350 363/363/363 361/361/361
f 356/356/356 367/367/367 359/359/359
f 363/363/363 357/357/357 368/368/368
f 354/354/354 366/366/366 364/364/364
f 356/356/356 365/365/365 367/367/367
f 367/367/367 369/369/369 359/359/359
f 351/351/351 364/364/364 360/360/360
f 368/368/368 357/357/357 349/349/349
f 358/358/358 359/359/359 369/369/369
f 349/349/349 360/360/360 370/370/370
f 358/358/358 366/366/366 355/355/355
f 366/366/366 358/358/358 371/371/371
f 363/363/363 372/372/372 361/361/361
f 368/368/368 372/372/372 363/363/363
f 364/364/364 373/373/373 360/360/360
f 364/364/364 366/366/366 373/373/373
f 349/349/349 370/370/370 368/368/368
f 358/358/358 369/369/369 371/371/371
f 361/361/361 372/372/372 374/374/374
f 372/372/372 368/368/368 375/375/375
f 360/360/360 373/373/373 370/370/370
f 368/368/368 370/370/370 376/376/376
f 377/377/377 367/367/367 365/365/365
f 374/374/374 372/372/372 378/378/378
f 378/378/378 379/379/379 374/374/374
f 373/373/373 366/366/366 380/380/380
f 369/369/369 367/367/367 377/377/377
f 366/366/366 371/371/371 380/380/380
f 376/376/376 381/381/381 368/368/368
f 370/370/370 373/373/373 382/382/382
f 368/368/368 381/381/381 375/375/375
f 375/375/375 378/378/378 372/372/372
f 371/371/371 369/369/369 383/383/383
f 373/373/373 380/380/380 382/382/382
f 377/377/377 383/383/383 369/369/369
f 380/380/380 371/371/371 384/384/384
f 370/370/370 382/382/382 376/376/376
f 384/384/384 371/371/371 383/383/383
f 378/378/378 385/385/385 379/379/379
f 381/381/381 378/378/378 375/375/375
f 383/383/383 377/377/377 386/386/386
f 382/382/382 380/380/380 387/387/387
f 382/382/382 388/388/388 376/376/376
f 376/376/376 389/389/389 381/381/381
f 380/380/380 384/384/384 387/387/387
f 390/390/390 385/385/385 378/378/378
f 378/378/378 381/381/381 391/391/391
f 391/391/391 390/390/390 378/378/378
f 383/383/383 386/386/386 392/392/392
f 388/388/388 389/389/389 376/376/376
f 389/389/389 391/391/391 381/381/381
f 392/392/392 384/384/384 383/383/383
f 387/387/387 393/393/393 382/382/382
f 394/394/394 388/388/388 382/382/382
f 393/393/393 394/394/394 382/382/382
f 389/389/389 395/395/395 391/391/391
f 388/388/388 394/394/394 389/389/389
f 389/389/389 394/394/394 395/395/395
f 384/384/384 396/396/396 387/387/387
f 387/387/387 396/396/396 393/393/393
f 391/391/391 395/395/395 390/390/390
f 384/384/384 392/392/392 397/397/397
f 398/398/398 390/390/390 395/395/395
f 384/384/384 397/397/397 396/396/396
f 395/395/395 394/394/394 399/399/399
f 393/393/393 399/399/399 394/394/394
f 396/396/396 399/399/399 393/393/393
f 395/395/395 400/400/400 398/398/398
f 399/399/399 400/400/400 395/395/395
f 397/397/397 401/401/401 396/396/396
f 396/396/396 402/402/402 399/399/399
f 402/402/402 396/396/396 401/401/401
f 402/402/402 403/403/403 399/399/399
f 399/399/399 403/403/403 400/400/400
f 404/404/404 405/405/405 406/406/406
f 407/407/407 406/406/406 405/405/405
f 406/406/406 407/407/407 408/408/408
f 405/405/405 409/409/409 407/407/407
f 410/410/410 409/409/409 405/405/405
f 411/411/411 408/408/408 407/407/407
f 409/409/409 411/411/411 407/407/407
f 410/410/410 412/412/412 413/413/413
f 409/409/409 410/410/410 413/413/413
f 411/411/411 414/414/414 408/408/408
f 412/412/412 415/415/415 413/413/413
f 409/409/409 413/413/413 416/416/416
f 409/409/409 416/416/416 411/411/411
f 411/411/411 416/416/416 417/417/417
f 411/411/411 417/417/417 414/414/414
f 418/418/418 419/419/419 420/420/420
f 415/415/415 421/421/421 413/413/413
f 418/418/418 420/420/420 422/422/422
f 421/421/421 416/416/416 413/413/413
f 423/423/423 421/421/421 415/415/415
f 414/414/414 417/417/417 424/424/424
f 414/414/414 424/424/424 425/425/425
f 419/419/419 418/418/418 423/423/423
f 422/422/422 426/426/426 418/418/418
f 416/416/416 427/427/427 417/417/417
f 422/422/422 428/428/428 426/426/426
f 428/428/428 429/429/429 430/430/430
f 428/428/428 422/422/422 429/429/429
f 427/427/427 416/416/416 431/431/431
f 421/421/421 431/431/431 416/416/416
f 418/418/418 432/432/432 423/423/423
f 430/430/430 433/433/433 434/434/434
f 417/417/417 427/427/427 424/424/424
f 423/423/423 432/432/432 421/421/421
f 418/418/418 426/426/426 432/432/432
f 424/424/424 427/427/427 435/435/435
f 424/424/424 435/435/435 425/425/425
f 436/436/436 430/430/430 434/434/434
f 437/437/437 431/431/431 421/421/421
f 428/428/428 430/430/430 436/436/436
f 421/421/421 432/432/432 437/437/437
f 438/438/438 425/425/425 439/439/439
f 428/428/428 440/440/440 426/426/426
f 425/425/425 435/435/435 439/439/439
f 441/441/441 438/438/438 439/439/439
f 426/426/426 442/442/442 432/432/432
f 440/440/440 428/428/428 436/436/436
f 443/443/443 436/436/436 434/434/434
f 437/437/437 444/444/444 431/431/431
f 431/431/431 444/444/444 427/427/427
f 439/439/439 445/445/445 441/441/441
f 446/446/446 437/437/437 432/432/432
f 447/447/447 448/448/448 441/441/441
f 434/434/434 449/449/449 443/443/443
f 426/426/426 440/440/440 442/442/442
f 446/446/446 432/432/432 442/442/442
f 445/445/445 439/439/439 435/435/435
f 445/445/445 447/447/447 441/441/441
f 440/440/440 450/450/450 442/442/442
f 427/427/427 444/444/444 451/451/451
f 450/450/450 446/446/446 442/442/442
f 437/437/437 446/446/446 452/452/452
f 448/448/448 447/447/447 453/453/453
f 435/435/435 427/427/427 451/451/451
f 436/436/436 450/450/450 440/440/440
f 454/454/454 445/445/445 435/435/435
f 437/437/437 455/455/455 444/444/444
f 435/435/435 451/451/451 456/456/456
f 455/455/455 451/451/451 444/444/444
f 457/457/457 443/443/443 449/449/449
f 454/454/454 447/447/447 445/445/445
f 456/456/456 454/454/454 435/435/435
f 450/450/450 458/458/458 446/446/446
f 443/443/443 459/459/459 436/436/436
f 459/459/459 450/450/450 436/436/436
f 457/457/457 460/460/460 443/443/443
f 437/437/437 452/452/452 455/455/455
f 446/446/446 458/458/458 452/452/452
f 461/461/461 456/456/456 451/451/451
f 461/461/461 451/451/451 455/455/455
f 462/462/462 447/447/447 454/454/454
f 450/450/450 463/463/463 458/458/458
f 464/464/464 455/455/455 452/452/452
f 464/464/464 452/452/452 458/458/458
f 450/450/450 459/459/459 463/463/463
f 465/465/465 455/455/455 464/464/464
f 455/455/455 465/465/465 461/461/461
f 460/460/460 466/466/466 443/443/443
f 459/459/459 443/443/443 466/466/466
f 454/454/454 467/467/467 462/462/462
f 454/454/454 456/456/456 468/468/468
f 469/469/469 464/464/464 458/458/458
f 461/461/461 468/468/468 456/456/456
f 466/466/466 470/470/470 459/459/459
f 469/469/469 458/458/458 463/463/463
f 465/465/465 468/468/468 461/461/461
f 471/471/471 463/463/463 459/459/459
f 464/464/464 469/469/469 472/472/472
f 470/470/470 471/471/471 459/459/459
f 472/472/472 465/465/465 464/464/464
f 468/468/468 467/467/467 454/454/454
f 471/471/471 469/469/469 463/463/463
f 471/471/471 473/473/473 469/469/469
f 474/474/474 465/465/465 472/472/472
f 465/465/465 475/475/475 468/468/468
f 476/476/476 477/477/477 466/466/466
f 473/473/473 472/472/472 469/469/469
f 471/471/471 470/470/470 473/473/473
f 478/478/478 467/467/467 468/468/468
f 468/468/468 475/475/475 479/479/479
f 470/470/470 466/466/466 477/477/477
f 480/480/480 474/474/474 472/472/472
f 473/473/473 470/470/470 477/477/477
f 480/480/480 472/472/472 473/473/473
f 465/465/465 474/474/474 475/475/475
f 468/468/468 479/479/479 478/478/478
f 474/474/474 481/481/481 475/475/475
f 481/481/481 474/474/474 480/480/480
f 482/482/482 473/473/473 477/477/477
f 473/473/473 482/482/482 480/480/480
f 475/475/475 481/481/481 479/479/479
f 477/477/477 476/476/476 483/483/483
f 484/484/484 478/478/478 479/479/479
f 485/485/485 482/482/482 477/477/477
f 479/479/479 486/486/486 484/484/484
f 483/483/483 485/485/485 477/477/477
f 486/486/486 479/479/479 481/481/481
f 487/487/487 480/480/480 482/482/482
f 482/482/482 485/485/485 488/488/488
f 480/480/480 487/487/487 481/481/481
f 488/488/488 487/487/487 482/482/482
f 483/483/483 489/489/489 485/485/485
f 481/481/481 490/490/490 486/486/486
f 491/491/491 489/489/489 483/483/483
f 487/487/487 490/490/490 481/481/481
f 486/486/486 490/490/490 492/492/492
f 488/488/488 493/493/493 487/487/487
f 488/488/488 485/485/485 489/489/489
f 493/493/493 490/490/490 487/487/487
f 493/493/493 492/492/492 490/490/490
f 494/494/494 495/495/495 496/496/496
f 496/496/496 495/495/495 497/497/497
f 497/497/497 495/495/495 498/498/498
f 497/497/497 498/498/498 499/499/499
f 500/500/500 501/501/501 496/496/496
f 502/502/502 497/497/497 503/503/503
f 497/497/497 502/502/502 496/496/496
f 499/499/499 503/503/503 497/497/497
f 499/499/499 504/504/504 505/505/505
f 502/502/502 500/500/500 496/496/496
f 506/506/506 505/505/505 504/504/504
f 501/501/501 500/500/500 507/507/507
f 503/503/503 499/499/499 505/505/505
f 508/508/508 509/509/509 510/510/510
f 509/509/509 501/501/501 510/510/510
f 510/510/510 501/501/501 507/507/507
f 506/506/506 511/511/511 505/505/505
f 502/502/502 512/512/512 500/500/500
f 513/513/513 514/514/514 515/515/515
f 511/511/511 514/514/514 513/513/513
f 505/505/505 511/511/511 516/516/516
f 502/502/502 503/503/503 512/512/512
f 505/505/505 516/516/516 503/503/503
f 517/517/517 508/508/508 510/510/510
f 512/512/512 503/503/503 518/518/518
f 519/519/519 508/508/508 517/517/517
f 512/512/512 520/520/520 500/500/500
f 503/503/503 516/516/516 518/518/518
f 511/511/511 513/513/513 521/521/521
f 517/517/517 510/510/510 507/507/507
f 516/516/516 511/511/511 521/521/521
f 500/500/500 520/520/520 507/507/507
f 518/518/518 520/520/520 512/512/512
f 513/513/513 522/522/522 521/521/521
f 523/523/523 519/519/519 524/524/524
f 524/524/524 519/519/519 517/517/517
f 525/525/525 513/513/513 526/526/526
f 517/517/517 507/507/507 527/527/527
f 526/526/526 528/528/528 525/525/525
f 529/529/529 518/518/518 516/516/516
f 513/513/513 525/525/525 522/522/522
f 529/529/529 516/516/516 521/521/521
f 507/507/507 520/520/520 530/530/530
f 531/531/531 532/532/532 533/533/533
f 520/520/520 518/518/518 534/534/534
f 534/534/534 518/518/518 529/529/529
f 522/522/522 535/535/535 521/521/521
f 532/532/532 528/528/528 533/533/533
f 517/517/517 527/527/527 536/536/536
f 536/536/536 524/524/524 517/517/517
f 521/521/521 537/537/537 529/529/529
f 534/534/534 530/530/530 520/520/520
f 530/530/530 527/527/527 507/507/507
f 531/531/531 538/538/538 532/532/532
f 539/539/539 524/524/524 536/536/536
f 522/522/522 525/525/525 535/535/535
f 525/525/525 528/528/528 540/540/540
f 541/541/541 534/534/534 529/529/529
f 528/528/528 532/532/532 540/540/540
f 542/542/542 536/536/536 527/527/527
f 527/527/527 530/530/530 543/543/543
f 535/535/535 525/525/525 544/544/544
f 544/544/544 525/525/525 540/540/540
f 535/535/535 537/537/537 521/521/521
f 542/542/542 527/527/527 543/543/543
f 537/537/537 541/541/541 529/529/529
f 545/545/545 538/538/538 546/546/546
f 532/532/532 538/538/538 545/545/545
f 534/534/534 541/541/541 547/547/547
f 534/534/534 547/547/547 530/530/530
f 539/539/539 536/536/536 542/542/542
f 548/548/548 549/549/549 546/546/546
f 547/547/547 541/541/541 550/550/550
f 537/537/537 535/535/535 551/551/551
f 545/545/545 546/546/546 549/549/549
f 530/530/530 547/547/547 552/552/552
f 550/550/550 541/541/541 537/537/537
f 535/535/535 544/544/544 551/551/551
f 539/539/539 542/542/542 553/553/553
f 554/554/554 540/540/540 532/532/532
f 542/542/542 543/543/543 555/555/555
f 532/532/532 545/545/545 554/554/554
f 530/530/530 556/556/556 543/543/543
f 554/554/554 545/545/545 549/549/549
f 552/552/552 547/547/547 550/550/550
f 543/543/543 556/556/556 555/555/555
f 537/537/537 557/557/557 550/550/550
f 537/537/537 551/551/551 557/557/557
f 548/548/548 558/558/558 549/549/549
f 544/544/544 540/540/540 559/559/559
f 553/553/553 560/560/560 539/539/539
f 530/530/530 552/552/552 556/556/556
f 561/561/561 551/551/551 544/544/544
f 553/553/553 542/542/542 555/555/555
f 540/540/540 554/554/554 559/559/559
f 561/561/561 544/544/544 559/559/559
f 552/552/552 550/550/550 562/562/562
f 553/553/553 563/563/563 560/560/560
f 551/551/551 564/564/564 557/557/557
f 549/549/549 565/565/565 554/554/554
f 555/555/555 566/566/566 553/553/553
f 549/549/549 558/558/558 567/567/567
f 561/561/561 564/564/564 551/551/551
f 554/554/554 565/565/565 559/559/559
f 550/550/550 557/557/557 562/562/562
f 568/568/568 549/549/549 567/567/567
f 555/555/555 556/556/556 566/566/566
f 556/556/556 552/552/552 562/562/562
f 553/553/553 569/569/569 563/563/563
f 565/565/565 549/549/549 568/568/568
f 556/556/556 570/570/570 566/566/566
f 562/562/562 557/557/557 571/571/571
f 561/561/561 559/559/559 572/572/572
f 569/569/569 553/553/553 566/566/566
f 556/556/556 562/562/562 570/570/570
f 557/557/557 564/564/564 571/571/571
f 573/573/573 559/559/559 565/565/565
f 568/568/568 567/567/567 574/574/574
f 573/573/573 565/565/565 568/568/568
f 571/571/571 564/564/564 575/575/575
f 574/574/574 576/576/576 568/568/568
f 562/562/562 571/571/571 577/577/577
f 569/569/569 566/566/566 570/570/570
f 561/561/561 572/572/572 564/564/564
f 570/570/570 562/562/562 577/577/577
f 572/572/572 559/559/559 573/573/573
f 578/578/578 563/563/563 569/569/569
f 570/570/570 579/579/579 569/569/569
f 564/564/564 572/572/572 575/575/575
f 580/580/580 571/571/571 575/575/575
f 581/581/581 573/573/573 568/568/568
f 582/582/582 572/572/572 573/573/573
f 568/568/568 576/576/576 581/581/581
f 578/578/578 569/569/569 583/583/583
f 572/572/572 582/582/582 575/575/575
f 577/577/577 571/571/571 580/580/580
f 570/570/570 577/577/577 584/584/584
f 581/581/581 585/585/585 573/573/573
f 579/579/579 570/570/570 584/584/584
f 582/582/582 573/573/573 585/585/585
f 577/577/577 580/580/580 586/586/586
f 587/587/587 580/580/580 575/575/575
f 582/582/582 585/585/585 588/588/588
f 569/569/569 579/579/579 589/589/589
f 584/584/584 577/577/577 586/586/586
f 575/575/575 582/582/582 587/587/587
f 569/569/569 589/589/589 583/583/583
f 586/586/586 580/580/580 587/587/587
f 581/581/581 576/576/576 590/590/590
f 591/591/591 590/590/590 576/576/576
f 590/590/590 585/585/585 581/581/581
f 592/592/592 593/593/593 594/594/594
f 579/579/579 595/595/595 589/589/589
f 579/579/579 584/584/584 595/595/595
f 593/593/593 596/596/596 594/594/594
f 593/593/593 597/597/597 596/596/596
f 594/594/594 598/598/598 592/592/592
f 594/594/594 596/596/596 599/599/599
f 593/593/593 600/600/600 597/597/597
f 594/594/594 599/599/599 601/601/601
f 602/602/602 593/593/593 592/592/592
f 587/587/587 582/582/582 603/603/603
f 582/582/582 588/588/588 603/603/603
f 604/604/604 590/590/590 591/591/591
f 583/583/583 589/589/589 605/605/605
f 602/602/602 592/592/592 606/606/606
f 599/599/599 596/596/596 607/607/607
f 588/588/588 585/585/585 590/590/590
f 606/606/606 592/592/592 598/598/598
f 600/600/600 593/593/593 608/608/608
f 609/609/609 604/604/604 591/591/591
f 605/605/605 606/606/606 598/598/598
f 597/597/597 610/610/610 596/596/596
f 595/595/595 584/584/584 586/586/586
f 598/598/598 594/594/594 601/601/601
f 596/596/596 610/610/610 604/604/604
f 610/610/610 597/597/597 600/600/600
f 610/610/610 600/600/600 603/603/603
f 586/586/586 587/587/587 611/611/611
f 608/608/608 603/603/603 600/600/600
f 612/612/612 613/613/613 614/614/614
f 598/598/598 615/615/615 605/605/605
f 602/602/602 608/608/608 593/593/593
f 611/611/611 587/587/587 603/603/603
f 603/603/603 588/588/588 610/610/610
f 601/601/601 616/616/616 612/612/612
f 589/589/589 595/595/595 605/605/605
f 588/588/588 590/590/590 610/610/610
f 605/605/605 602/602/602 606/606/606
f 601/601/601 607/607/607 616/616/616
f 601/601/601 599/599/599 607/607/607
f 586/586/586 611/611/611 595/595/595
f 608/608/608 611/611/611 603/603/603
f 610/610/610 590/590/590 604/604/604
f 615/615/615 598/598/598 614/614/614
f 614/614/614 601/601/601 612/612/612
f 614/614/614 598/598/598 601/601/601
f 609/609/609 607/607/607 596/596/596
f 596/596/596 604/604/604 609/609/609
f 595/595/595 602/602/602 605/605/605
f 595/595/595 611/611/611 602/602/602
f 608/608/608 602/602/602 611/611/611
